<mxfile host="Electron" modified="2024-01-15T15:43:37.474Z" agent="Mozilla/5.0 (Windows NT 10.0; Win64; x64) AppleWebKit/537.36 (KHTML, like Gecko) draw.io/22.1.18 Chrome/120.0.6099.199 Electron/28.1.2 Safari/537.36" etag="KilefS6Eqk9-gEyf91B7" version="22.1.18" type="device">
  <diagram name="第 1 页" id="_Tn6D2xPRIzX1bHNErtb">
    <mxGraphModel dx="2261" dy="844" grid="1" gridSize="10" guides="1" tooltips="1" connect="1" arrows="1" fold="1" page="1" pageScale="1" pageWidth="827" pageHeight="1169" math="0" shadow="0">
      <root>
        <mxCell id="0" />
        <mxCell id="1" parent="0" />
        <mxCell id="pd1kDjK4zznccs3xAjcE-3" value="" style="edgeStyle=orthogonalEdgeStyle;rounded=0;orthogonalLoop=1;jettySize=auto;html=1;" edge="1" parent="1" source="pd1kDjK4zznccs3xAjcE-1" target="pd1kDjK4zznccs3xAjcE-2">
          <mxGeometry relative="1" as="geometry" />
        </mxCell>
        <mxCell id="pd1kDjK4zznccs3xAjcE-4" style="edgeStyle=orthogonalEdgeStyle;rounded=0;orthogonalLoop=1;jettySize=auto;html=1;entryX=0.5;entryY=0;entryDx=0;entryDy=0;" edge="1" parent="1" source="pd1kDjK4zznccs3xAjcE-1" target="pd1kDjK4zznccs3xAjcE-5">
          <mxGeometry relative="1" as="geometry">
            <mxPoint x="380" y="420" as="targetPoint" />
          </mxGeometry>
        </mxCell>
        <mxCell id="pd1kDjK4zznccs3xAjcE-1" value="名字-音调" style="rounded=0;whiteSpace=wrap;html=1;" vertex="1" parent="1">
          <mxGeometry x="270" y="300" width="120" height="60" as="geometry" />
        </mxCell>
        <mxCell id="pd1kDjK4zznccs3xAjcE-2" value="声母" style="rounded=0;whiteSpace=wrap;html=1;" vertex="1" parent="1">
          <mxGeometry x="190" y="410" width="120" height="60" as="geometry" />
        </mxCell>
        <mxCell id="pd1kDjK4zznccs3xAjcE-5" value="韵母" style="rounded=0;whiteSpace=wrap;html=1;" vertex="1" parent="1">
          <mxGeometry x="354" y="410" width="120" height="60" as="geometry" />
        </mxCell>
        <mxCell id="pd1kDjK4zznccs3xAjcE-6" value="Assets" style="childLayout=tableLayout;recursiveResize=0;strokeColor=#98bf21;fillColor=#A7C942;shadow=1;" vertex="1" parent="1">
          <mxGeometry x="90" y="490" width="500" height="191" as="geometry" />
        </mxCell>
        <mxCell id="pd1kDjK4zznccs3xAjcE-7" style="shape=tableRow;horizontal=0;startSize=0;swimlaneHead=0;swimlaneBody=0;top=0;left=0;bottom=0;right=0;dropTarget=0;collapsible=0;recursiveResize=0;expand=0;fontStyle=0;strokeColor=inherit;fillColor=#ffffff;" vertex="1" parent="pd1kDjK4zznccs3xAjcE-6">
          <mxGeometry width="500" height="33" as="geometry" />
        </mxCell>
        <mxCell id="pd1kDjK4zznccs3xAjcE-8" value="声母" style="connectable=0;recursiveResize=0;strokeColor=inherit;fillColor=#A7C942;align=center;fontStyle=1;fontColor=#FFFFFF;html=1;" vertex="1" parent="pd1kDjK4zznccs3xAjcE-7">
          <mxGeometry width="166" height="33" as="geometry">
            <mxRectangle width="166" height="33" as="alternateBounds" />
          </mxGeometry>
        </mxCell>
        <mxCell id="pd1kDjK4zznccs3xAjcE-9" value="字母" style="connectable=0;recursiveResize=0;strokeColor=inherit;fillColor=#A7C942;align=center;fontStyle=1;fontColor=#FFFFFF;html=1;" vertex="1" parent="pd1kDjK4zznccs3xAjcE-7">
          <mxGeometry x="166" width="168" height="33" as="geometry">
            <mxRectangle width="168" height="33" as="alternateBounds" />
          </mxGeometry>
        </mxCell>
        <mxCell id="pd1kDjK4zznccs3xAjcE-10" value="描述" style="connectable=0;recursiveResize=0;strokeColor=inherit;fillColor=#A7C942;align=center;fontStyle=1;fontColor=#FFFFFF;html=1;" vertex="1" parent="pd1kDjK4zznccs3xAjcE-7">
          <mxGeometry x="334" width="166" height="33" as="geometry">
            <mxRectangle width="166" height="33" as="alternateBounds" />
          </mxGeometry>
        </mxCell>
        <mxCell id="pd1kDjK4zznccs3xAjcE-11" value="" style="shape=tableRow;horizontal=0;startSize=0;swimlaneHead=0;swimlaneBody=0;top=0;left=0;bottom=0;right=0;dropTarget=0;collapsible=0;recursiveResize=0;expand=0;fontStyle=0;strokeColor=inherit;fillColor=#ffffff;" vertex="1" parent="pd1kDjK4zznccs3xAjcE-6">
          <mxGeometry y="33" width="500" height="32" as="geometry" />
        </mxCell>
        <mxCell id="pd1kDjK4zznccs3xAjcE-12" value="零组" style="connectable=0;recursiveResize=0;strokeColor=inherit;fillColor=inherit;align=center;whiteSpace=wrap;html=1;" vertex="1" parent="pd1kDjK4zznccs3xAjcE-11">
          <mxGeometry width="166" height="32" as="geometry">
            <mxRectangle width="166" height="32" as="alternateBounds" />
          </mxGeometry>
        </mxCell>
        <mxCell id="pd1kDjK4zznccs3xAjcE-13" value="w y" style="connectable=0;recursiveResize=0;strokeColor=inherit;fillColor=inherit;align=center;whiteSpace=wrap;html=1;" vertex="1" parent="pd1kDjK4zznccs3xAjcE-11">
          <mxGeometry x="166" width="168" height="32" as="geometry">
            <mxRectangle width="168" height="32" as="alternateBounds" />
          </mxGeometry>
        </mxCell>
        <mxCell id="pd1kDjK4zznccs3xAjcE-14" value="" style="connectable=0;recursiveResize=0;strokeColor=inherit;fillColor=inherit;align=center;whiteSpace=wrap;html=1;" vertex="1" parent="pd1kDjK4zznccs3xAjcE-11">
          <mxGeometry x="334" width="166" height="32" as="geometry">
            <mxRectangle width="166" height="32" as="alternateBounds" />
          </mxGeometry>
        </mxCell>
        <mxCell id="pd1kDjK4zznccs3xAjcE-15" value="" style="shape=tableRow;horizontal=0;startSize=0;swimlaneHead=0;swimlaneBody=0;top=0;left=0;bottom=0;right=0;dropTarget=0;collapsible=0;recursiveResize=0;expand=0;fontStyle=1;strokeColor=inherit;fillColor=#EAF2D3;" vertex="1" parent="pd1kDjK4zznccs3xAjcE-6">
          <mxGeometry y="65" width="500" height="31" as="geometry" />
        </mxCell>
        <mxCell id="pd1kDjK4zznccs3xAjcE-16" value="1" style="connectable=0;recursiveResize=0;strokeColor=inherit;fillColor=inherit;whiteSpace=wrap;html=1;" vertex="1" parent="pd1kDjK4zznccs3xAjcE-15">
          <mxGeometry width="166" height="31" as="geometry">
            <mxRectangle width="166" height="31" as="alternateBounds" />
          </mxGeometry>
        </mxCell>
        <mxCell id="pd1kDjK4zznccs3xAjcE-17" value="b p m f&amp;nbsp;" style="connectable=0;recursiveResize=0;strokeColor=inherit;fillColor=inherit;whiteSpace=wrap;html=1;" vertex="1" parent="pd1kDjK4zznccs3xAjcE-15">
          <mxGeometry x="166" width="168" height="31" as="geometry">
            <mxRectangle width="168" height="31" as="alternateBounds" />
          </mxGeometry>
        </mxCell>
        <mxCell id="pd1kDjK4zznccs3xAjcE-18" value="唇音" style="connectable=0;recursiveResize=0;strokeColor=inherit;fillColor=inherit;whiteSpace=wrap;html=1;" vertex="1" parent="pd1kDjK4zznccs3xAjcE-15">
          <mxGeometry x="334" width="166" height="31" as="geometry">
            <mxRectangle width="166" height="31" as="alternateBounds" />
          </mxGeometry>
        </mxCell>
        <mxCell id="pd1kDjK4zznccs3xAjcE-19" value="" style="shape=tableRow;horizontal=0;startSize=0;swimlaneHead=0;swimlaneBody=0;top=0;left=0;bottom=0;right=0;dropTarget=0;collapsible=0;recursiveResize=0;expand=0;fontStyle=0;strokeColor=inherit;fillColor=#ffffff;" vertex="1" parent="pd1kDjK4zznccs3xAjcE-6">
          <mxGeometry y="96" width="500" height="33" as="geometry" />
        </mxCell>
        <mxCell id="pd1kDjK4zznccs3xAjcE-20" value="2" style="connectable=0;recursiveResize=0;strokeColor=inherit;fillColor=inherit;fontStyle=0;align=center;whiteSpace=wrap;html=1;" vertex="1" parent="pd1kDjK4zznccs3xAjcE-19">
          <mxGeometry width="166" height="33" as="geometry">
            <mxRectangle width="166" height="33" as="alternateBounds" />
          </mxGeometry>
        </mxCell>
        <mxCell id="pd1kDjK4zznccs3xAjcE-21" value="d t n l" style="connectable=0;recursiveResize=0;strokeColor=inherit;fillColor=inherit;fontStyle=0;align=center;whiteSpace=wrap;html=1;" vertex="1" parent="pd1kDjK4zznccs3xAjcE-19">
          <mxGeometry x="166" width="168" height="33" as="geometry">
            <mxRectangle width="168" height="33" as="alternateBounds" />
          </mxGeometry>
        </mxCell>
        <mxCell id="pd1kDjK4zznccs3xAjcE-22" value="舌尖音" style="connectable=0;recursiveResize=0;strokeColor=inherit;fillColor=inherit;fontStyle=0;align=center;whiteSpace=wrap;html=1;" vertex="1" parent="pd1kDjK4zznccs3xAjcE-19">
          <mxGeometry x="334" width="166" height="33" as="geometry">
            <mxRectangle width="166" height="33" as="alternateBounds" />
          </mxGeometry>
        </mxCell>
        <mxCell id="pd1kDjK4zznccs3xAjcE-23" value="" style="shape=tableRow;horizontal=0;startSize=0;swimlaneHead=0;swimlaneBody=0;top=0;left=0;bottom=0;right=0;dropTarget=0;collapsible=0;recursiveResize=0;expand=0;fontStyle=1;strokeColor=inherit;fillColor=#EAF2D3;" vertex="1" parent="pd1kDjK4zznccs3xAjcE-6">
          <mxGeometry y="129" width="500" height="31" as="geometry" />
        </mxCell>
        <mxCell id="pd1kDjK4zznccs3xAjcE-24" value="3" style="connectable=0;recursiveResize=0;strokeColor=inherit;fillColor=inherit;whiteSpace=wrap;html=1;" vertex="1" parent="pd1kDjK4zznccs3xAjcE-23">
          <mxGeometry width="166" height="31" as="geometry">
            <mxRectangle width="166" height="31" as="alternateBounds" />
          </mxGeometry>
        </mxCell>
        <mxCell id="pd1kDjK4zznccs3xAjcE-25" value="g k h" style="connectable=0;recursiveResize=0;strokeColor=inherit;fillColor=inherit;whiteSpace=wrap;html=1;" vertex="1" parent="pd1kDjK4zznccs3xAjcE-23">
          <mxGeometry x="166" width="168" height="31" as="geometry">
            <mxRectangle width="168" height="31" as="alternateBounds" />
          </mxGeometry>
        </mxCell>
        <mxCell id="pd1kDjK4zznccs3xAjcE-26" value="舌根音" style="connectable=0;recursiveResize=0;strokeColor=inherit;fillColor=inherit;whiteSpace=wrap;html=1;" vertex="1" parent="pd1kDjK4zznccs3xAjcE-23">
          <mxGeometry x="334" width="166" height="31" as="geometry">
            <mxRectangle width="166" height="31" as="alternateBounds" />
          </mxGeometry>
        </mxCell>
        <mxCell id="pd1kDjK4zznccs3xAjcE-31" style="shape=tableRow;horizontal=0;startSize=0;swimlaneHead=0;swimlaneBody=0;top=0;left=0;bottom=0;right=0;dropTarget=0;collapsible=0;recursiveResize=0;expand=0;fontStyle=1;strokeColor=inherit;fillColor=#EAF2D3;" vertex="1" parent="pd1kDjK4zznccs3xAjcE-6">
          <mxGeometry y="160" width="500" height="31" as="geometry" />
        </mxCell>
        <mxCell id="pd1kDjK4zznccs3xAjcE-32" value="4" style="connectable=0;recursiveResize=0;strokeColor=inherit;fillColor=inherit;whiteSpace=wrap;html=1;" vertex="1" parent="pd1kDjK4zznccs3xAjcE-31">
          <mxGeometry width="166" height="31" as="geometry">
            <mxRectangle width="166" height="31" as="alternateBounds" />
          </mxGeometry>
        </mxCell>
        <mxCell id="pd1kDjK4zznccs3xAjcE-33" value="j q x zh ch sh r z c s" style="connectable=0;recursiveResize=0;strokeColor=inherit;fillColor=inherit;whiteSpace=wrap;html=1;" vertex="1" parent="pd1kDjK4zznccs3xAjcE-31">
          <mxGeometry x="166" width="168" height="31" as="geometry">
            <mxRectangle width="168" height="31" as="alternateBounds" />
          </mxGeometry>
        </mxCell>
        <mxCell id="pd1kDjK4zznccs3xAjcE-34" value="舌面音、舌尖后音、舌尖前音" style="connectable=0;recursiveResize=0;strokeColor=inherit;fillColor=inherit;whiteSpace=wrap;html=1;" vertex="1" parent="pd1kDjK4zznccs3xAjcE-31">
          <mxGeometry x="334" width="166" height="31" as="geometry">
            <mxRectangle width="166" height="31" as="alternateBounds" />
          </mxGeometry>
        </mxCell>
        <mxCell id="pd1kDjK4zznccs3xAjcE-35" value="Assets" style="childLayout=tableLayout;recursiveResize=0;strokeColor=#98bf21;fillColor=#A7C942;shadow=1;" vertex="1" parent="1">
          <mxGeometry x="-110" y="710" width="930" height="191" as="geometry" />
        </mxCell>
        <mxCell id="pd1kDjK4zznccs3xAjcE-36" style="shape=tableRow;horizontal=0;startSize=0;swimlaneHead=0;swimlaneBody=0;top=0;left=0;bottom=0;right=0;dropTarget=0;collapsible=0;recursiveResize=0;expand=0;fontStyle=0;strokeColor=inherit;fillColor=#ffffff;" vertex="1" parent="pd1kDjK4zznccs3xAjcE-35">
          <mxGeometry width="930" height="33" as="geometry" />
        </mxCell>
        <mxCell id="pd1kDjK4zznccs3xAjcE-37" value="韵母" style="connectable=0;recursiveResize=0;strokeColor=inherit;fillColor=#A7C942;align=center;fontStyle=1;fontColor=#FFFFFF;html=1;" vertex="1" parent="pd1kDjK4zznccs3xAjcE-36">
          <mxGeometry width="310" height="33" as="geometry">
            <mxRectangle width="310" height="33" as="alternateBounds" />
          </mxGeometry>
        </mxCell>
        <mxCell id="pd1kDjK4zznccs3xAjcE-38" value="字母" style="connectable=0;recursiveResize=0;strokeColor=inherit;fillColor=#A7C942;align=center;fontStyle=1;fontColor=#FFFFFF;html=1;" vertex="1" parent="pd1kDjK4zznccs3xAjcE-36">
          <mxGeometry x="310" width="311" height="33" as="geometry">
            <mxRectangle width="311" height="33" as="alternateBounds" />
          </mxGeometry>
        </mxCell>
        <mxCell id="pd1kDjK4zznccs3xAjcE-39" value="描述" style="connectable=0;recursiveResize=0;strokeColor=inherit;fillColor=#A7C942;align=center;fontStyle=1;fontColor=#FFFFFF;html=1;" vertex="1" parent="pd1kDjK4zznccs3xAjcE-36">
          <mxGeometry x="621" width="309" height="33" as="geometry">
            <mxRectangle width="309" height="33" as="alternateBounds" />
          </mxGeometry>
        </mxCell>
        <mxCell id="pd1kDjK4zznccs3xAjcE-40" value="" style="shape=tableRow;horizontal=0;startSize=0;swimlaneHead=0;swimlaneBody=0;top=0;left=0;bottom=0;right=0;dropTarget=0;collapsible=0;recursiveResize=0;expand=0;fontStyle=0;strokeColor=inherit;fillColor=#ffffff;" vertex="1" parent="pd1kDjK4zznccs3xAjcE-35">
          <mxGeometry y="33" width="930" height="32" as="geometry" />
        </mxCell>
        <mxCell id="pd1kDjK4zznccs3xAjcE-41" value="1" style="connectable=0;recursiveResize=0;strokeColor=inherit;fillColor=inherit;align=center;whiteSpace=wrap;html=1;" vertex="1" parent="pd1kDjK4zznccs3xAjcE-40">
          <mxGeometry width="310" height="32" as="geometry">
            <mxRectangle width="310" height="32" as="alternateBounds" />
          </mxGeometry>
        </mxCell>
        <mxCell id="pd1kDjK4zznccs3xAjcE-42" value="a ai ao an ang" style="connectable=0;recursiveResize=0;strokeColor=inherit;fillColor=inherit;align=center;whiteSpace=wrap;html=1;" vertex="1" parent="pd1kDjK4zznccs3xAjcE-40">
          <mxGeometry x="310" width="311" height="32" as="geometry">
            <mxRectangle width="311" height="32" as="alternateBounds" />
          </mxGeometry>
        </mxCell>
        <mxCell id="pd1kDjK4zznccs3xAjcE-43" value="Value 3" style="connectable=0;recursiveResize=0;strokeColor=inherit;fillColor=inherit;align=center;whiteSpace=wrap;html=1;" vertex="1" parent="pd1kDjK4zznccs3xAjcE-40">
          <mxGeometry x="621" width="309" height="32" as="geometry">
            <mxRectangle width="309" height="32" as="alternateBounds" />
          </mxGeometry>
        </mxCell>
        <mxCell id="pd1kDjK4zznccs3xAjcE-44" value="" style="shape=tableRow;horizontal=0;startSize=0;swimlaneHead=0;swimlaneBody=0;top=0;left=0;bottom=0;right=0;dropTarget=0;collapsible=0;recursiveResize=0;expand=0;fontStyle=1;strokeColor=inherit;fillColor=#EAF2D3;" vertex="1" parent="pd1kDjK4zznccs3xAjcE-35">
          <mxGeometry y="65" width="930" height="31" as="geometry" />
        </mxCell>
        <mxCell id="pd1kDjK4zznccs3xAjcE-45" value="2" style="connectable=0;recursiveResize=0;strokeColor=inherit;fillColor=inherit;whiteSpace=wrap;html=1;" vertex="1" parent="pd1kDjK4zznccs3xAjcE-44">
          <mxGeometry width="310" height="31" as="geometry">
            <mxRectangle width="310" height="31" as="alternateBounds" />
          </mxGeometry>
        </mxCell>
        <mxCell id="pd1kDjK4zznccs3xAjcE-46" value="e er ei en eng" style="connectable=0;recursiveResize=0;strokeColor=inherit;fillColor=inherit;whiteSpace=wrap;html=1;" vertex="1" parent="pd1kDjK4zznccs3xAjcE-44">
          <mxGeometry x="310" width="311" height="31" as="geometry">
            <mxRectangle width="311" height="31" as="alternateBounds" />
          </mxGeometry>
        </mxCell>
        <mxCell id="pd1kDjK4zznccs3xAjcE-47" value="Value 6" style="connectable=0;recursiveResize=0;strokeColor=inherit;fillColor=inherit;whiteSpace=wrap;html=1;" vertex="1" parent="pd1kDjK4zznccs3xAjcE-44">
          <mxGeometry x="621" width="309" height="31" as="geometry">
            <mxRectangle width="309" height="31" as="alternateBounds" />
          </mxGeometry>
        </mxCell>
        <mxCell id="pd1kDjK4zznccs3xAjcE-48" value="" style="shape=tableRow;horizontal=0;startSize=0;swimlaneHead=0;swimlaneBody=0;top=0;left=0;bottom=0;right=0;dropTarget=0;collapsible=0;recursiveResize=0;expand=0;fontStyle=0;strokeColor=inherit;fillColor=#ffffff;" vertex="1" parent="pd1kDjK4zznccs3xAjcE-35">
          <mxGeometry y="96" width="930" height="33" as="geometry" />
        </mxCell>
        <mxCell id="pd1kDjK4zznccs3xAjcE-49" value="3" style="connectable=0;recursiveResize=0;strokeColor=inherit;fillColor=inherit;fontStyle=0;align=center;whiteSpace=wrap;html=1;" vertex="1" parent="pd1kDjK4zznccs3xAjcE-48">
          <mxGeometry width="310" height="33" as="geometry">
            <mxRectangle width="310" height="33" as="alternateBounds" />
          </mxGeometry>
        </mxCell>
        <mxCell id="pd1kDjK4zznccs3xAjcE-50" value="o ou ong" style="connectable=0;recursiveResize=0;strokeColor=inherit;fillColor=inherit;fontStyle=0;align=center;whiteSpace=wrap;html=1;" vertex="1" parent="pd1kDjK4zznccs3xAjcE-48">
          <mxGeometry x="310" width="311" height="33" as="geometry">
            <mxRectangle width="311" height="33" as="alternateBounds" />
          </mxGeometry>
        </mxCell>
        <mxCell id="pd1kDjK4zznccs3xAjcE-51" value="Value 9" style="connectable=0;recursiveResize=0;strokeColor=inherit;fillColor=inherit;fontStyle=0;align=center;whiteSpace=wrap;html=1;" vertex="1" parent="pd1kDjK4zznccs3xAjcE-48">
          <mxGeometry x="621" width="309" height="33" as="geometry">
            <mxRectangle width="309" height="33" as="alternateBounds" />
          </mxGeometry>
        </mxCell>
        <mxCell id="pd1kDjK4zznccs3xAjcE-52" value="" style="shape=tableRow;horizontal=0;startSize=0;swimlaneHead=0;swimlaneBody=0;top=0;left=0;bottom=0;right=0;dropTarget=0;collapsible=0;recursiveResize=0;expand=0;fontStyle=1;strokeColor=inherit;fillColor=#EAF2D3;" vertex="1" parent="pd1kDjK4zznccs3xAjcE-35">
          <mxGeometry y="129" width="930" height="31" as="geometry" />
        </mxCell>
        <mxCell id="pd1kDjK4zznccs3xAjcE-53" value="4" style="connectable=0;recursiveResize=0;strokeColor=inherit;fillColor=inherit;whiteSpace=wrap;html=1;" vertex="1" parent="pd1kDjK4zznccs3xAjcE-52">
          <mxGeometry width="310" height="31" as="geometry">
            <mxRectangle width="310" height="31" as="alternateBounds" />
          </mxGeometry>
        </mxCell>
        <mxCell id="pd1kDjK4zznccs3xAjcE-54" value="i ia ie iao iou ian in iang ing iong v ve van vn" style="connectable=0;recursiveResize=0;strokeColor=inherit;fillColor=inherit;whiteSpace=wrap;html=1;" vertex="1" parent="pd1kDjK4zznccs3xAjcE-52">
          <mxGeometry x="310" width="311" height="31" as="geometry">
            <mxRectangle width="311" height="31" as="alternateBounds" />
          </mxGeometry>
        </mxCell>
        <mxCell id="pd1kDjK4zznccs3xAjcE-55" value="Value 12" style="connectable=0;recursiveResize=0;strokeColor=inherit;fillColor=inherit;whiteSpace=wrap;html=1;" vertex="1" parent="pd1kDjK4zznccs3xAjcE-52">
          <mxGeometry x="621" width="309" height="31" as="geometry">
            <mxRectangle width="309" height="31" as="alternateBounds" />
          </mxGeometry>
        </mxCell>
        <mxCell id="pd1kDjK4zznccs3xAjcE-60" style="shape=tableRow;horizontal=0;startSize=0;swimlaneHead=0;swimlaneBody=0;top=0;left=0;bottom=0;right=0;dropTarget=0;collapsible=0;recursiveResize=0;expand=0;fontStyle=1;strokeColor=inherit;fillColor=#EAF2D3;" vertex="1" parent="pd1kDjK4zznccs3xAjcE-35">
          <mxGeometry y="160" width="930" height="31" as="geometry" />
        </mxCell>
        <mxCell id="pd1kDjK4zznccs3xAjcE-61" value="5" style="connectable=0;recursiveResize=0;strokeColor=inherit;fillColor=inherit;whiteSpace=wrap;html=1;" vertex="1" parent="pd1kDjK4zznccs3xAjcE-60">
          <mxGeometry width="310" height="31" as="geometry">
            <mxRectangle width="310" height="31" as="alternateBounds" />
          </mxGeometry>
        </mxCell>
        <mxCell id="pd1kDjK4zznccs3xAjcE-62" value="u ua uo uai uei uan uen uang ueng" style="connectable=0;recursiveResize=0;strokeColor=inherit;fillColor=inherit;whiteSpace=wrap;html=1;" vertex="1" parent="pd1kDjK4zznccs3xAjcE-60">
          <mxGeometry x="310" width="311" height="31" as="geometry">
            <mxRectangle width="311" height="31" as="alternateBounds" />
          </mxGeometry>
        </mxCell>
        <mxCell id="pd1kDjK4zznccs3xAjcE-63" style="connectable=0;recursiveResize=0;strokeColor=inherit;fillColor=inherit;whiteSpace=wrap;html=1;" vertex="1" parent="pd1kDjK4zznccs3xAjcE-60">
          <mxGeometry x="621" width="309" height="31" as="geometry">
            <mxRectangle width="309" height="31" as="alternateBounds" />
          </mxGeometry>
        </mxCell>
        <mxCell id="pd1kDjK4zznccs3xAjcE-64" value="1.名和姓的声母不同组，韵母不同类&lt;br&gt;2.声母，韵母同组，在中间穿插不同组字（回环）" style="text;html=1;strokeColor=none;fillColor=none;align=center;verticalAlign=middle;whiteSpace=wrap;rounded=0;" vertex="1" parent="1">
          <mxGeometry x="-310" y="401" width="310" height="280" as="geometry" />
        </mxCell>
        <mxCell id="pd1kDjK4zznccs3xAjcE-65" value="Assets" style="childLayout=tableLayout;recursiveResize=0;strokeColor=#98bf21;fillColor=#A7C942;shadow=1;" vertex="1" parent="1">
          <mxGeometry x="170" y="960" width="280" height="160" as="geometry" />
        </mxCell>
        <mxCell id="pd1kDjK4zznccs3xAjcE-66" style="shape=tableRow;horizontal=0;startSize=0;swimlaneHead=0;swimlaneBody=0;top=0;left=0;bottom=0;right=0;dropTarget=0;collapsible=0;recursiveResize=0;expand=0;fontStyle=0;strokeColor=inherit;fillColor=#ffffff;" vertex="1" parent="pd1kDjK4zznccs3xAjcE-65">
          <mxGeometry width="280" height="33" as="geometry" />
        </mxCell>
        <mxCell id="pd1kDjK4zznccs3xAjcE-67" value="声调" style="connectable=0;recursiveResize=0;strokeColor=inherit;fillColor=#A7C942;align=center;fontStyle=1;fontColor=#FFFFFF;html=1;" vertex="1" parent="pd1kDjK4zznccs3xAjcE-66">
          <mxGeometry width="93" height="33" as="geometry">
            <mxRectangle width="93" height="33" as="alternateBounds" />
          </mxGeometry>
        </mxCell>
        <mxCell id="pd1kDjK4zznccs3xAjcE-68" value="声调" style="connectable=0;recursiveResize=0;strokeColor=inherit;fillColor=#A7C942;align=center;fontStyle=1;fontColor=#FFFFFF;html=1;" vertex="1" parent="pd1kDjK4zznccs3xAjcE-66">
          <mxGeometry x="93" width="94" height="33" as="geometry">
            <mxRectangle width="94" height="33" as="alternateBounds" />
          </mxGeometry>
        </mxCell>
        <mxCell id="pd1kDjK4zznccs3xAjcE-69" value="Title 3" style="connectable=0;recursiveResize=0;strokeColor=inherit;fillColor=#A7C942;align=center;fontStyle=1;fontColor=#FFFFFF;html=1;" vertex="1" parent="pd1kDjK4zznccs3xAjcE-66">
          <mxGeometry x="187" width="93" height="33" as="geometry">
            <mxRectangle width="93" height="33" as="alternateBounds" />
          </mxGeometry>
        </mxCell>
        <mxCell id="pd1kDjK4zznccs3xAjcE-70" value="" style="shape=tableRow;horizontal=0;startSize=0;swimlaneHead=0;swimlaneBody=0;top=0;left=0;bottom=0;right=0;dropTarget=0;collapsible=0;recursiveResize=0;expand=0;fontStyle=0;strokeColor=inherit;fillColor=#ffffff;" vertex="1" parent="pd1kDjK4zznccs3xAjcE-65">
          <mxGeometry y="33" width="280" height="32" as="geometry" />
        </mxCell>
        <mxCell id="pd1kDjK4zznccs3xAjcE-71" value="阴平" style="connectable=0;recursiveResize=0;strokeColor=inherit;fillColor=inherit;align=center;whiteSpace=wrap;html=1;" vertex="1" parent="pd1kDjK4zznccs3xAjcE-70">
          <mxGeometry width="93" height="32" as="geometry">
            <mxRectangle width="93" height="32" as="alternateBounds" />
          </mxGeometry>
        </mxCell>
        <mxCell id="pd1kDjK4zznccs3xAjcE-72" value="1" style="connectable=0;recursiveResize=0;strokeColor=inherit;fillColor=inherit;align=center;whiteSpace=wrap;html=1;" vertex="1" parent="pd1kDjK4zznccs3xAjcE-70">
          <mxGeometry x="93" width="94" height="32" as="geometry">
            <mxRectangle width="94" height="32" as="alternateBounds" />
          </mxGeometry>
        </mxCell>
        <mxCell id="pd1kDjK4zznccs3xAjcE-73" value="第一声" style="connectable=0;recursiveResize=0;strokeColor=inherit;fillColor=inherit;align=center;whiteSpace=wrap;html=1;" vertex="1" parent="pd1kDjK4zznccs3xAjcE-70">
          <mxGeometry x="187" width="93" height="32" as="geometry">
            <mxRectangle width="93" height="32" as="alternateBounds" />
          </mxGeometry>
        </mxCell>
        <mxCell id="pd1kDjK4zznccs3xAjcE-74" value="" style="shape=tableRow;horizontal=0;startSize=0;swimlaneHead=0;swimlaneBody=0;top=0;left=0;bottom=0;right=0;dropTarget=0;collapsible=0;recursiveResize=0;expand=0;fontStyle=1;strokeColor=inherit;fillColor=#EAF2D3;" vertex="1" parent="pd1kDjK4zznccs3xAjcE-65">
          <mxGeometry y="65" width="280" height="31" as="geometry" />
        </mxCell>
        <mxCell id="pd1kDjK4zznccs3xAjcE-75" value="阳平" style="connectable=0;recursiveResize=0;strokeColor=inherit;fillColor=inherit;whiteSpace=wrap;html=1;" vertex="1" parent="pd1kDjK4zznccs3xAjcE-74">
          <mxGeometry width="93" height="31" as="geometry">
            <mxRectangle width="93" height="31" as="alternateBounds" />
          </mxGeometry>
        </mxCell>
        <mxCell id="pd1kDjK4zznccs3xAjcE-76" value="2" style="connectable=0;recursiveResize=0;strokeColor=inherit;fillColor=inherit;whiteSpace=wrap;html=1;" vertex="1" parent="pd1kDjK4zznccs3xAjcE-74">
          <mxGeometry x="93" width="94" height="31" as="geometry">
            <mxRectangle width="94" height="31" as="alternateBounds" />
          </mxGeometry>
        </mxCell>
        <mxCell id="pd1kDjK4zznccs3xAjcE-77" value="第二声" style="connectable=0;recursiveResize=0;strokeColor=inherit;fillColor=inherit;whiteSpace=wrap;html=1;" vertex="1" parent="pd1kDjK4zznccs3xAjcE-74">
          <mxGeometry x="187" width="93" height="31" as="geometry">
            <mxRectangle width="93" height="31" as="alternateBounds" />
          </mxGeometry>
        </mxCell>
        <mxCell id="pd1kDjK4zznccs3xAjcE-78" value="" style="shape=tableRow;horizontal=0;startSize=0;swimlaneHead=0;swimlaneBody=0;top=0;left=0;bottom=0;right=0;dropTarget=0;collapsible=0;recursiveResize=0;expand=0;fontStyle=0;strokeColor=inherit;fillColor=#ffffff;" vertex="1" parent="pd1kDjK4zznccs3xAjcE-65">
          <mxGeometry y="96" width="280" height="33" as="geometry" />
        </mxCell>
        <mxCell id="pd1kDjK4zznccs3xAjcE-79" value="上声" style="connectable=0;recursiveResize=0;strokeColor=inherit;fillColor=inherit;fontStyle=0;align=center;whiteSpace=wrap;html=1;" vertex="1" parent="pd1kDjK4zznccs3xAjcE-78">
          <mxGeometry width="93" height="33" as="geometry">
            <mxRectangle width="93" height="33" as="alternateBounds" />
          </mxGeometry>
        </mxCell>
        <mxCell id="pd1kDjK4zznccs3xAjcE-80" value="3" style="connectable=0;recursiveResize=0;strokeColor=inherit;fillColor=inherit;fontStyle=0;align=center;whiteSpace=wrap;html=1;" vertex="1" parent="pd1kDjK4zznccs3xAjcE-78">
          <mxGeometry x="93" width="94" height="33" as="geometry">
            <mxRectangle width="94" height="33" as="alternateBounds" />
          </mxGeometry>
        </mxCell>
        <mxCell id="pd1kDjK4zznccs3xAjcE-81" value="第四声" style="connectable=0;recursiveResize=0;strokeColor=inherit;fillColor=inherit;fontStyle=0;align=center;whiteSpace=wrap;html=1;" vertex="1" parent="pd1kDjK4zznccs3xAjcE-78">
          <mxGeometry x="187" width="93" height="33" as="geometry">
            <mxRectangle width="93" height="33" as="alternateBounds" />
          </mxGeometry>
        </mxCell>
        <mxCell id="pd1kDjK4zznccs3xAjcE-82" value="" style="shape=tableRow;horizontal=0;startSize=0;swimlaneHead=0;swimlaneBody=0;top=0;left=0;bottom=0;right=0;dropTarget=0;collapsible=0;recursiveResize=0;expand=0;fontStyle=1;strokeColor=inherit;fillColor=#EAF2D3;" vertex="1" parent="pd1kDjK4zznccs3xAjcE-65">
          <mxGeometry y="129" width="280" height="31" as="geometry" />
        </mxCell>
        <mxCell id="pd1kDjK4zznccs3xAjcE-83" value="去声" style="connectable=0;recursiveResize=0;strokeColor=inherit;fillColor=inherit;whiteSpace=wrap;html=1;" vertex="1" parent="pd1kDjK4zznccs3xAjcE-82">
          <mxGeometry width="93" height="31" as="geometry">
            <mxRectangle width="93" height="31" as="alternateBounds" />
          </mxGeometry>
        </mxCell>
        <mxCell id="pd1kDjK4zznccs3xAjcE-84" value="4" style="connectable=0;recursiveResize=0;strokeColor=inherit;fillColor=inherit;whiteSpace=wrap;html=1;" vertex="1" parent="pd1kDjK4zznccs3xAjcE-82">
          <mxGeometry x="93" width="94" height="31" as="geometry">
            <mxRectangle width="94" height="31" as="alternateBounds" />
          </mxGeometry>
        </mxCell>
        <mxCell id="pd1kDjK4zznccs3xAjcE-85" value="第五声" style="connectable=0;recursiveResize=0;strokeColor=inherit;fillColor=inherit;whiteSpace=wrap;html=1;" vertex="1" parent="pd1kDjK4zznccs3xAjcE-82">
          <mxGeometry x="187" width="93" height="31" as="geometry">
            <mxRectangle width="93" height="31" as="alternateBounds" />
          </mxGeometry>
        </mxCell>
        <mxCell id="pd1kDjK4zznccs3xAjcE-86" value="Assets" style="childLayout=tableLayout;recursiveResize=0;strokeColor=#98bf21;fillColor=#A7C942;shadow=1;" vertex="1" parent="1">
          <mxGeometry x="-450" y="1169" width="520" height="532" as="geometry" />
        </mxCell>
        <mxCell id="pd1kDjK4zznccs3xAjcE-87" style="shape=tableRow;horizontal=0;startSize=0;swimlaneHead=0;swimlaneBody=0;top=0;left=0;bottom=0;right=0;dropTarget=0;collapsible=0;recursiveResize=0;expand=0;fontStyle=0;strokeColor=inherit;fillColor=#ffffff;" vertex="1" parent="pd1kDjK4zznccs3xAjcE-86">
          <mxGeometry width="520" height="33" as="geometry" />
        </mxCell>
        <mxCell id="pd1kDjK4zznccs3xAjcE-88" value="两字" style="connectable=0;recursiveResize=0;strokeColor=inherit;fillColor=#A7C942;align=center;fontStyle=1;fontColor=#FFFFFF;html=1;" vertex="1" parent="pd1kDjK4zznccs3xAjcE-87">
          <mxGeometry width="173" height="33" as="geometry">
            <mxRectangle width="173" height="33" as="alternateBounds" />
          </mxGeometry>
        </mxCell>
        <mxCell id="pd1kDjK4zznccs3xAjcE-89" value="声调" style="connectable=0;recursiveResize=0;strokeColor=inherit;fillColor=#A7C942;align=center;fontStyle=1;fontColor=#FFFFFF;html=1;" vertex="1" parent="pd1kDjK4zznccs3xAjcE-87">
          <mxGeometry x="173" width="174" height="33" as="geometry">
            <mxRectangle width="174" height="33" as="alternateBounds" />
          </mxGeometry>
        </mxCell>
        <mxCell id="pd1kDjK4zznccs3xAjcE-90" value="描述" style="connectable=0;recursiveResize=0;strokeColor=inherit;fillColor=#A7C942;align=center;fontStyle=1;fontColor=#FFFFFF;html=1;" vertex="1" parent="pd1kDjK4zznccs3xAjcE-87">
          <mxGeometry x="347" width="173" height="33" as="geometry">
            <mxRectangle width="173" height="33" as="alternateBounds" />
          </mxGeometry>
        </mxCell>
        <mxCell id="pd1kDjK4zznccs3xAjcE-91" value="" style="shape=tableRow;horizontal=0;startSize=0;swimlaneHead=0;swimlaneBody=0;top=0;left=0;bottom=0;right=0;dropTarget=0;collapsible=0;recursiveResize=0;expand=0;fontStyle=0;strokeColor=inherit;fillColor=#ffffff;" vertex="1" parent="pd1kDjK4zznccs3xAjcE-86">
          <mxGeometry y="33" width="520" height="32" as="geometry" />
        </mxCell>
        <mxCell id="pd1kDjK4zznccs3xAjcE-92" value="阴-阴" style="connectable=0;recursiveResize=0;strokeColor=inherit;fillColor=inherit;align=center;whiteSpace=wrap;html=1;" vertex="1" parent="pd1kDjK4zznccs3xAjcE-91">
          <mxGeometry width="173" height="32" as="geometry">
            <mxRectangle width="173" height="32" as="alternateBounds" />
          </mxGeometry>
        </mxCell>
        <mxCell id="pd1kDjK4zznccs3xAjcE-93" value="1-1" style="connectable=0;recursiveResize=0;strokeColor=inherit;fillColor=inherit;align=center;whiteSpace=wrap;html=1;" vertex="1" parent="pd1kDjK4zznccs3xAjcE-91">
          <mxGeometry x="173" width="174" height="32" as="geometry">
            <mxRectangle width="174" height="32" as="alternateBounds" />
          </mxGeometry>
        </mxCell>
        <mxCell id="pd1kDjK4zznccs3xAjcE-94" value="和谐，儒雅细腻" style="connectable=0;recursiveResize=0;strokeColor=inherit;fillColor=inherit;align=center;whiteSpace=wrap;html=1;" vertex="1" parent="pd1kDjK4zznccs3xAjcE-91">
          <mxGeometry x="347" width="173" height="32" as="geometry">
            <mxRectangle width="173" height="32" as="alternateBounds" />
          </mxGeometry>
        </mxCell>
        <mxCell id="pd1kDjK4zznccs3xAjcE-95" value="" style="shape=tableRow;horizontal=0;startSize=0;swimlaneHead=0;swimlaneBody=0;top=0;left=0;bottom=0;right=0;dropTarget=0;collapsible=0;recursiveResize=0;expand=0;fontStyle=1;strokeColor=inherit;fillColor=#EAF2D3;" vertex="1" parent="pd1kDjK4zznccs3xAjcE-86">
          <mxGeometry y="65" width="520" height="31" as="geometry" />
        </mxCell>
        <mxCell id="pd1kDjK4zznccs3xAjcE-96" value="阴-阳" style="connectable=0;recursiveResize=0;strokeColor=inherit;fillColor=inherit;whiteSpace=wrap;html=1;" vertex="1" parent="pd1kDjK4zznccs3xAjcE-95">
          <mxGeometry width="173" height="31" as="geometry">
            <mxRectangle width="173" height="31" as="alternateBounds" />
          </mxGeometry>
        </mxCell>
        <mxCell id="pd1kDjK4zznccs3xAjcE-97" value="1-2" style="connectable=0;recursiveResize=0;strokeColor=inherit;fillColor=inherit;whiteSpace=wrap;html=1;" vertex="1" parent="pd1kDjK4zznccs3xAjcE-95">
          <mxGeometry x="173" width="174" height="31" as="geometry">
            <mxRectangle width="174" height="31" as="alternateBounds" />
          </mxGeometry>
        </mxCell>
        <mxCell id="pd1kDjK4zznccs3xAjcE-98" value="和谐，儒雅细腻" style="connectable=0;recursiveResize=0;strokeColor=inherit;fillColor=inherit;whiteSpace=wrap;html=1;" vertex="1" parent="pd1kDjK4zznccs3xAjcE-95">
          <mxGeometry x="347" width="173" height="31" as="geometry">
            <mxRectangle width="173" height="31" as="alternateBounds" />
          </mxGeometry>
        </mxCell>
        <mxCell id="pd1kDjK4zznccs3xAjcE-99" value="" style="shape=tableRow;horizontal=0;startSize=0;swimlaneHead=0;swimlaneBody=0;top=0;left=0;bottom=0;right=0;dropTarget=0;collapsible=0;recursiveResize=0;expand=0;fontStyle=0;strokeColor=inherit;fillColor=#ffffff;" vertex="1" parent="pd1kDjK4zznccs3xAjcE-86">
          <mxGeometry y="96" width="520" height="33" as="geometry" />
        </mxCell>
        <mxCell id="pd1kDjK4zznccs3xAjcE-100" value="阴-上" style="connectable=0;recursiveResize=0;strokeColor=inherit;fillColor=inherit;fontStyle=0;align=center;whiteSpace=wrap;html=1;" vertex="1" parent="pd1kDjK4zznccs3xAjcE-99">
          <mxGeometry width="173" height="33" as="geometry">
            <mxRectangle width="173" height="33" as="alternateBounds" />
          </mxGeometry>
        </mxCell>
        <mxCell id="pd1kDjK4zznccs3xAjcE-101" value="1-3" style="connectable=0;recursiveResize=0;strokeColor=inherit;fillColor=inherit;fontStyle=0;align=center;whiteSpace=wrap;html=1;" vertex="1" parent="pd1kDjK4zznccs3xAjcE-99">
          <mxGeometry x="173" width="174" height="33" as="geometry">
            <mxRectangle width="174" height="33" as="alternateBounds" />
          </mxGeometry>
        </mxCell>
        <mxCell id="pd1kDjK4zznccs3xAjcE-102" value="最最佳" style="connectable=0;recursiveResize=0;strokeColor=inherit;fillColor=inherit;fontStyle=0;align=center;whiteSpace=wrap;html=1;" vertex="1" parent="pd1kDjK4zznccs3xAjcE-99">
          <mxGeometry x="347" width="173" height="33" as="geometry">
            <mxRectangle width="173" height="33" as="alternateBounds" />
          </mxGeometry>
        </mxCell>
        <mxCell id="pd1kDjK4zznccs3xAjcE-103" value="" style="shape=tableRow;horizontal=0;startSize=0;swimlaneHead=0;swimlaneBody=0;top=0;left=0;bottom=0;right=0;dropTarget=0;collapsible=0;recursiveResize=0;expand=0;fontStyle=1;strokeColor=inherit;fillColor=#EAF2D3;" vertex="1" parent="pd1kDjK4zznccs3xAjcE-86">
          <mxGeometry y="129" width="520" height="31" as="geometry" />
        </mxCell>
        <mxCell id="pd1kDjK4zznccs3xAjcE-104" value="阴-去" style="connectable=0;recursiveResize=0;strokeColor=inherit;fillColor=inherit;whiteSpace=wrap;html=1;" vertex="1" parent="pd1kDjK4zznccs3xAjcE-103">
          <mxGeometry width="173" height="31" as="geometry">
            <mxRectangle width="173" height="31" as="alternateBounds" />
          </mxGeometry>
        </mxCell>
        <mxCell id="pd1kDjK4zznccs3xAjcE-105" value="1-4" style="connectable=0;recursiveResize=0;strokeColor=inherit;fillColor=inherit;whiteSpace=wrap;html=1;" vertex="1" parent="pd1kDjK4zznccs3xAjcE-103">
          <mxGeometry x="173" width="174" height="31" as="geometry">
            <mxRectangle width="174" height="31" as="alternateBounds" />
          </mxGeometry>
        </mxCell>
        <mxCell id="pd1kDjK4zznccs3xAjcE-106" value="响亮的字" style="connectable=0;recursiveResize=0;strokeColor=inherit;fillColor=inherit;whiteSpace=wrap;html=1;" vertex="1" parent="pd1kDjK4zznccs3xAjcE-103">
          <mxGeometry x="347" width="173" height="31" as="geometry">
            <mxRectangle width="173" height="31" as="alternateBounds" />
          </mxGeometry>
        </mxCell>
        <mxCell id="pd1kDjK4zznccs3xAjcE-107" style="shape=tableRow;horizontal=0;startSize=0;swimlaneHead=0;swimlaneBody=0;top=0;left=0;bottom=0;right=0;dropTarget=0;collapsible=0;recursiveResize=0;expand=0;fontStyle=1;strokeColor=inherit;fillColor=#EAF2D3;" vertex="1" parent="pd1kDjK4zznccs3xAjcE-86">
          <mxGeometry y="160" width="520" height="31" as="geometry" />
        </mxCell>
        <mxCell id="pd1kDjK4zznccs3xAjcE-108" value="阳──阴" style="connectable=0;recursiveResize=0;strokeColor=inherit;fillColor=inherit;whiteSpace=wrap;html=1;" vertex="1" parent="pd1kDjK4zznccs3xAjcE-107">
          <mxGeometry width="173" height="31" as="geometry">
            <mxRectangle width="173" height="31" as="alternateBounds" />
          </mxGeometry>
        </mxCell>
        <mxCell id="pd1kDjK4zznccs3xAjcE-109" value="2-1" style="connectable=0;recursiveResize=0;strokeColor=inherit;fillColor=inherit;whiteSpace=wrap;html=1;" vertex="1" parent="pd1kDjK4zznccs3xAjcE-107">
          <mxGeometry x="173" width="174" height="31" as="geometry">
            <mxRectangle width="174" height="31" as="alternateBounds" />
          </mxGeometry>
        </mxCell>
        <mxCell id="pd1kDjK4zznccs3xAjcE-110" style="connectable=0;recursiveResize=0;strokeColor=inherit;fillColor=inherit;whiteSpace=wrap;html=1;" vertex="1" parent="pd1kDjK4zznccs3xAjcE-107">
          <mxGeometry x="347" width="173" height="31" as="geometry">
            <mxRectangle width="173" height="31" as="alternateBounds" />
          </mxGeometry>
        </mxCell>
        <mxCell id="pd1kDjK4zznccs3xAjcE-111" style="shape=tableRow;horizontal=0;startSize=0;swimlaneHead=0;swimlaneBody=0;top=0;left=0;bottom=0;right=0;dropTarget=0;collapsible=0;recursiveResize=0;expand=0;fontStyle=1;strokeColor=#b85450;fillColor=#f8cecc;" vertex="1" parent="pd1kDjK4zznccs3xAjcE-86">
          <mxGeometry y="191" width="520" height="31" as="geometry" />
        </mxCell>
        <mxCell id="pd1kDjK4zznccs3xAjcE-112" value="阳──阳" style="connectable=0;recursiveResize=0;strokeColor=inherit;fillColor=inherit;whiteSpace=wrap;html=1;" vertex="1" parent="pd1kDjK4zznccs3xAjcE-111">
          <mxGeometry width="173" height="31" as="geometry">
            <mxRectangle width="173" height="31" as="alternateBounds" />
          </mxGeometry>
        </mxCell>
        <mxCell id="pd1kDjK4zznccs3xAjcE-113" value="2-2" style="connectable=0;recursiveResize=0;strokeColor=inherit;fillColor=inherit;whiteSpace=wrap;html=1;" vertex="1" parent="pd1kDjK4zznccs3xAjcE-111">
          <mxGeometry x="173" width="174" height="31" as="geometry">
            <mxRectangle width="174" height="31" as="alternateBounds" />
          </mxGeometry>
        </mxCell>
        <mxCell id="pd1kDjK4zznccs3xAjcE-114" value="差劲" style="connectable=0;recursiveResize=0;strokeColor=inherit;fillColor=inherit;whiteSpace=wrap;html=1;" vertex="1" parent="pd1kDjK4zznccs3xAjcE-111">
          <mxGeometry x="347" width="173" height="31" as="geometry">
            <mxRectangle width="173" height="31" as="alternateBounds" />
          </mxGeometry>
        </mxCell>
        <mxCell id="pd1kDjK4zznccs3xAjcE-115" style="shape=tableRow;horizontal=0;startSize=0;swimlaneHead=0;swimlaneBody=0;top=0;left=0;bottom=0;right=0;dropTarget=0;collapsible=0;recursiveResize=0;expand=0;fontStyle=1;strokeColor=inherit;fillColor=#EAF2D3;" vertex="1" parent="pd1kDjK4zznccs3xAjcE-86">
          <mxGeometry y="222" width="520" height="31" as="geometry" />
        </mxCell>
        <mxCell id="pd1kDjK4zznccs3xAjcE-116" value="阳──上" style="connectable=0;recursiveResize=0;strokeColor=inherit;fillColor=inherit;whiteSpace=wrap;html=1;" vertex="1" parent="pd1kDjK4zznccs3xAjcE-115">
          <mxGeometry width="173" height="31" as="geometry">
            <mxRectangle width="173" height="31" as="alternateBounds" />
          </mxGeometry>
        </mxCell>
        <mxCell id="pd1kDjK4zznccs3xAjcE-117" value="2-3" style="connectable=0;recursiveResize=0;strokeColor=inherit;fillColor=inherit;whiteSpace=wrap;html=1;" vertex="1" parent="pd1kDjK4zznccs3xAjcE-115">
          <mxGeometry x="173" width="174" height="31" as="geometry">
            <mxRectangle width="174" height="31" as="alternateBounds" />
          </mxGeometry>
        </mxCell>
        <mxCell id="pd1kDjK4zznccs3xAjcE-118" style="connectable=0;recursiveResize=0;strokeColor=inherit;fillColor=inherit;whiteSpace=wrap;html=1;" vertex="1" parent="pd1kDjK4zznccs3xAjcE-115">
          <mxGeometry x="347" width="173" height="31" as="geometry">
            <mxRectangle width="173" height="31" as="alternateBounds" />
          </mxGeometry>
        </mxCell>
        <mxCell id="pd1kDjK4zznccs3xAjcE-119" style="shape=tableRow;horizontal=0;startSize=0;swimlaneHead=0;swimlaneBody=0;top=0;left=0;bottom=0;right=0;dropTarget=0;collapsible=0;recursiveResize=0;expand=0;fontStyle=1;strokeColor=inherit;fillColor=#EAF2D3;" vertex="1" parent="pd1kDjK4zznccs3xAjcE-86">
          <mxGeometry y="253" width="520" height="31" as="geometry" />
        </mxCell>
        <mxCell id="pd1kDjK4zznccs3xAjcE-120" value="阳──去" style="connectable=0;recursiveResize=0;strokeColor=inherit;fillColor=inherit;whiteSpace=wrap;html=1;" vertex="1" parent="pd1kDjK4zznccs3xAjcE-119">
          <mxGeometry width="173" height="31" as="geometry">
            <mxRectangle width="173" height="31" as="alternateBounds" />
          </mxGeometry>
        </mxCell>
        <mxCell id="pd1kDjK4zznccs3xAjcE-121" value="2-4" style="connectable=0;recursiveResize=0;strokeColor=inherit;fillColor=inherit;whiteSpace=wrap;html=1;" vertex="1" parent="pd1kDjK4zznccs3xAjcE-119">
          <mxGeometry x="173" width="174" height="31" as="geometry">
            <mxRectangle width="174" height="31" as="alternateBounds" />
          </mxGeometry>
        </mxCell>
        <mxCell id="pd1kDjK4zznccs3xAjcE-122" value="最最佳" style="connectable=0;recursiveResize=0;strokeColor=inherit;fillColor=inherit;whiteSpace=wrap;html=1;" vertex="1" parent="pd1kDjK4zznccs3xAjcE-119">
          <mxGeometry x="347" width="173" height="31" as="geometry">
            <mxRectangle width="173" height="31" as="alternateBounds" />
          </mxGeometry>
        </mxCell>
        <mxCell id="pd1kDjK4zznccs3xAjcE-123" style="shape=tableRow;horizontal=0;startSize=0;swimlaneHead=0;swimlaneBody=0;top=0;left=0;bottom=0;right=0;dropTarget=0;collapsible=0;recursiveResize=0;expand=0;fontStyle=1;strokeColor=inherit;fillColor=#EAF2D3;" vertex="1" parent="pd1kDjK4zznccs3xAjcE-86">
          <mxGeometry y="284" width="520" height="31" as="geometry" />
        </mxCell>
        <mxCell id="pd1kDjK4zznccs3xAjcE-124" value="上──阴" style="connectable=0;recursiveResize=0;strokeColor=inherit;fillColor=inherit;whiteSpace=wrap;html=1;" vertex="1" parent="pd1kDjK4zznccs3xAjcE-123">
          <mxGeometry width="173" height="31" as="geometry">
            <mxRectangle width="173" height="31" as="alternateBounds" />
          </mxGeometry>
        </mxCell>
        <mxCell id="pd1kDjK4zznccs3xAjcE-125" value="3-1" style="connectable=0;recursiveResize=0;strokeColor=inherit;fillColor=inherit;whiteSpace=wrap;html=1;" vertex="1" parent="pd1kDjK4zznccs3xAjcE-123">
          <mxGeometry x="173" width="174" height="31" as="geometry">
            <mxRectangle width="174" height="31" as="alternateBounds" />
          </mxGeometry>
        </mxCell>
        <mxCell id="pd1kDjK4zznccs3xAjcE-126" style="connectable=0;recursiveResize=0;strokeColor=inherit;fillColor=inherit;whiteSpace=wrap;html=1;" vertex="1" parent="pd1kDjK4zznccs3xAjcE-123">
          <mxGeometry x="347" width="173" height="31" as="geometry">
            <mxRectangle width="173" height="31" as="alternateBounds" />
          </mxGeometry>
        </mxCell>
        <mxCell id="pd1kDjK4zznccs3xAjcE-127" style="shape=tableRow;horizontal=0;startSize=0;swimlaneHead=0;swimlaneBody=0;top=0;left=0;bottom=0;right=0;dropTarget=0;collapsible=0;recursiveResize=0;expand=0;fontStyle=1;strokeColor=inherit;fillColor=#EAF2D3;" vertex="1" parent="pd1kDjK4zznccs3xAjcE-86">
          <mxGeometry y="315" width="520" height="31" as="geometry" />
        </mxCell>
        <mxCell id="pd1kDjK4zznccs3xAjcE-128" value="上──阳" style="connectable=0;recursiveResize=0;strokeColor=inherit;fillColor=inherit;whiteSpace=wrap;html=1;" vertex="1" parent="pd1kDjK4zznccs3xAjcE-127">
          <mxGeometry width="173" height="31" as="geometry">
            <mxRectangle width="173" height="31" as="alternateBounds" />
          </mxGeometry>
        </mxCell>
        <mxCell id="pd1kDjK4zznccs3xAjcE-129" value="3-2" style="connectable=0;recursiveResize=0;strokeColor=inherit;fillColor=inherit;whiteSpace=wrap;html=1;" vertex="1" parent="pd1kDjK4zznccs3xAjcE-127">
          <mxGeometry x="173" width="174" height="31" as="geometry">
            <mxRectangle width="174" height="31" as="alternateBounds" />
          </mxGeometry>
        </mxCell>
        <mxCell id="pd1kDjK4zznccs3xAjcE-130" style="connectable=0;recursiveResize=0;strokeColor=inherit;fillColor=inherit;whiteSpace=wrap;html=1;" vertex="1" parent="pd1kDjK4zznccs3xAjcE-127">
          <mxGeometry x="347" width="173" height="31" as="geometry">
            <mxRectangle width="173" height="31" as="alternateBounds" />
          </mxGeometry>
        </mxCell>
        <mxCell id="pd1kDjK4zznccs3xAjcE-131" style="shape=tableRow;horizontal=0;startSize=0;swimlaneHead=0;swimlaneBody=0;top=0;left=0;bottom=0;right=0;dropTarget=0;collapsible=0;recursiveResize=0;expand=0;fontStyle=1;strokeColor=inherit;fillColor=#EAF2D3;" vertex="1" parent="pd1kDjK4zznccs3xAjcE-86">
          <mxGeometry y="346" width="520" height="31" as="geometry" />
        </mxCell>
        <mxCell id="pd1kDjK4zznccs3xAjcE-132" value="上──上" style="connectable=0;recursiveResize=0;strokeColor=#b85450;fillColor=#f8cecc;whiteSpace=wrap;html=1;" vertex="1" parent="pd1kDjK4zznccs3xAjcE-131">
          <mxGeometry width="173" height="31" as="geometry">
            <mxRectangle width="173" height="31" as="alternateBounds" />
          </mxGeometry>
        </mxCell>
        <mxCell id="pd1kDjK4zznccs3xAjcE-133" value="3-3" style="connectable=0;recursiveResize=0;strokeColor=#b85450;fillColor=#f8cecc;whiteSpace=wrap;html=1;" vertex="1" parent="pd1kDjK4zznccs3xAjcE-131">
          <mxGeometry x="173" width="174" height="31" as="geometry">
            <mxRectangle width="174" height="31" as="alternateBounds" />
          </mxGeometry>
        </mxCell>
        <mxCell id="pd1kDjK4zznccs3xAjcE-134" value="差" style="connectable=0;recursiveResize=0;strokeColor=#b85450;fillColor=#f8cecc;whiteSpace=wrap;html=1;" vertex="1" parent="pd1kDjK4zznccs3xAjcE-131">
          <mxGeometry x="347" width="173" height="31" as="geometry">
            <mxRectangle width="173" height="31" as="alternateBounds" />
          </mxGeometry>
        </mxCell>
        <mxCell id="pd1kDjK4zznccs3xAjcE-135" style="shape=tableRow;horizontal=0;startSize=0;swimlaneHead=0;swimlaneBody=0;top=0;left=0;bottom=0;right=0;dropTarget=0;collapsible=0;recursiveResize=0;expand=0;fontStyle=1;strokeColor=inherit;fillColor=#EAF2D3;" vertex="1" parent="pd1kDjK4zznccs3xAjcE-86">
          <mxGeometry y="377" width="520" height="31" as="geometry" />
        </mxCell>
        <mxCell id="pd1kDjK4zznccs3xAjcE-136" value="上──去" style="connectable=0;recursiveResize=0;strokeColor=inherit;fillColor=inherit;whiteSpace=wrap;html=1;" vertex="1" parent="pd1kDjK4zznccs3xAjcE-135">
          <mxGeometry width="173" height="31" as="geometry">
            <mxRectangle width="173" height="31" as="alternateBounds" />
          </mxGeometry>
        </mxCell>
        <mxCell id="pd1kDjK4zznccs3xAjcE-137" value="3-4" style="connectable=0;recursiveResize=0;strokeColor=inherit;fillColor=inherit;whiteSpace=wrap;html=1;" vertex="1" parent="pd1kDjK4zznccs3xAjcE-135">
          <mxGeometry x="173" width="174" height="31" as="geometry">
            <mxRectangle width="174" height="31" as="alternateBounds" />
          </mxGeometry>
        </mxCell>
        <mxCell id="pd1kDjK4zznccs3xAjcE-138" style="connectable=0;recursiveResize=0;strokeColor=inherit;fillColor=inherit;whiteSpace=wrap;html=1;" vertex="1" parent="pd1kDjK4zznccs3xAjcE-135">
          <mxGeometry x="347" width="173" height="31" as="geometry">
            <mxRectangle width="173" height="31" as="alternateBounds" />
          </mxGeometry>
        </mxCell>
        <mxCell id="pd1kDjK4zznccs3xAjcE-139" style="shape=tableRow;horizontal=0;startSize=0;swimlaneHead=0;swimlaneBody=0;top=0;left=0;bottom=0;right=0;dropTarget=0;collapsible=0;recursiveResize=0;expand=0;fontStyle=1;strokeColor=inherit;fillColor=#EAF2D3;" vertex="1" parent="pd1kDjK4zznccs3xAjcE-86">
          <mxGeometry y="408" width="520" height="31" as="geometry" />
        </mxCell>
        <mxCell id="pd1kDjK4zznccs3xAjcE-140" value="去──阴" style="connectable=0;recursiveResize=0;strokeColor=inherit;fillColor=inherit;whiteSpace=wrap;html=1;" vertex="1" parent="pd1kDjK4zznccs3xAjcE-139">
          <mxGeometry width="173" height="31" as="geometry">
            <mxRectangle width="173" height="31" as="alternateBounds" />
          </mxGeometry>
        </mxCell>
        <mxCell id="pd1kDjK4zznccs3xAjcE-141" value="4-1" style="connectable=0;recursiveResize=0;strokeColor=inherit;fillColor=inherit;whiteSpace=wrap;html=1;" vertex="1" parent="pd1kDjK4zznccs3xAjcE-139">
          <mxGeometry x="173" width="174" height="31" as="geometry">
            <mxRectangle width="174" height="31" as="alternateBounds" />
          </mxGeometry>
        </mxCell>
        <mxCell id="pd1kDjK4zznccs3xAjcE-142" value="最最佳" style="connectable=0;recursiveResize=0;strokeColor=inherit;fillColor=inherit;whiteSpace=wrap;html=1;" vertex="1" parent="pd1kDjK4zznccs3xAjcE-139">
          <mxGeometry x="347" width="173" height="31" as="geometry">
            <mxRectangle width="173" height="31" as="alternateBounds" />
          </mxGeometry>
        </mxCell>
        <mxCell id="pd1kDjK4zznccs3xAjcE-143" style="shape=tableRow;horizontal=0;startSize=0;swimlaneHead=0;swimlaneBody=0;top=0;left=0;bottom=0;right=0;dropTarget=0;collapsible=0;recursiveResize=0;expand=0;fontStyle=1;strokeColor=inherit;fillColor=#EAF2D3;" vertex="1" parent="pd1kDjK4zznccs3xAjcE-86">
          <mxGeometry y="439" width="520" height="31" as="geometry" />
        </mxCell>
        <mxCell id="pd1kDjK4zznccs3xAjcE-144" value="去──阳" style="connectable=0;recursiveResize=0;strokeColor=inherit;fillColor=inherit;whiteSpace=wrap;html=1;" vertex="1" parent="pd1kDjK4zznccs3xAjcE-143">
          <mxGeometry width="173" height="31" as="geometry">
            <mxRectangle width="173" height="31" as="alternateBounds" />
          </mxGeometry>
        </mxCell>
        <mxCell id="pd1kDjK4zznccs3xAjcE-145" value="4-2" style="connectable=0;recursiveResize=0;strokeColor=inherit;fillColor=inherit;whiteSpace=wrap;html=1;" vertex="1" parent="pd1kDjK4zznccs3xAjcE-143">
          <mxGeometry x="173" width="174" height="31" as="geometry">
            <mxRectangle width="174" height="31" as="alternateBounds" />
          </mxGeometry>
        </mxCell>
        <mxCell id="pd1kDjK4zznccs3xAjcE-146" style="connectable=0;recursiveResize=0;strokeColor=inherit;fillColor=inherit;whiteSpace=wrap;html=1;" vertex="1" parent="pd1kDjK4zznccs3xAjcE-143">
          <mxGeometry x="347" width="173" height="31" as="geometry">
            <mxRectangle width="173" height="31" as="alternateBounds" />
          </mxGeometry>
        </mxCell>
        <mxCell id="pd1kDjK4zznccs3xAjcE-147" style="shape=tableRow;horizontal=0;startSize=0;swimlaneHead=0;swimlaneBody=0;top=0;left=0;bottom=0;right=0;dropTarget=0;collapsible=0;recursiveResize=0;expand=0;fontStyle=1;strokeColor=inherit;fillColor=#EAF2D3;" vertex="1" parent="pd1kDjK4zznccs3xAjcE-86">
          <mxGeometry y="470" width="520" height="31" as="geometry" />
        </mxCell>
        <mxCell id="pd1kDjK4zznccs3xAjcE-148" value="去──上" style="connectable=0;recursiveResize=0;strokeColor=inherit;fillColor=inherit;whiteSpace=wrap;html=1;" vertex="1" parent="pd1kDjK4zznccs3xAjcE-147">
          <mxGeometry width="173" height="31" as="geometry">
            <mxRectangle width="173" height="31" as="alternateBounds" />
          </mxGeometry>
        </mxCell>
        <mxCell id="pd1kDjK4zznccs3xAjcE-149" value="4-3" style="connectable=0;recursiveResize=0;strokeColor=inherit;fillColor=inherit;whiteSpace=wrap;html=1;" vertex="1" parent="pd1kDjK4zznccs3xAjcE-147">
          <mxGeometry x="173" width="174" height="31" as="geometry">
            <mxRectangle width="174" height="31" as="alternateBounds" />
          </mxGeometry>
        </mxCell>
        <mxCell id="pd1kDjK4zznccs3xAjcE-150" style="connectable=0;recursiveResize=0;strokeColor=inherit;fillColor=inherit;whiteSpace=wrap;html=1;" vertex="1" parent="pd1kDjK4zznccs3xAjcE-147">
          <mxGeometry x="347" width="173" height="31" as="geometry">
            <mxRectangle width="173" height="31" as="alternateBounds" />
          </mxGeometry>
        </mxCell>
        <mxCell id="pd1kDjK4zznccs3xAjcE-151" style="shape=tableRow;horizontal=0;startSize=0;swimlaneHead=0;swimlaneBody=0;top=0;left=0;bottom=0;right=0;dropTarget=0;collapsible=0;recursiveResize=0;expand=0;fontStyle=1;strokeColor=inherit;fillColor=#EAF2D3;" vertex="1" parent="pd1kDjK4zznccs3xAjcE-86">
          <mxGeometry y="501" width="520" height="31" as="geometry" />
        </mxCell>
        <mxCell id="pd1kDjK4zznccs3xAjcE-152" value="去──去" style="connectable=0;recursiveResize=0;strokeColor=#b85450;fillColor=#f8cecc;whiteSpace=wrap;html=1;" vertex="1" parent="pd1kDjK4zznccs3xAjcE-151">
          <mxGeometry width="173" height="31" as="geometry">
            <mxRectangle width="173" height="31" as="alternateBounds" />
          </mxGeometry>
        </mxCell>
        <mxCell id="pd1kDjK4zznccs3xAjcE-153" value="4-4" style="connectable=0;recursiveResize=0;strokeColor=#b85450;fillColor=#f8cecc;whiteSpace=wrap;html=1;" vertex="1" parent="pd1kDjK4zznccs3xAjcE-151">
          <mxGeometry x="173" width="174" height="31" as="geometry">
            <mxRectangle width="174" height="31" as="alternateBounds" />
          </mxGeometry>
        </mxCell>
        <mxCell id="pd1kDjK4zznccs3xAjcE-154" value="吃力" style="connectable=0;recursiveResize=0;strokeColor=#b85450;fillColor=#f8cecc;whiteSpace=wrap;html=1;" vertex="1" parent="pd1kDjK4zznccs3xAjcE-151">
          <mxGeometry x="347" width="173" height="31" as="geometry">
            <mxRectangle width="173" height="31" as="alternateBounds" />
          </mxGeometry>
        </mxCell>
        <mxCell id="pd1kDjK4zznccs3xAjcE-155" value="Assets" style="childLayout=tableLayout;recursiveResize=0;strokeColor=#98bf21;fillColor=#A7C942;shadow=1;" vertex="1" parent="1">
          <mxGeometry x="105" y="1169" width="450" height="532" as="geometry" />
        </mxCell>
        <mxCell id="pd1kDjK4zznccs3xAjcE-156" style="shape=tableRow;horizontal=0;startSize=0;swimlaneHead=0;swimlaneBody=0;top=0;left=0;bottom=0;right=0;dropTarget=0;collapsible=0;recursiveResize=0;expand=0;fontStyle=0;strokeColor=inherit;fillColor=#ffffff;" vertex="1" parent="pd1kDjK4zznccs3xAjcE-155">
          <mxGeometry width="450" height="33" as="geometry" />
        </mxCell>
        <mxCell id="pd1kDjK4zznccs3xAjcE-157" value="三字" style="connectable=0;recursiveResize=0;strokeColor=inherit;fillColor=#A7C942;align=center;fontStyle=1;fontColor=#FFFFFF;html=1;" vertex="1" parent="pd1kDjK4zznccs3xAjcE-156">
          <mxGeometry width="149" height="33" as="geometry">
            <mxRectangle width="149" height="33" as="alternateBounds" />
          </mxGeometry>
        </mxCell>
        <mxCell id="pd1kDjK4zznccs3xAjcE-158" value="Title 2" style="connectable=0;recursiveResize=0;strokeColor=inherit;fillColor=#A7C942;align=center;fontStyle=1;fontColor=#FFFFFF;html=1;" vertex="1" parent="pd1kDjK4zznccs3xAjcE-156">
          <mxGeometry x="149" width="152" height="33" as="geometry">
            <mxRectangle width="152" height="33" as="alternateBounds" />
          </mxGeometry>
        </mxCell>
        <mxCell id="pd1kDjK4zznccs3xAjcE-159" value="Title 3" style="connectable=0;recursiveResize=0;strokeColor=inherit;fillColor=#A7C942;align=center;fontStyle=1;fontColor=#FFFFFF;html=1;" vertex="1" parent="pd1kDjK4zznccs3xAjcE-156">
          <mxGeometry x="301" width="149" height="33" as="geometry">
            <mxRectangle width="149" height="33" as="alternateBounds" />
          </mxGeometry>
        </mxCell>
        <mxCell id="pd1kDjK4zznccs3xAjcE-160" value="" style="shape=tableRow;horizontal=0;startSize=0;swimlaneHead=0;swimlaneBody=0;top=0;left=0;bottom=0;right=0;dropTarget=0;collapsible=0;recursiveResize=0;expand=0;fontStyle=0;strokeColor=inherit;fillColor=#ffffff;" vertex="1" parent="pd1kDjK4zznccs3xAjcE-155">
          <mxGeometry y="33" width="450" height="32" as="geometry" />
        </mxCell>
        <mxCell id="pd1kDjK4zznccs3xAjcE-161" value="阴──阴──阴" style="connectable=0;recursiveResize=0;strokeColor=#b85450;fillColor=#f8cecc;align=center;whiteSpace=wrap;html=1;" vertex="1" parent="pd1kDjK4zznccs3xAjcE-160">
          <mxGeometry width="149" height="32" as="geometry">
            <mxRectangle width="149" height="32" as="alternateBounds" />
          </mxGeometry>
        </mxCell>
        <mxCell id="pd1kDjK4zznccs3xAjcE-162" value="111" style="connectable=0;recursiveResize=0;strokeColor=#b85450;fillColor=#f8cecc;align=center;whiteSpace=wrap;html=1;" vertex="1" parent="pd1kDjK4zznccs3xAjcE-160">
          <mxGeometry x="149" width="152" height="32" as="geometry">
            <mxRectangle width="152" height="32" as="alternateBounds" />
          </mxGeometry>
        </mxCell>
        <mxCell id="pd1kDjK4zznccs3xAjcE-163" value="差劲-呆板" style="connectable=0;recursiveResize=0;strokeColor=#b85450;fillColor=#f8cecc;align=center;whiteSpace=wrap;html=1;" vertex="1" parent="pd1kDjK4zznccs3xAjcE-160">
          <mxGeometry x="301" width="149" height="32" as="geometry">
            <mxRectangle width="149" height="32" as="alternateBounds" />
          </mxGeometry>
        </mxCell>
        <mxCell id="pd1kDjK4zznccs3xAjcE-164" value="" style="shape=tableRow;horizontal=0;startSize=0;swimlaneHead=0;swimlaneBody=0;top=0;left=0;bottom=0;right=0;dropTarget=0;collapsible=0;recursiveResize=0;expand=0;fontStyle=1;strokeColor=inherit;fillColor=#EAF2D3;" vertex="1" parent="pd1kDjK4zznccs3xAjcE-155">
          <mxGeometry y="65" width="450" height="31" as="geometry" />
        </mxCell>
        <mxCell id="pd1kDjK4zznccs3xAjcE-165" value="阴──阴──阳" style="connectable=0;recursiveResize=0;strokeColor=inherit;fillColor=inherit;whiteSpace=wrap;html=1;" vertex="1" parent="pd1kDjK4zznccs3xAjcE-164">
          <mxGeometry width="149" height="31" as="geometry">
            <mxRectangle width="149" height="31" as="alternateBounds" />
          </mxGeometry>
        </mxCell>
        <mxCell id="pd1kDjK4zznccs3xAjcE-166" value="112" style="connectable=0;recursiveResize=0;strokeColor=inherit;fillColor=inherit;whiteSpace=wrap;html=1;" vertex="1" parent="pd1kDjK4zznccs3xAjcE-164">
          <mxGeometry x="149" width="152" height="31" as="geometry">
            <mxRectangle width="152" height="31" as="alternateBounds" />
          </mxGeometry>
        </mxCell>
        <mxCell id="pd1kDjK4zznccs3xAjcE-167" value="一般-语感平淡" style="connectable=0;recursiveResize=0;strokeColor=inherit;fillColor=inherit;whiteSpace=wrap;html=1;" vertex="1" parent="pd1kDjK4zznccs3xAjcE-164">
          <mxGeometry x="301" width="149" height="31" as="geometry">
            <mxRectangle width="149" height="31" as="alternateBounds" />
          </mxGeometry>
        </mxCell>
        <mxCell id="pd1kDjK4zznccs3xAjcE-168" value="" style="shape=tableRow;horizontal=0;startSize=0;swimlaneHead=0;swimlaneBody=0;top=0;left=0;bottom=0;right=0;dropTarget=0;collapsible=0;recursiveResize=0;expand=0;fontStyle=0;strokeColor=inherit;fillColor=#ffffff;" vertex="1" parent="pd1kDjK4zznccs3xAjcE-155">
          <mxGeometry y="96" width="450" height="33" as="geometry" />
        </mxCell>
        <mxCell id="pd1kDjK4zznccs3xAjcE-169" value="阴──阴──上" style="connectable=0;recursiveResize=0;strokeColor=inherit;fillColor=inherit;fontStyle=0;align=center;whiteSpace=wrap;html=1;" vertex="1" parent="pd1kDjK4zznccs3xAjcE-168">
          <mxGeometry width="149" height="33" as="geometry">
            <mxRectangle width="149" height="33" as="alternateBounds" />
          </mxGeometry>
        </mxCell>
        <mxCell id="pd1kDjK4zznccs3xAjcE-170" value="113" style="connectable=0;recursiveResize=0;strokeColor=inherit;fillColor=inherit;fontStyle=0;align=center;whiteSpace=wrap;html=1;" vertex="1" parent="pd1kDjK4zznccs3xAjcE-168">
          <mxGeometry x="149" width="152" height="33" as="geometry">
            <mxRectangle width="152" height="33" as="alternateBounds" />
          </mxGeometry>
        </mxCell>
        <mxCell id="pd1kDjK4zznccs3xAjcE-171" value="一般-语感平淡" style="connectable=0;recursiveResize=0;strokeColor=inherit;fillColor=inherit;fontStyle=0;align=center;whiteSpace=wrap;html=1;" vertex="1" parent="pd1kDjK4zznccs3xAjcE-168">
          <mxGeometry x="301" width="149" height="33" as="geometry">
            <mxRectangle width="149" height="33" as="alternateBounds" />
          </mxGeometry>
        </mxCell>
        <mxCell id="pd1kDjK4zznccs3xAjcE-172" value="" style="shape=tableRow;horizontal=0;startSize=0;swimlaneHead=0;swimlaneBody=0;top=0;left=0;bottom=0;right=0;dropTarget=0;collapsible=0;recursiveResize=0;expand=0;fontStyle=1;strokeColor=inherit;fillColor=#EAF2D3;" vertex="1" parent="pd1kDjK4zznccs3xAjcE-155">
          <mxGeometry y="129" width="450" height="31" as="geometry" />
        </mxCell>
        <mxCell id="pd1kDjK4zznccs3xAjcE-173" value="阴──阴──去" style="connectable=0;recursiveResize=0;strokeColor=inherit;fillColor=inherit;whiteSpace=wrap;html=1;" vertex="1" parent="pd1kDjK4zznccs3xAjcE-172">
          <mxGeometry width="149" height="31" as="geometry">
            <mxRectangle width="149" height="31" as="alternateBounds" />
          </mxGeometry>
        </mxCell>
        <mxCell id="pd1kDjK4zznccs3xAjcE-174" value="114" style="connectable=0;recursiveResize=0;strokeColor=inherit;fillColor=inherit;whiteSpace=wrap;html=1;" vertex="1" parent="pd1kDjK4zznccs3xAjcE-172">
          <mxGeometry x="149" width="152" height="31" as="geometry">
            <mxRectangle width="152" height="31" as="alternateBounds" />
          </mxGeometry>
        </mxCell>
        <mxCell id="pd1kDjK4zznccs3xAjcE-175" value="一般-语感平淡" style="connectable=0;recursiveResize=0;strokeColor=inherit;fillColor=inherit;whiteSpace=wrap;html=1;" vertex="1" parent="pd1kDjK4zznccs3xAjcE-172">
          <mxGeometry x="301" width="149" height="31" as="geometry">
            <mxRectangle width="149" height="31" as="alternateBounds" />
          </mxGeometry>
        </mxCell>
        <mxCell id="pd1kDjK4zznccs3xAjcE-176" style="shape=tableRow;horizontal=0;startSize=0;swimlaneHead=0;swimlaneBody=0;top=0;left=0;bottom=0;right=0;dropTarget=0;collapsible=0;recursiveResize=0;expand=0;fontStyle=1;strokeColor=inherit;fillColor=#EAF2D3;" vertex="1" parent="pd1kDjK4zznccs3xAjcE-155">
          <mxGeometry y="160" width="450" height="31" as="geometry" />
        </mxCell>
        <mxCell id="pd1kDjK4zznccs3xAjcE-177" value="阴──阳──阴" style="connectable=0;recursiveResize=0;strokeColor=inherit;fillColor=inherit;whiteSpace=wrap;html=1;" vertex="1" parent="pd1kDjK4zznccs3xAjcE-176">
          <mxGeometry width="149" height="31" as="geometry">
            <mxRectangle width="149" height="31" as="alternateBounds" />
          </mxGeometry>
        </mxCell>
        <mxCell id="pd1kDjK4zznccs3xAjcE-178" value="121" style="connectable=0;recursiveResize=0;strokeColor=inherit;fillColor=inherit;whiteSpace=wrap;html=1;" vertex="1" parent="pd1kDjK4zznccs3xAjcE-176">
          <mxGeometry x="149" width="152" height="31" as="geometry">
            <mxRectangle width="152" height="31" as="alternateBounds" />
          </mxGeometry>
        </mxCell>
        <mxCell id="pd1kDjK4zznccs3xAjcE-179" value="最最佳" style="connectable=0;recursiveResize=0;strokeColor=inherit;fillColor=inherit;whiteSpace=wrap;html=1;" vertex="1" parent="pd1kDjK4zznccs3xAjcE-176">
          <mxGeometry x="301" width="149" height="31" as="geometry">
            <mxRectangle width="149" height="31" as="alternateBounds" />
          </mxGeometry>
        </mxCell>
        <mxCell id="pd1kDjK4zznccs3xAjcE-180" style="shape=tableRow;horizontal=0;startSize=0;swimlaneHead=0;swimlaneBody=0;top=0;left=0;bottom=0;right=0;dropTarget=0;collapsible=0;recursiveResize=0;expand=0;fontStyle=1;strokeColor=inherit;fillColor=#EAF2D3;" vertex="1" parent="pd1kDjK4zznccs3xAjcE-155">
          <mxGeometry y="191" width="450" height="31" as="geometry" />
        </mxCell>
        <mxCell id="pd1kDjK4zznccs3xAjcE-181" value="阴──阳──阳" style="connectable=0;recursiveResize=0;strokeColor=inherit;fillColor=inherit;whiteSpace=wrap;html=1;" vertex="1" parent="pd1kDjK4zznccs3xAjcE-180">
          <mxGeometry width="149" height="31" as="geometry">
            <mxRectangle width="149" height="31" as="alternateBounds" />
          </mxGeometry>
        </mxCell>
        <mxCell id="pd1kDjK4zznccs3xAjcE-182" value="122" style="connectable=0;recursiveResize=0;strokeColor=inherit;fillColor=inherit;whiteSpace=wrap;html=1;" vertex="1" parent="pd1kDjK4zznccs3xAjcE-180">
          <mxGeometry x="149" width="152" height="31" as="geometry">
            <mxRectangle width="152" height="31" as="alternateBounds" />
          </mxGeometry>
        </mxCell>
        <mxCell id="pd1kDjK4zznccs3xAjcE-183" value="一般-语感平淡" style="connectable=0;recursiveResize=0;strokeColor=inherit;fillColor=inherit;whiteSpace=wrap;html=1;" vertex="1" parent="pd1kDjK4zznccs3xAjcE-180">
          <mxGeometry x="301" width="149" height="31" as="geometry">
            <mxRectangle width="149" height="31" as="alternateBounds" />
          </mxGeometry>
        </mxCell>
        <mxCell id="pd1kDjK4zznccs3xAjcE-216" style="shape=tableRow;horizontal=0;startSize=0;swimlaneHead=0;swimlaneBody=0;top=0;left=0;bottom=0;right=0;dropTarget=0;collapsible=0;recursiveResize=0;expand=0;fontStyle=1;strokeColor=inherit;fillColor=#EAF2D3;" vertex="1" parent="pd1kDjK4zznccs3xAjcE-155">
          <mxGeometry y="222" width="450" height="31" as="geometry" />
        </mxCell>
        <mxCell id="pd1kDjK4zznccs3xAjcE-217" value="阴──阳──上" style="connectable=0;recursiveResize=0;strokeColor=inherit;fillColor=inherit;whiteSpace=wrap;html=1;" vertex="1" parent="pd1kDjK4zznccs3xAjcE-216">
          <mxGeometry width="149" height="31" as="geometry">
            <mxRectangle width="149" height="31" as="alternateBounds" />
          </mxGeometry>
        </mxCell>
        <mxCell id="pd1kDjK4zznccs3xAjcE-218" value="123" style="connectable=0;recursiveResize=0;strokeColor=inherit;fillColor=inherit;whiteSpace=wrap;html=1;" vertex="1" parent="pd1kDjK4zznccs3xAjcE-216">
          <mxGeometry x="149" width="152" height="31" as="geometry">
            <mxRectangle width="152" height="31" as="alternateBounds" />
          </mxGeometry>
        </mxCell>
        <mxCell id="pd1kDjK4zznccs3xAjcE-219" value="一般-语感平淡" style="connectable=0;recursiveResize=0;strokeColor=inherit;fillColor=inherit;whiteSpace=wrap;html=1;" vertex="1" parent="pd1kDjK4zznccs3xAjcE-216">
          <mxGeometry x="301" width="149" height="31" as="geometry">
            <mxRectangle width="149" height="31" as="alternateBounds" />
          </mxGeometry>
        </mxCell>
        <mxCell id="pd1kDjK4zznccs3xAjcE-212" style="shape=tableRow;horizontal=0;startSize=0;swimlaneHead=0;swimlaneBody=0;top=0;left=0;bottom=0;right=0;dropTarget=0;collapsible=0;recursiveResize=0;expand=0;fontStyle=1;strokeColor=inherit;fillColor=#EAF2D3;" vertex="1" parent="pd1kDjK4zznccs3xAjcE-155">
          <mxGeometry y="253" width="450" height="31" as="geometry" />
        </mxCell>
        <mxCell id="pd1kDjK4zznccs3xAjcE-213" value="阴──阳──去" style="connectable=0;recursiveResize=0;strokeColor=inherit;fillColor=inherit;whiteSpace=wrap;html=1;" vertex="1" parent="pd1kDjK4zznccs3xAjcE-212">
          <mxGeometry width="149" height="31" as="geometry">
            <mxRectangle width="149" height="31" as="alternateBounds" />
          </mxGeometry>
        </mxCell>
        <mxCell id="pd1kDjK4zznccs3xAjcE-214" value="123" style="connectable=0;recursiveResize=0;strokeColor=inherit;fillColor=inherit;whiteSpace=wrap;html=1;" vertex="1" parent="pd1kDjK4zznccs3xAjcE-212">
          <mxGeometry x="149" width="152" height="31" as="geometry">
            <mxRectangle width="152" height="31" as="alternateBounds" />
          </mxGeometry>
        </mxCell>
        <mxCell id="pd1kDjK4zznccs3xAjcE-215" value="最佳" style="connectable=0;recursiveResize=0;strokeColor=inherit;fillColor=inherit;whiteSpace=wrap;html=1;" vertex="1" parent="pd1kDjK4zznccs3xAjcE-212">
          <mxGeometry x="301" width="149" height="31" as="geometry">
            <mxRectangle width="149" height="31" as="alternateBounds" />
          </mxGeometry>
        </mxCell>
        <mxCell id="pd1kDjK4zznccs3xAjcE-208" style="shape=tableRow;horizontal=0;startSize=0;swimlaneHead=0;swimlaneBody=0;top=0;left=0;bottom=0;right=0;dropTarget=0;collapsible=0;recursiveResize=0;expand=0;fontStyle=1;strokeColor=inherit;fillColor=#EAF2D3;" vertex="1" parent="pd1kDjK4zznccs3xAjcE-155">
          <mxGeometry y="284" width="450" height="31" as="geometry" />
        </mxCell>
        <mxCell id="pd1kDjK4zznccs3xAjcE-209" value="阴──上──阴" style="connectable=0;recursiveResize=0;strokeColor=inherit;fillColor=inherit;whiteSpace=wrap;html=1;" vertex="1" parent="pd1kDjK4zznccs3xAjcE-208">
          <mxGeometry width="149" height="31" as="geometry">
            <mxRectangle width="149" height="31" as="alternateBounds" />
          </mxGeometry>
        </mxCell>
        <mxCell id="pd1kDjK4zznccs3xAjcE-210" value="131" style="connectable=0;recursiveResize=0;strokeColor=inherit;fillColor=inherit;whiteSpace=wrap;html=1;" vertex="1" parent="pd1kDjK4zznccs3xAjcE-208">
          <mxGeometry x="149" width="152" height="31" as="geometry">
            <mxRectangle width="152" height="31" as="alternateBounds" />
          </mxGeometry>
        </mxCell>
        <mxCell id="pd1kDjK4zznccs3xAjcE-211" value="最最佳" style="connectable=0;recursiveResize=0;strokeColor=inherit;fillColor=inherit;whiteSpace=wrap;html=1;" vertex="1" parent="pd1kDjK4zznccs3xAjcE-208">
          <mxGeometry x="301" width="149" height="31" as="geometry">
            <mxRectangle width="149" height="31" as="alternateBounds" />
          </mxGeometry>
        </mxCell>
        <mxCell id="pd1kDjK4zznccs3xAjcE-204" style="shape=tableRow;horizontal=0;startSize=0;swimlaneHead=0;swimlaneBody=0;top=0;left=0;bottom=0;right=0;dropTarget=0;collapsible=0;recursiveResize=0;expand=0;fontStyle=1;strokeColor=inherit;fillColor=#EAF2D3;" vertex="1" parent="pd1kDjK4zznccs3xAjcE-155">
          <mxGeometry y="315" width="450" height="31" as="geometry" />
        </mxCell>
        <mxCell id="pd1kDjK4zznccs3xAjcE-205" value="阴──上──阳" style="connectable=0;recursiveResize=0;strokeColor=inherit;fillColor=inherit;whiteSpace=wrap;html=1;" vertex="1" parent="pd1kDjK4zznccs3xAjcE-204">
          <mxGeometry width="149" height="31" as="geometry">
            <mxRectangle width="149" height="31" as="alternateBounds" />
          </mxGeometry>
        </mxCell>
        <mxCell id="pd1kDjK4zznccs3xAjcE-206" value="132" style="connectable=0;recursiveResize=0;strokeColor=inherit;fillColor=inherit;whiteSpace=wrap;html=1;" vertex="1" parent="pd1kDjK4zznccs3xAjcE-204">
          <mxGeometry x="149" width="152" height="31" as="geometry">
            <mxRectangle width="152" height="31" as="alternateBounds" />
          </mxGeometry>
        </mxCell>
        <mxCell id="pd1kDjK4zznccs3xAjcE-207" value="最佳" style="connectable=0;recursiveResize=0;strokeColor=inherit;fillColor=inherit;whiteSpace=wrap;html=1;" vertex="1" parent="pd1kDjK4zznccs3xAjcE-204">
          <mxGeometry x="301" width="149" height="31" as="geometry">
            <mxRectangle width="149" height="31" as="alternateBounds" />
          </mxGeometry>
        </mxCell>
        <mxCell id="pd1kDjK4zznccs3xAjcE-200" style="shape=tableRow;horizontal=0;startSize=0;swimlaneHead=0;swimlaneBody=0;top=0;left=0;bottom=0;right=0;dropTarget=0;collapsible=0;recursiveResize=0;expand=0;fontStyle=1;strokeColor=inherit;fillColor=#EAF2D3;" vertex="1" parent="pd1kDjK4zznccs3xAjcE-155">
          <mxGeometry y="346" width="450" height="31" as="geometry" />
        </mxCell>
        <mxCell id="pd1kDjK4zznccs3xAjcE-201" value="阴──上──上" style="connectable=0;recursiveResize=0;strokeColor=inherit;fillColor=inherit;whiteSpace=wrap;html=1;" vertex="1" parent="pd1kDjK4zznccs3xAjcE-200">
          <mxGeometry width="149" height="31" as="geometry">
            <mxRectangle width="149" height="31" as="alternateBounds" />
          </mxGeometry>
        </mxCell>
        <mxCell id="pd1kDjK4zznccs3xAjcE-202" value="133" style="connectable=0;recursiveResize=0;strokeColor=inherit;fillColor=inherit;whiteSpace=wrap;html=1;" vertex="1" parent="pd1kDjK4zznccs3xAjcE-200">
          <mxGeometry x="149" width="152" height="31" as="geometry">
            <mxRectangle width="152" height="31" as="alternateBounds" />
          </mxGeometry>
        </mxCell>
        <mxCell id="pd1kDjK4zznccs3xAjcE-203" value="差劲-拗口" style="connectable=0;recursiveResize=0;strokeColor=inherit;fillColor=inherit;whiteSpace=wrap;html=1;" vertex="1" parent="pd1kDjK4zznccs3xAjcE-200">
          <mxGeometry x="301" width="149" height="31" as="geometry">
            <mxRectangle width="149" height="31" as="alternateBounds" />
          </mxGeometry>
        </mxCell>
        <mxCell id="pd1kDjK4zznccs3xAjcE-196" style="shape=tableRow;horizontal=0;startSize=0;swimlaneHead=0;swimlaneBody=0;top=0;left=0;bottom=0;right=0;dropTarget=0;collapsible=0;recursiveResize=0;expand=0;fontStyle=1;strokeColor=inherit;fillColor=#EAF2D3;" vertex="1" parent="pd1kDjK4zznccs3xAjcE-155">
          <mxGeometry y="377" width="450" height="31" as="geometry" />
        </mxCell>
        <mxCell id="pd1kDjK4zznccs3xAjcE-197" value="阴──上──去" style="connectable=0;recursiveResize=0;strokeColor=inherit;fillColor=inherit;whiteSpace=wrap;html=1;" vertex="1" parent="pd1kDjK4zznccs3xAjcE-196">
          <mxGeometry width="149" height="31" as="geometry">
            <mxRectangle width="149" height="31" as="alternateBounds" />
          </mxGeometry>
        </mxCell>
        <mxCell id="pd1kDjK4zznccs3xAjcE-198" value="134" style="connectable=0;recursiveResize=0;strokeColor=inherit;fillColor=inherit;whiteSpace=wrap;html=1;" vertex="1" parent="pd1kDjK4zznccs3xAjcE-196">
          <mxGeometry x="149" width="152" height="31" as="geometry">
            <mxRectangle width="152" height="31" as="alternateBounds" />
          </mxGeometry>
        </mxCell>
        <mxCell id="pd1kDjK4zznccs3xAjcE-199" value="最最佳" style="connectable=0;recursiveResize=0;strokeColor=inherit;fillColor=inherit;whiteSpace=wrap;html=1;" vertex="1" parent="pd1kDjK4zznccs3xAjcE-196">
          <mxGeometry x="301" width="149" height="31" as="geometry">
            <mxRectangle width="149" height="31" as="alternateBounds" />
          </mxGeometry>
        </mxCell>
        <mxCell id="pd1kDjK4zznccs3xAjcE-192" style="shape=tableRow;horizontal=0;startSize=0;swimlaneHead=0;swimlaneBody=0;top=0;left=0;bottom=0;right=0;dropTarget=0;collapsible=0;recursiveResize=0;expand=0;fontStyle=1;strokeColor=inherit;fillColor=#EAF2D3;" vertex="1" parent="pd1kDjK4zznccs3xAjcE-155">
          <mxGeometry y="408" width="450" height="31" as="geometry" />
        </mxCell>
        <mxCell id="pd1kDjK4zznccs3xAjcE-193" value="阴──去──阴" style="connectable=0;recursiveResize=0;strokeColor=inherit;fillColor=inherit;whiteSpace=wrap;html=1;" vertex="1" parent="pd1kDjK4zznccs3xAjcE-192">
          <mxGeometry width="149" height="31" as="geometry">
            <mxRectangle width="149" height="31" as="alternateBounds" />
          </mxGeometry>
        </mxCell>
        <mxCell id="pd1kDjK4zznccs3xAjcE-194" value="141" style="connectable=0;recursiveResize=0;strokeColor=inherit;fillColor=inherit;whiteSpace=wrap;html=1;" vertex="1" parent="pd1kDjK4zznccs3xAjcE-192">
          <mxGeometry x="149" width="152" height="31" as="geometry">
            <mxRectangle width="152" height="31" as="alternateBounds" />
          </mxGeometry>
        </mxCell>
        <mxCell id="pd1kDjK4zznccs3xAjcE-195" value="最佳" style="connectable=0;recursiveResize=0;strokeColor=inherit;fillColor=inherit;whiteSpace=wrap;html=1;" vertex="1" parent="pd1kDjK4zznccs3xAjcE-192">
          <mxGeometry x="301" width="149" height="31" as="geometry">
            <mxRectangle width="149" height="31" as="alternateBounds" />
          </mxGeometry>
        </mxCell>
        <mxCell id="pd1kDjK4zznccs3xAjcE-188" style="shape=tableRow;horizontal=0;startSize=0;swimlaneHead=0;swimlaneBody=0;top=0;left=0;bottom=0;right=0;dropTarget=0;collapsible=0;recursiveResize=0;expand=0;fontStyle=1;strokeColor=inherit;fillColor=#EAF2D3;" vertex="1" parent="pd1kDjK4zznccs3xAjcE-155">
          <mxGeometry y="439" width="450" height="31" as="geometry" />
        </mxCell>
        <mxCell id="pd1kDjK4zznccs3xAjcE-189" value="阴──去──阳" style="connectable=0;recursiveResize=0;strokeColor=inherit;fillColor=inherit;whiteSpace=wrap;html=1;" vertex="1" parent="pd1kDjK4zznccs3xAjcE-188">
          <mxGeometry width="149" height="31" as="geometry">
            <mxRectangle width="149" height="31" as="alternateBounds" />
          </mxGeometry>
        </mxCell>
        <mxCell id="pd1kDjK4zznccs3xAjcE-190" value="142" style="connectable=0;recursiveResize=0;strokeColor=inherit;fillColor=inherit;whiteSpace=wrap;html=1;" vertex="1" parent="pd1kDjK4zznccs3xAjcE-188">
          <mxGeometry x="149" width="152" height="31" as="geometry">
            <mxRectangle width="152" height="31" as="alternateBounds" />
          </mxGeometry>
        </mxCell>
        <mxCell id="pd1kDjK4zznccs3xAjcE-191" value="最佳" style="connectable=0;recursiveResize=0;strokeColor=inherit;fillColor=inherit;whiteSpace=wrap;html=1;" vertex="1" parent="pd1kDjK4zznccs3xAjcE-188">
          <mxGeometry x="301" width="149" height="31" as="geometry">
            <mxRectangle width="149" height="31" as="alternateBounds" />
          </mxGeometry>
        </mxCell>
        <mxCell id="pd1kDjK4zznccs3xAjcE-184" style="shape=tableRow;horizontal=0;startSize=0;swimlaneHead=0;swimlaneBody=0;top=0;left=0;bottom=0;right=0;dropTarget=0;collapsible=0;recursiveResize=0;expand=0;fontStyle=1;strokeColor=inherit;fillColor=#EAF2D3;" vertex="1" parent="pd1kDjK4zznccs3xAjcE-155">
          <mxGeometry y="470" width="450" height="31" as="geometry" />
        </mxCell>
        <mxCell id="pd1kDjK4zznccs3xAjcE-185" value="阴──去──上" style="connectable=0;recursiveResize=0;strokeColor=inherit;fillColor=inherit;whiteSpace=wrap;html=1;" vertex="1" parent="pd1kDjK4zznccs3xAjcE-184">
          <mxGeometry width="149" height="31" as="geometry">
            <mxRectangle width="149" height="31" as="alternateBounds" />
          </mxGeometry>
        </mxCell>
        <mxCell id="pd1kDjK4zznccs3xAjcE-186" value="143" style="connectable=0;recursiveResize=0;strokeColor=inherit;fillColor=inherit;whiteSpace=wrap;html=1;" vertex="1" parent="pd1kDjK4zznccs3xAjcE-184">
          <mxGeometry x="149" width="152" height="31" as="geometry">
            <mxRectangle width="152" height="31" as="alternateBounds" />
          </mxGeometry>
        </mxCell>
        <mxCell id="pd1kDjK4zznccs3xAjcE-187" value="最佳" style="connectable=0;recursiveResize=0;strokeColor=inherit;fillColor=inherit;whiteSpace=wrap;html=1;" vertex="1" parent="pd1kDjK4zznccs3xAjcE-184">
          <mxGeometry x="301" width="149" height="31" as="geometry">
            <mxRectangle width="149" height="31" as="alternateBounds" />
          </mxGeometry>
        </mxCell>
        <mxCell id="pd1kDjK4zznccs3xAjcE-220" style="shape=tableRow;horizontal=0;startSize=0;swimlaneHead=0;swimlaneBody=0;top=0;left=0;bottom=0;right=0;dropTarget=0;collapsible=0;recursiveResize=0;expand=0;fontStyle=1;strokeColor=inherit;fillColor=#EAF2D3;" vertex="1" parent="pd1kDjK4zznccs3xAjcE-155">
          <mxGeometry y="501" width="450" height="31" as="geometry" />
        </mxCell>
        <mxCell id="pd1kDjK4zznccs3xAjcE-221" value="阴──去──去" style="connectable=0;recursiveResize=0;strokeColor=inherit;fillColor=inherit;whiteSpace=wrap;html=1;" vertex="1" parent="pd1kDjK4zznccs3xAjcE-220">
          <mxGeometry width="149" height="31" as="geometry">
            <mxRectangle width="149" height="31" as="alternateBounds" />
          </mxGeometry>
        </mxCell>
        <mxCell id="pd1kDjK4zznccs3xAjcE-222" value="144" style="connectable=0;recursiveResize=0;strokeColor=inherit;fillColor=inherit;whiteSpace=wrap;html=1;" vertex="1" parent="pd1kDjK4zznccs3xAjcE-220">
          <mxGeometry x="149" width="152" height="31" as="geometry">
            <mxRectangle width="152" height="31" as="alternateBounds" />
          </mxGeometry>
        </mxCell>
        <mxCell id="pd1kDjK4zznccs3xAjcE-223" value="差劲-拗口" style="connectable=0;recursiveResize=0;strokeColor=inherit;fillColor=inherit;whiteSpace=wrap;html=1;" vertex="1" parent="pd1kDjK4zznccs3xAjcE-220">
          <mxGeometry x="301" width="149" height="31" as="geometry">
            <mxRectangle width="149" height="31" as="alternateBounds" />
          </mxGeometry>
        </mxCell>
        <mxCell id="pd1kDjK4zznccs3xAjcE-224" value="Assets" style="childLayout=tableLayout;recursiveResize=0;strokeColor=#98bf21;fillColor=#A7C942;shadow=1;" vertex="1" parent="1">
          <mxGeometry x="-450" y="1750" width="580" height="532" as="geometry" />
        </mxCell>
        <mxCell id="pd1kDjK4zznccs3xAjcE-225" style="shape=tableRow;horizontal=0;startSize=0;swimlaneHead=0;swimlaneBody=0;top=0;left=0;bottom=0;right=0;dropTarget=0;collapsible=0;recursiveResize=0;expand=0;fontStyle=0;strokeColor=inherit;fillColor=#ffffff;" vertex="1" parent="pd1kDjK4zznccs3xAjcE-224">
          <mxGeometry width="580" height="33" as="geometry" />
        </mxCell>
        <mxCell id="pd1kDjK4zznccs3xAjcE-293" value="字母" style="connectable=0;recursiveResize=0;strokeColor=inherit;fillColor=#A7C942;align=center;fontStyle=1;fontColor=#FFFFFF;html=1;" vertex="1" parent="pd1kDjK4zznccs3xAjcE-225">
          <mxGeometry width="145" height="33" as="geometry">
            <mxRectangle width="145" height="33" as="alternateBounds" />
          </mxGeometry>
        </mxCell>
        <mxCell id="pd1kDjK4zznccs3xAjcE-226" value="三字" style="connectable=0;recursiveResize=0;strokeColor=inherit;fillColor=#A7C942;align=center;fontStyle=1;fontColor=#FFFFFF;html=1;" vertex="1" parent="pd1kDjK4zznccs3xAjcE-225">
          <mxGeometry x="145" width="144" height="33" as="geometry">
            <mxRectangle width="144" height="33" as="alternateBounds" />
          </mxGeometry>
        </mxCell>
        <mxCell id="pd1kDjK4zznccs3xAjcE-227" value="Title 2" style="connectable=0;recursiveResize=0;strokeColor=inherit;fillColor=#A7C942;align=center;fontStyle=1;fontColor=#FFFFFF;html=1;" vertex="1" parent="pd1kDjK4zznccs3xAjcE-225">
          <mxGeometry x="289" width="146" height="33" as="geometry">
            <mxRectangle width="146" height="33" as="alternateBounds" />
          </mxGeometry>
        </mxCell>
        <mxCell id="pd1kDjK4zznccs3xAjcE-228" value="Title 3" style="connectable=0;recursiveResize=0;strokeColor=inherit;fillColor=#A7C942;align=center;fontStyle=1;fontColor=#FFFFFF;html=1;" vertex="1" parent="pd1kDjK4zznccs3xAjcE-225">
          <mxGeometry x="435" width="145" height="33" as="geometry">
            <mxRectangle width="145" height="33" as="alternateBounds" />
          </mxGeometry>
        </mxCell>
        <mxCell id="pd1kDjK4zznccs3xAjcE-229" value="" style="shape=tableRow;horizontal=0;startSize=0;swimlaneHead=0;swimlaneBody=0;top=0;left=0;bottom=0;right=0;dropTarget=0;collapsible=0;recursiveResize=0;expand=0;fontStyle=0;strokeColor=inherit;fillColor=#ffffff;" vertex="1" parent="pd1kDjK4zznccs3xAjcE-224">
          <mxGeometry y="33" width="580" height="32" as="geometry" />
        </mxCell>
        <mxCell id="pd1kDjK4zznccs3xAjcE-294" value="A" style="connectable=0;recursiveResize=0;strokeColor=#b85450;fillColor=#eaf1d5;align=center;whiteSpace=wrap;html=1;" vertex="1" parent="pd1kDjK4zznccs3xAjcE-229">
          <mxGeometry width="145" height="32" as="geometry">
            <mxRectangle width="145" height="32" as="alternateBounds" />
          </mxGeometry>
        </mxCell>
        <mxCell id="pd1kDjK4zznccs3xAjcE-230" value="阳──阴──阴" style="connectable=0;recursiveResize=0;strokeColor=#b85450;fillColor=#eaf1d5;align=center;whiteSpace=wrap;html=1;" vertex="1" parent="pd1kDjK4zznccs3xAjcE-229">
          <mxGeometry x="145" width="144" height="32" as="geometry">
            <mxRectangle width="144" height="32" as="alternateBounds" />
          </mxGeometry>
        </mxCell>
        <mxCell id="pd1kDjK4zznccs3xAjcE-231" value="211" style="connectable=0;recursiveResize=0;strokeColor=#b85450;fillColor=#eaf1d5;align=center;whiteSpace=wrap;html=1;" vertex="1" parent="pd1kDjK4zznccs3xAjcE-229">
          <mxGeometry x="289" width="146" height="32" as="geometry">
            <mxRectangle width="146" height="32" as="alternateBounds" />
          </mxGeometry>
        </mxCell>
        <mxCell id="pd1kDjK4zznccs3xAjcE-232" value="最佳" style="connectable=0;recursiveResize=0;strokeColor=#b85450;fillColor=#eaf1d5;align=center;whiteSpace=wrap;html=1;" vertex="1" parent="pd1kDjK4zznccs3xAjcE-229">
          <mxGeometry x="435" width="145" height="32" as="geometry">
            <mxRectangle width="145" height="32" as="alternateBounds" />
          </mxGeometry>
        </mxCell>
        <mxCell id="pd1kDjK4zznccs3xAjcE-233" value="" style="shape=tableRow;horizontal=0;startSize=0;swimlaneHead=0;swimlaneBody=0;top=0;left=0;bottom=0;right=0;dropTarget=0;collapsible=0;recursiveResize=0;expand=0;fontStyle=1;strokeColor=inherit;fillColor=#EAF2D3;" vertex="1" parent="pd1kDjK4zznccs3xAjcE-224">
          <mxGeometry y="65" width="580" height="31" as="geometry" />
        </mxCell>
        <mxCell id="pd1kDjK4zznccs3xAjcE-295" value="B" style="connectable=0;recursiveResize=0;strokeColor=inherit;fillColor=inherit;whiteSpace=wrap;html=1;" vertex="1" parent="pd1kDjK4zznccs3xAjcE-233">
          <mxGeometry width="145" height="31" as="geometry">
            <mxRectangle width="145" height="31" as="alternateBounds" />
          </mxGeometry>
        </mxCell>
        <mxCell id="pd1kDjK4zznccs3xAjcE-234" value="阳──阴──阳" style="connectable=0;recursiveResize=0;strokeColor=inherit;fillColor=inherit;whiteSpace=wrap;html=1;" vertex="1" parent="pd1kDjK4zznccs3xAjcE-233">
          <mxGeometry x="145" width="144" height="31" as="geometry">
            <mxRectangle width="144" height="31" as="alternateBounds" />
          </mxGeometry>
        </mxCell>
        <mxCell id="pd1kDjK4zznccs3xAjcE-235" value="212" style="connectable=0;recursiveResize=0;strokeColor=inherit;fillColor=inherit;whiteSpace=wrap;html=1;" vertex="1" parent="pd1kDjK4zznccs3xAjcE-233">
          <mxGeometry x="289" width="146" height="31" as="geometry">
            <mxRectangle width="146" height="31" as="alternateBounds" />
          </mxGeometry>
        </mxCell>
        <mxCell id="pd1kDjK4zznccs3xAjcE-236" value="差劲" style="connectable=0;recursiveResize=0;strokeColor=inherit;fillColor=inherit;whiteSpace=wrap;html=1;" vertex="1" parent="pd1kDjK4zznccs3xAjcE-233">
          <mxGeometry x="435" width="145" height="31" as="geometry">
            <mxRectangle width="145" height="31" as="alternateBounds" />
          </mxGeometry>
        </mxCell>
        <mxCell id="pd1kDjK4zznccs3xAjcE-237" value="" style="shape=tableRow;horizontal=0;startSize=0;swimlaneHead=0;swimlaneBody=0;top=0;left=0;bottom=0;right=0;dropTarget=0;collapsible=0;recursiveResize=0;expand=0;fontStyle=0;strokeColor=inherit;fillColor=#ffffff;" vertex="1" parent="pd1kDjK4zznccs3xAjcE-224">
          <mxGeometry y="96" width="580" height="33" as="geometry" />
        </mxCell>
        <mxCell id="pd1kDjK4zznccs3xAjcE-296" value="C" style="connectable=0;recursiveResize=0;strokeColor=inherit;fillColor=inherit;fontStyle=0;align=center;whiteSpace=wrap;html=1;" vertex="1" parent="pd1kDjK4zznccs3xAjcE-237">
          <mxGeometry width="145" height="33" as="geometry">
            <mxRectangle width="145" height="33" as="alternateBounds" />
          </mxGeometry>
        </mxCell>
        <mxCell id="pd1kDjK4zznccs3xAjcE-238" value="阳──阴──上" style="connectable=0;recursiveResize=0;strokeColor=inherit;fillColor=inherit;fontStyle=0;align=center;whiteSpace=wrap;html=1;" vertex="1" parent="pd1kDjK4zznccs3xAjcE-237">
          <mxGeometry x="145" width="144" height="33" as="geometry">
            <mxRectangle width="144" height="33" as="alternateBounds" />
          </mxGeometry>
        </mxCell>
        <mxCell id="pd1kDjK4zznccs3xAjcE-239" value="213" style="connectable=0;recursiveResize=0;strokeColor=inherit;fillColor=inherit;fontStyle=0;align=center;whiteSpace=wrap;html=1;" vertex="1" parent="pd1kDjK4zznccs3xAjcE-237">
          <mxGeometry x="289" width="146" height="33" as="geometry">
            <mxRectangle width="146" height="33" as="alternateBounds" />
          </mxGeometry>
        </mxCell>
        <mxCell id="pd1kDjK4zznccs3xAjcE-240" value="最佳" style="connectable=0;recursiveResize=0;strokeColor=inherit;fillColor=inherit;fontStyle=0;align=center;whiteSpace=wrap;html=1;" vertex="1" parent="pd1kDjK4zznccs3xAjcE-237">
          <mxGeometry x="435" width="145" height="33" as="geometry">
            <mxRectangle width="145" height="33" as="alternateBounds" />
          </mxGeometry>
        </mxCell>
        <mxCell id="pd1kDjK4zznccs3xAjcE-241" value="" style="shape=tableRow;horizontal=0;startSize=0;swimlaneHead=0;swimlaneBody=0;top=0;left=0;bottom=0;right=0;dropTarget=0;collapsible=0;recursiveResize=0;expand=0;fontStyle=1;strokeColor=inherit;fillColor=#EAF2D3;" vertex="1" parent="pd1kDjK4zznccs3xAjcE-224">
          <mxGeometry y="129" width="580" height="31" as="geometry" />
        </mxCell>
        <mxCell id="pd1kDjK4zznccs3xAjcE-297" value="D" style="connectable=0;recursiveResize=0;strokeColor=inherit;fillColor=inherit;whiteSpace=wrap;html=1;" vertex="1" parent="pd1kDjK4zznccs3xAjcE-241">
          <mxGeometry width="145" height="31" as="geometry">
            <mxRectangle width="145" height="31" as="alternateBounds" />
          </mxGeometry>
        </mxCell>
        <mxCell id="pd1kDjK4zznccs3xAjcE-242" value="阳──阴──去" style="connectable=0;recursiveResize=0;strokeColor=inherit;fillColor=inherit;whiteSpace=wrap;html=1;" vertex="1" parent="pd1kDjK4zznccs3xAjcE-241">
          <mxGeometry x="145" width="144" height="31" as="geometry">
            <mxRectangle width="144" height="31" as="alternateBounds" />
          </mxGeometry>
        </mxCell>
        <mxCell id="pd1kDjK4zznccs3xAjcE-243" value="214" style="connectable=0;recursiveResize=0;strokeColor=inherit;fillColor=inherit;whiteSpace=wrap;html=1;" vertex="1" parent="pd1kDjK4zznccs3xAjcE-241">
          <mxGeometry x="289" width="146" height="31" as="geometry">
            <mxRectangle width="146" height="31" as="alternateBounds" />
          </mxGeometry>
        </mxCell>
        <mxCell id="pd1kDjK4zznccs3xAjcE-244" value="最佳" style="connectable=0;recursiveResize=0;strokeColor=inherit;fillColor=inherit;whiteSpace=wrap;html=1;" vertex="1" parent="pd1kDjK4zznccs3xAjcE-241">
          <mxGeometry x="435" width="145" height="31" as="geometry">
            <mxRectangle width="145" height="31" as="alternateBounds" />
          </mxGeometry>
        </mxCell>
        <mxCell id="pd1kDjK4zznccs3xAjcE-245" style="shape=tableRow;horizontal=0;startSize=0;swimlaneHead=0;swimlaneBody=0;top=0;left=0;bottom=0;right=0;dropTarget=0;collapsible=0;recursiveResize=0;expand=0;fontStyle=1;strokeColor=inherit;fillColor=#EAF2D3;" vertex="1" parent="pd1kDjK4zznccs3xAjcE-224">
          <mxGeometry y="160" width="580" height="31" as="geometry" />
        </mxCell>
        <mxCell id="pd1kDjK4zznccs3xAjcE-298" value="E" style="connectable=0;recursiveResize=0;strokeColor=inherit;fillColor=inherit;whiteSpace=wrap;html=1;" vertex="1" parent="pd1kDjK4zznccs3xAjcE-245">
          <mxGeometry width="145" height="31" as="geometry">
            <mxRectangle width="145" height="31" as="alternateBounds" />
          </mxGeometry>
        </mxCell>
        <mxCell id="pd1kDjK4zznccs3xAjcE-246" value="阳──阳──阴" style="connectable=0;recursiveResize=0;strokeColor=inherit;fillColor=inherit;whiteSpace=wrap;html=1;" vertex="1" parent="pd1kDjK4zznccs3xAjcE-245">
          <mxGeometry x="145" width="144" height="31" as="geometry">
            <mxRectangle width="144" height="31" as="alternateBounds" />
          </mxGeometry>
        </mxCell>
        <mxCell id="pd1kDjK4zznccs3xAjcE-247" value="221" style="connectable=0;recursiveResize=0;strokeColor=inherit;fillColor=inherit;whiteSpace=wrap;html=1;" vertex="1" parent="pd1kDjK4zznccs3xAjcE-245">
          <mxGeometry x="289" width="146" height="31" as="geometry">
            <mxRectangle width="146" height="31" as="alternateBounds" />
          </mxGeometry>
        </mxCell>
        <mxCell id="pd1kDjK4zznccs3xAjcE-248" value="最佳" style="connectable=0;recursiveResize=0;strokeColor=inherit;fillColor=inherit;whiteSpace=wrap;html=1;" vertex="1" parent="pd1kDjK4zznccs3xAjcE-245">
          <mxGeometry x="435" width="145" height="31" as="geometry">
            <mxRectangle width="145" height="31" as="alternateBounds" />
          </mxGeometry>
        </mxCell>
        <mxCell id="pd1kDjK4zznccs3xAjcE-249" style="shape=tableRow;horizontal=0;startSize=0;swimlaneHead=0;swimlaneBody=0;top=0;left=0;bottom=0;right=0;dropTarget=0;collapsible=0;recursiveResize=0;expand=0;fontStyle=1;strokeColor=inherit;fillColor=#EAF2D3;" vertex="1" parent="pd1kDjK4zznccs3xAjcE-224">
          <mxGeometry y="191" width="580" height="31" as="geometry" />
        </mxCell>
        <mxCell id="pd1kDjK4zznccs3xAjcE-299" value="F" style="connectable=0;recursiveResize=0;strokeColor=inherit;fillColor=inherit;whiteSpace=wrap;html=1;" vertex="1" parent="pd1kDjK4zznccs3xAjcE-249">
          <mxGeometry width="145" height="31" as="geometry">
            <mxRectangle width="145" height="31" as="alternateBounds" />
          </mxGeometry>
        </mxCell>
        <mxCell id="pd1kDjK4zznccs3xAjcE-250" value="阳──阳──阳" style="connectable=0;recursiveResize=0;strokeColor=inherit;fillColor=inherit;whiteSpace=wrap;html=1;" vertex="1" parent="pd1kDjK4zznccs3xAjcE-249">
          <mxGeometry x="145" width="144" height="31" as="geometry">
            <mxRectangle width="144" height="31" as="alternateBounds" />
          </mxGeometry>
        </mxCell>
        <mxCell id="pd1kDjK4zznccs3xAjcE-251" value="222" style="connectable=0;recursiveResize=0;strokeColor=inherit;fillColor=inherit;whiteSpace=wrap;html=1;" vertex="1" parent="pd1kDjK4zznccs3xAjcE-249">
          <mxGeometry x="289" width="146" height="31" as="geometry">
            <mxRectangle width="146" height="31" as="alternateBounds" />
          </mxGeometry>
        </mxCell>
        <mxCell id="pd1kDjK4zznccs3xAjcE-252" value="最最佳" style="connectable=0;recursiveResize=0;strokeColor=inherit;fillColor=inherit;whiteSpace=wrap;html=1;" vertex="1" parent="pd1kDjK4zznccs3xAjcE-249">
          <mxGeometry x="435" width="145" height="31" as="geometry">
            <mxRectangle width="145" height="31" as="alternateBounds" />
          </mxGeometry>
        </mxCell>
        <mxCell id="pd1kDjK4zznccs3xAjcE-253" style="shape=tableRow;horizontal=0;startSize=0;swimlaneHead=0;swimlaneBody=0;top=0;left=0;bottom=0;right=0;dropTarget=0;collapsible=0;recursiveResize=0;expand=0;fontStyle=1;strokeColor=inherit;fillColor=#EAF2D3;" vertex="1" parent="pd1kDjK4zznccs3xAjcE-224">
          <mxGeometry y="222" width="580" height="31" as="geometry" />
        </mxCell>
        <mxCell id="pd1kDjK4zznccs3xAjcE-300" value="G" style="connectable=0;recursiveResize=0;strokeColor=inherit;fillColor=inherit;whiteSpace=wrap;html=1;" vertex="1" parent="pd1kDjK4zznccs3xAjcE-253">
          <mxGeometry width="145" height="31" as="geometry">
            <mxRectangle width="145" height="31" as="alternateBounds" />
          </mxGeometry>
        </mxCell>
        <mxCell id="pd1kDjK4zznccs3xAjcE-254" value="阳──阳──上" style="connectable=0;recursiveResize=0;strokeColor=inherit;fillColor=inherit;whiteSpace=wrap;html=1;" vertex="1" parent="pd1kDjK4zznccs3xAjcE-253">
          <mxGeometry x="145" width="144" height="31" as="geometry">
            <mxRectangle width="144" height="31" as="alternateBounds" />
          </mxGeometry>
        </mxCell>
        <mxCell id="pd1kDjK4zznccs3xAjcE-255" value="223" style="connectable=0;recursiveResize=0;strokeColor=inherit;fillColor=inherit;whiteSpace=wrap;html=1;" vertex="1" parent="pd1kDjK4zznccs3xAjcE-253">
          <mxGeometry x="289" width="146" height="31" as="geometry">
            <mxRectangle width="146" height="31" as="alternateBounds" />
          </mxGeometry>
        </mxCell>
        <mxCell id="pd1kDjK4zznccs3xAjcE-256" value="最最佳" style="connectable=0;recursiveResize=0;strokeColor=inherit;fillColor=inherit;whiteSpace=wrap;html=1;" vertex="1" parent="pd1kDjK4zznccs3xAjcE-253">
          <mxGeometry x="435" width="145" height="31" as="geometry">
            <mxRectangle width="145" height="31" as="alternateBounds" />
          </mxGeometry>
        </mxCell>
        <mxCell id="pd1kDjK4zznccs3xAjcE-257" style="shape=tableRow;horizontal=0;startSize=0;swimlaneHead=0;swimlaneBody=0;top=0;left=0;bottom=0;right=0;dropTarget=0;collapsible=0;recursiveResize=0;expand=0;fontStyle=1;strokeColor=inherit;fillColor=#EAF2D3;" vertex="1" parent="pd1kDjK4zznccs3xAjcE-224">
          <mxGeometry y="253" width="580" height="31" as="geometry" />
        </mxCell>
        <mxCell id="pd1kDjK4zznccs3xAjcE-301" value="H" style="connectable=0;recursiveResize=0;strokeColor=inherit;fillColor=inherit;whiteSpace=wrap;html=1;" vertex="1" parent="pd1kDjK4zznccs3xAjcE-257">
          <mxGeometry width="145" height="31" as="geometry">
            <mxRectangle width="145" height="31" as="alternateBounds" />
          </mxGeometry>
        </mxCell>
        <mxCell id="pd1kDjK4zznccs3xAjcE-258" value="阳──阳──去" style="connectable=0;recursiveResize=0;strokeColor=inherit;fillColor=inherit;whiteSpace=wrap;html=1;" vertex="1" parent="pd1kDjK4zznccs3xAjcE-257">
          <mxGeometry x="145" width="144" height="31" as="geometry">
            <mxRectangle width="144" height="31" as="alternateBounds" />
          </mxGeometry>
        </mxCell>
        <mxCell id="pd1kDjK4zznccs3xAjcE-259" value="223" style="connectable=0;recursiveResize=0;strokeColor=inherit;fillColor=inherit;whiteSpace=wrap;html=1;" vertex="1" parent="pd1kDjK4zznccs3xAjcE-257">
          <mxGeometry x="289" width="146" height="31" as="geometry">
            <mxRectangle width="146" height="31" as="alternateBounds" />
          </mxGeometry>
        </mxCell>
        <mxCell id="pd1kDjK4zznccs3xAjcE-260" value="最最佳" style="connectable=0;recursiveResize=0;strokeColor=inherit;fillColor=inherit;whiteSpace=wrap;html=1;" vertex="1" parent="pd1kDjK4zznccs3xAjcE-257">
          <mxGeometry x="435" width="145" height="31" as="geometry">
            <mxRectangle width="145" height="31" as="alternateBounds" />
          </mxGeometry>
        </mxCell>
        <mxCell id="pd1kDjK4zznccs3xAjcE-261" style="shape=tableRow;horizontal=0;startSize=0;swimlaneHead=0;swimlaneBody=0;top=0;left=0;bottom=0;right=0;dropTarget=0;collapsible=0;recursiveResize=0;expand=0;fontStyle=1;strokeColor=inherit;fillColor=#EAF2D3;" vertex="1" parent="pd1kDjK4zznccs3xAjcE-224">
          <mxGeometry y="284" width="580" height="31" as="geometry" />
        </mxCell>
        <mxCell id="pd1kDjK4zznccs3xAjcE-302" value="J" style="connectable=0;recursiveResize=0;strokeColor=inherit;fillColor=inherit;whiteSpace=wrap;html=1;" vertex="1" parent="pd1kDjK4zznccs3xAjcE-261">
          <mxGeometry width="145" height="31" as="geometry">
            <mxRectangle width="145" height="31" as="alternateBounds" />
          </mxGeometry>
        </mxCell>
        <mxCell id="pd1kDjK4zznccs3xAjcE-262" value="阳──上──阴" style="connectable=0;recursiveResize=0;strokeColor=inherit;fillColor=inherit;whiteSpace=wrap;html=1;" vertex="1" parent="pd1kDjK4zznccs3xAjcE-261">
          <mxGeometry x="145" width="144" height="31" as="geometry">
            <mxRectangle width="144" height="31" as="alternateBounds" />
          </mxGeometry>
        </mxCell>
        <mxCell id="pd1kDjK4zznccs3xAjcE-263" value="231" style="connectable=0;recursiveResize=0;strokeColor=inherit;fillColor=inherit;whiteSpace=wrap;html=1;" vertex="1" parent="pd1kDjK4zznccs3xAjcE-261">
          <mxGeometry x="289" width="146" height="31" as="geometry">
            <mxRectangle width="146" height="31" as="alternateBounds" />
          </mxGeometry>
        </mxCell>
        <mxCell id="pd1kDjK4zznccs3xAjcE-264" value="最最佳" style="connectable=0;recursiveResize=0;strokeColor=inherit;fillColor=inherit;whiteSpace=wrap;html=1;" vertex="1" parent="pd1kDjK4zznccs3xAjcE-261">
          <mxGeometry x="435" width="145" height="31" as="geometry">
            <mxRectangle width="145" height="31" as="alternateBounds" />
          </mxGeometry>
        </mxCell>
        <mxCell id="pd1kDjK4zznccs3xAjcE-265" style="shape=tableRow;horizontal=0;startSize=0;swimlaneHead=0;swimlaneBody=0;top=0;left=0;bottom=0;right=0;dropTarget=0;collapsible=0;recursiveResize=0;expand=0;fontStyle=1;strokeColor=inherit;fillColor=#EAF2D3;" vertex="1" parent="pd1kDjK4zznccs3xAjcE-224">
          <mxGeometry y="315" width="580" height="31" as="geometry" />
        </mxCell>
        <mxCell id="pd1kDjK4zznccs3xAjcE-303" value="K" style="connectable=0;recursiveResize=0;strokeColor=inherit;fillColor=inherit;whiteSpace=wrap;html=1;" vertex="1" parent="pd1kDjK4zznccs3xAjcE-265">
          <mxGeometry width="145" height="31" as="geometry">
            <mxRectangle width="145" height="31" as="alternateBounds" />
          </mxGeometry>
        </mxCell>
        <mxCell id="pd1kDjK4zznccs3xAjcE-266" value="阳──上──阳" style="connectable=0;recursiveResize=0;strokeColor=inherit;fillColor=inherit;whiteSpace=wrap;html=1;" vertex="1" parent="pd1kDjK4zznccs3xAjcE-265">
          <mxGeometry x="145" width="144" height="31" as="geometry">
            <mxRectangle width="144" height="31" as="alternateBounds" />
          </mxGeometry>
        </mxCell>
        <mxCell id="pd1kDjK4zznccs3xAjcE-267" value="232" style="connectable=0;recursiveResize=0;strokeColor=inherit;fillColor=inherit;whiteSpace=wrap;html=1;" vertex="1" parent="pd1kDjK4zznccs3xAjcE-265">
          <mxGeometry x="289" width="146" height="31" as="geometry">
            <mxRectangle width="146" height="31" as="alternateBounds" />
          </mxGeometry>
        </mxCell>
        <mxCell id="pd1kDjK4zznccs3xAjcE-268" value="最最佳" style="connectable=0;recursiveResize=0;strokeColor=inherit;fillColor=inherit;whiteSpace=wrap;html=1;" vertex="1" parent="pd1kDjK4zznccs3xAjcE-265">
          <mxGeometry x="435" width="145" height="31" as="geometry">
            <mxRectangle width="145" height="31" as="alternateBounds" />
          </mxGeometry>
        </mxCell>
        <mxCell id="pd1kDjK4zznccs3xAjcE-269" style="shape=tableRow;horizontal=0;startSize=0;swimlaneHead=0;swimlaneBody=0;top=0;left=0;bottom=0;right=0;dropTarget=0;collapsible=0;recursiveResize=0;expand=0;fontStyle=1;strokeColor=inherit;fillColor=#EAF2D3;" vertex="1" parent="pd1kDjK4zznccs3xAjcE-224">
          <mxGeometry y="346" width="580" height="31" as="geometry" />
        </mxCell>
        <mxCell id="pd1kDjK4zznccs3xAjcE-304" value="L" style="connectable=0;recursiveResize=0;strokeColor=inherit;fillColor=inherit;whiteSpace=wrap;html=1;" vertex="1" parent="pd1kDjK4zznccs3xAjcE-269">
          <mxGeometry width="145" height="31" as="geometry">
            <mxRectangle width="145" height="31" as="alternateBounds" />
          </mxGeometry>
        </mxCell>
        <mxCell id="pd1kDjK4zznccs3xAjcE-270" value="阳──上──上" style="connectable=0;recursiveResize=0;strokeColor=inherit;fillColor=inherit;whiteSpace=wrap;html=1;" vertex="1" parent="pd1kDjK4zznccs3xAjcE-269">
          <mxGeometry x="145" width="144" height="31" as="geometry">
            <mxRectangle width="144" height="31" as="alternateBounds" />
          </mxGeometry>
        </mxCell>
        <mxCell id="pd1kDjK4zznccs3xAjcE-271" value="233" style="connectable=0;recursiveResize=0;strokeColor=inherit;fillColor=inherit;whiteSpace=wrap;html=1;" vertex="1" parent="pd1kDjK4zznccs3xAjcE-269">
          <mxGeometry x="289" width="146" height="31" as="geometry">
            <mxRectangle width="146" height="31" as="alternateBounds" />
          </mxGeometry>
        </mxCell>
        <mxCell id="pd1kDjK4zznccs3xAjcE-272" value="差劲" style="connectable=0;recursiveResize=0;strokeColor=inherit;fillColor=inherit;whiteSpace=wrap;html=1;" vertex="1" parent="pd1kDjK4zznccs3xAjcE-269">
          <mxGeometry x="435" width="145" height="31" as="geometry">
            <mxRectangle width="145" height="31" as="alternateBounds" />
          </mxGeometry>
        </mxCell>
        <mxCell id="pd1kDjK4zznccs3xAjcE-273" style="shape=tableRow;horizontal=0;startSize=0;swimlaneHead=0;swimlaneBody=0;top=0;left=0;bottom=0;right=0;dropTarget=0;collapsible=0;recursiveResize=0;expand=0;fontStyle=1;strokeColor=inherit;fillColor=#EAF2D3;" vertex="1" parent="pd1kDjK4zznccs3xAjcE-224">
          <mxGeometry y="377" width="580" height="31" as="geometry" />
        </mxCell>
        <mxCell id="pd1kDjK4zznccs3xAjcE-305" value="M" style="connectable=0;recursiveResize=0;strokeColor=inherit;fillColor=inherit;whiteSpace=wrap;html=1;" vertex="1" parent="pd1kDjK4zznccs3xAjcE-273">
          <mxGeometry width="145" height="31" as="geometry">
            <mxRectangle width="145" height="31" as="alternateBounds" />
          </mxGeometry>
        </mxCell>
        <mxCell id="pd1kDjK4zznccs3xAjcE-274" value="阳──上──去" style="connectable=0;recursiveResize=0;strokeColor=inherit;fillColor=inherit;whiteSpace=wrap;html=1;" vertex="1" parent="pd1kDjK4zznccs3xAjcE-273">
          <mxGeometry x="145" width="144" height="31" as="geometry">
            <mxRectangle width="144" height="31" as="alternateBounds" />
          </mxGeometry>
        </mxCell>
        <mxCell id="pd1kDjK4zznccs3xAjcE-275" value="234" style="connectable=0;recursiveResize=0;strokeColor=inherit;fillColor=inherit;whiteSpace=wrap;html=1;" vertex="1" parent="pd1kDjK4zznccs3xAjcE-273">
          <mxGeometry x="289" width="146" height="31" as="geometry">
            <mxRectangle width="146" height="31" as="alternateBounds" />
          </mxGeometry>
        </mxCell>
        <mxCell id="pd1kDjK4zznccs3xAjcE-276" value="最佳" style="connectable=0;recursiveResize=0;strokeColor=inherit;fillColor=inherit;whiteSpace=wrap;html=1;" vertex="1" parent="pd1kDjK4zznccs3xAjcE-273">
          <mxGeometry x="435" width="145" height="31" as="geometry">
            <mxRectangle width="145" height="31" as="alternateBounds" />
          </mxGeometry>
        </mxCell>
        <mxCell id="pd1kDjK4zznccs3xAjcE-277" style="shape=tableRow;horizontal=0;startSize=0;swimlaneHead=0;swimlaneBody=0;top=0;left=0;bottom=0;right=0;dropTarget=0;collapsible=0;recursiveResize=0;expand=0;fontStyle=1;strokeColor=inherit;fillColor=#EAF2D3;" vertex="1" parent="pd1kDjK4zznccs3xAjcE-224">
          <mxGeometry y="408" width="580" height="31" as="geometry" />
        </mxCell>
        <mxCell id="pd1kDjK4zznccs3xAjcE-306" value="N" style="connectable=0;recursiveResize=0;strokeColor=inherit;fillColor=inherit;whiteSpace=wrap;html=1;" vertex="1" parent="pd1kDjK4zznccs3xAjcE-277">
          <mxGeometry width="145" height="31" as="geometry">
            <mxRectangle width="145" height="31" as="alternateBounds" />
          </mxGeometry>
        </mxCell>
        <mxCell id="pd1kDjK4zznccs3xAjcE-278" value="阳──去──阴" style="connectable=0;recursiveResize=0;strokeColor=inherit;fillColor=inherit;whiteSpace=wrap;html=1;" vertex="1" parent="pd1kDjK4zznccs3xAjcE-277">
          <mxGeometry x="145" width="144" height="31" as="geometry">
            <mxRectangle width="144" height="31" as="alternateBounds" />
          </mxGeometry>
        </mxCell>
        <mxCell id="pd1kDjK4zznccs3xAjcE-279" value="241" style="connectable=0;recursiveResize=0;strokeColor=inherit;fillColor=inherit;whiteSpace=wrap;html=1;" vertex="1" parent="pd1kDjK4zznccs3xAjcE-277">
          <mxGeometry x="289" width="146" height="31" as="geometry">
            <mxRectangle width="146" height="31" as="alternateBounds" />
          </mxGeometry>
        </mxCell>
        <mxCell id="pd1kDjK4zznccs3xAjcE-280" value="最最佳" style="connectable=0;recursiveResize=0;strokeColor=inherit;fillColor=inherit;whiteSpace=wrap;html=1;" vertex="1" parent="pd1kDjK4zznccs3xAjcE-277">
          <mxGeometry x="435" width="145" height="31" as="geometry">
            <mxRectangle width="145" height="31" as="alternateBounds" />
          </mxGeometry>
        </mxCell>
        <mxCell id="pd1kDjK4zznccs3xAjcE-281" style="shape=tableRow;horizontal=0;startSize=0;swimlaneHead=0;swimlaneBody=0;top=0;left=0;bottom=0;right=0;dropTarget=0;collapsible=0;recursiveResize=0;expand=0;fontStyle=1;strokeColor=inherit;fillColor=#EAF2D3;" vertex="1" parent="pd1kDjK4zznccs3xAjcE-224">
          <mxGeometry y="439" width="580" height="31" as="geometry" />
        </mxCell>
        <mxCell id="pd1kDjK4zznccs3xAjcE-307" value="O" style="connectable=0;recursiveResize=0;strokeColor=inherit;fillColor=inherit;whiteSpace=wrap;html=1;" vertex="1" parent="pd1kDjK4zznccs3xAjcE-281">
          <mxGeometry width="145" height="31" as="geometry">
            <mxRectangle width="145" height="31" as="alternateBounds" />
          </mxGeometry>
        </mxCell>
        <mxCell id="pd1kDjK4zznccs3xAjcE-282" value="阳──去──阳" style="connectable=0;recursiveResize=0;strokeColor=inherit;fillColor=inherit;whiteSpace=wrap;html=1;" vertex="1" parent="pd1kDjK4zznccs3xAjcE-281">
          <mxGeometry x="145" width="144" height="31" as="geometry">
            <mxRectangle width="144" height="31" as="alternateBounds" />
          </mxGeometry>
        </mxCell>
        <mxCell id="pd1kDjK4zznccs3xAjcE-283" value="242" style="connectable=0;recursiveResize=0;strokeColor=inherit;fillColor=inherit;whiteSpace=wrap;html=1;" vertex="1" parent="pd1kDjK4zznccs3xAjcE-281">
          <mxGeometry x="289" width="146" height="31" as="geometry">
            <mxRectangle width="146" height="31" as="alternateBounds" />
          </mxGeometry>
        </mxCell>
        <mxCell id="pd1kDjK4zznccs3xAjcE-284" value="最最佳" style="connectable=0;recursiveResize=0;strokeColor=inherit;fillColor=inherit;whiteSpace=wrap;html=1;" vertex="1" parent="pd1kDjK4zznccs3xAjcE-281">
          <mxGeometry x="435" width="145" height="31" as="geometry">
            <mxRectangle width="145" height="31" as="alternateBounds" />
          </mxGeometry>
        </mxCell>
        <mxCell id="pd1kDjK4zznccs3xAjcE-285" style="shape=tableRow;horizontal=0;startSize=0;swimlaneHead=0;swimlaneBody=0;top=0;left=0;bottom=0;right=0;dropTarget=0;collapsible=0;recursiveResize=0;expand=0;fontStyle=1;strokeColor=inherit;fillColor=#EAF2D3;" vertex="1" parent="pd1kDjK4zznccs3xAjcE-224">
          <mxGeometry y="470" width="580" height="31" as="geometry" />
        </mxCell>
        <mxCell id="pd1kDjK4zznccs3xAjcE-308" value="P" style="connectable=0;recursiveResize=0;strokeColor=inherit;fillColor=inherit;whiteSpace=wrap;html=1;" vertex="1" parent="pd1kDjK4zznccs3xAjcE-285">
          <mxGeometry width="145" height="31" as="geometry">
            <mxRectangle width="145" height="31" as="alternateBounds" />
          </mxGeometry>
        </mxCell>
        <mxCell id="pd1kDjK4zznccs3xAjcE-286" value="阳──去──上" style="connectable=0;recursiveResize=0;strokeColor=inherit;fillColor=inherit;whiteSpace=wrap;html=1;" vertex="1" parent="pd1kDjK4zznccs3xAjcE-285">
          <mxGeometry x="145" width="144" height="31" as="geometry">
            <mxRectangle width="144" height="31" as="alternateBounds" />
          </mxGeometry>
        </mxCell>
        <mxCell id="pd1kDjK4zznccs3xAjcE-287" value="243" style="connectable=0;recursiveResize=0;strokeColor=inherit;fillColor=inherit;whiteSpace=wrap;html=1;" vertex="1" parent="pd1kDjK4zznccs3xAjcE-285">
          <mxGeometry x="289" width="146" height="31" as="geometry">
            <mxRectangle width="146" height="31" as="alternateBounds" />
          </mxGeometry>
        </mxCell>
        <mxCell id="pd1kDjK4zznccs3xAjcE-288" value="最最佳" style="connectable=0;recursiveResize=0;strokeColor=inherit;fillColor=inherit;whiteSpace=wrap;html=1;" vertex="1" parent="pd1kDjK4zznccs3xAjcE-285">
          <mxGeometry x="435" width="145" height="31" as="geometry">
            <mxRectangle width="145" height="31" as="alternateBounds" />
          </mxGeometry>
        </mxCell>
        <mxCell id="pd1kDjK4zznccs3xAjcE-289" style="shape=tableRow;horizontal=0;startSize=0;swimlaneHead=0;swimlaneBody=0;top=0;left=0;bottom=0;right=0;dropTarget=0;collapsible=0;recursiveResize=0;expand=0;fontStyle=1;strokeColor=inherit;fillColor=#EAF2D3;" vertex="1" parent="pd1kDjK4zznccs3xAjcE-224">
          <mxGeometry y="501" width="580" height="31" as="geometry" />
        </mxCell>
        <mxCell id="pd1kDjK4zznccs3xAjcE-309" value="Q" style="connectable=0;recursiveResize=0;strokeColor=inherit;fillColor=inherit;whiteSpace=wrap;html=1;" vertex="1" parent="pd1kDjK4zznccs3xAjcE-289">
          <mxGeometry width="145" height="31" as="geometry">
            <mxRectangle width="145" height="31" as="alternateBounds" />
          </mxGeometry>
        </mxCell>
        <mxCell id="pd1kDjK4zznccs3xAjcE-290" value="阳──去──去" style="connectable=0;recursiveResize=0;strokeColor=inherit;fillColor=inherit;whiteSpace=wrap;html=1;" vertex="1" parent="pd1kDjK4zznccs3xAjcE-289">
          <mxGeometry x="145" width="144" height="31" as="geometry">
            <mxRectangle width="144" height="31" as="alternateBounds" />
          </mxGeometry>
        </mxCell>
        <mxCell id="pd1kDjK4zznccs3xAjcE-291" value="244" style="connectable=0;recursiveResize=0;strokeColor=inherit;fillColor=inherit;whiteSpace=wrap;html=1;" vertex="1" parent="pd1kDjK4zznccs3xAjcE-289">
          <mxGeometry x="289" width="146" height="31" as="geometry">
            <mxRectangle width="146" height="31" as="alternateBounds" />
          </mxGeometry>
        </mxCell>
        <mxCell id="pd1kDjK4zznccs3xAjcE-292" value="差劲" style="connectable=0;recursiveResize=0;strokeColor=inherit;fillColor=inherit;whiteSpace=wrap;html=1;" vertex="1" parent="pd1kDjK4zznccs3xAjcE-289">
          <mxGeometry x="435" width="145" height="31" as="geometry">
            <mxRectangle width="145" height="31" as="alternateBounds" />
          </mxGeometry>
        </mxCell>
        <mxCell id="pd1kDjK4zznccs3xAjcE-310" value="Assets" style="childLayout=tableLayout;recursiveResize=0;strokeColor=#98bf21;fillColor=#A7C942;shadow=1;" vertex="1" parent="1">
          <mxGeometry x="160" y="1754" width="510" height="519" as="geometry" />
        </mxCell>
        <mxCell id="pd1kDjK4zznccs3xAjcE-311" style="shape=tableRow;horizontal=0;startSize=0;swimlaneHead=0;swimlaneBody=0;top=0;left=0;bottom=0;right=0;dropTarget=0;collapsible=0;recursiveResize=0;expand=0;fontStyle=0;strokeColor=inherit;fillColor=#ffffff;" vertex="1" parent="pd1kDjK4zznccs3xAjcE-310">
          <mxGeometry width="510" height="20" as="geometry" />
        </mxCell>
        <mxCell id="pd1kDjK4zznccs3xAjcE-312" value="字母" style="connectable=0;recursiveResize=0;strokeColor=inherit;fillColor=#A7C942;align=center;fontStyle=1;fontColor=#FFFFFF;html=1;" vertex="1" parent="pd1kDjK4zznccs3xAjcE-311">
          <mxGeometry width="127" height="20" as="geometry">
            <mxRectangle width="127" height="20" as="alternateBounds" />
          </mxGeometry>
        </mxCell>
        <mxCell id="pd1kDjK4zznccs3xAjcE-313" value="三字" style="connectable=0;recursiveResize=0;strokeColor=inherit;fillColor=#A7C942;align=center;fontStyle=1;fontColor=#FFFFFF;html=1;" vertex="1" parent="pd1kDjK4zznccs3xAjcE-311">
          <mxGeometry x="127" width="127" height="20" as="geometry">
            <mxRectangle width="127" height="20" as="alternateBounds" />
          </mxGeometry>
        </mxCell>
        <mxCell id="pd1kDjK4zznccs3xAjcE-314" value="Title 2" style="connectable=0;recursiveResize=0;strokeColor=inherit;fillColor=#A7C942;align=center;fontStyle=1;fontColor=#FFFFFF;html=1;" vertex="1" parent="pd1kDjK4zznccs3xAjcE-311">
          <mxGeometry x="254" width="129" height="20" as="geometry">
            <mxRectangle width="129" height="20" as="alternateBounds" />
          </mxGeometry>
        </mxCell>
        <mxCell id="pd1kDjK4zznccs3xAjcE-315" value="Title 3" style="connectable=0;recursiveResize=0;strokeColor=inherit;fillColor=#A7C942;align=center;fontStyle=1;fontColor=#FFFFFF;html=1;" vertex="1" parent="pd1kDjK4zznccs3xAjcE-311">
          <mxGeometry x="383" width="127" height="20" as="geometry">
            <mxRectangle width="127" height="20" as="alternateBounds" />
          </mxGeometry>
        </mxCell>
        <mxCell id="pd1kDjK4zznccs3xAjcE-316" value="" style="shape=tableRow;horizontal=0;startSize=0;swimlaneHead=0;swimlaneBody=0;top=0;left=0;bottom=0;right=0;dropTarget=0;collapsible=0;recursiveResize=0;expand=0;fontStyle=0;strokeColor=inherit;fillColor=#ffffff;" vertex="1" parent="pd1kDjK4zznccs3xAjcE-310">
          <mxGeometry y="20" width="510" height="32" as="geometry" />
        </mxCell>
        <mxCell id="pd1kDjK4zznccs3xAjcE-317" value="A" style="connectable=0;recursiveResize=0;strokeColor=#b85450;fillColor=#eaf1d5;align=center;whiteSpace=wrap;html=1;" vertex="1" parent="pd1kDjK4zznccs3xAjcE-316">
          <mxGeometry width="127" height="32" as="geometry">
            <mxRectangle width="127" height="32" as="alternateBounds" />
          </mxGeometry>
        </mxCell>
        <mxCell id="pd1kDjK4zznccs3xAjcE-318" value="上──阴──阴" style="connectable=0;recursiveResize=0;strokeColor=#b85450;fillColor=#eaf1d5;align=center;whiteSpace=wrap;html=1;" vertex="1" parent="pd1kDjK4zznccs3xAjcE-316">
          <mxGeometry x="127" width="127" height="32" as="geometry">
            <mxRectangle width="127" height="32" as="alternateBounds" />
          </mxGeometry>
        </mxCell>
        <mxCell id="pd1kDjK4zznccs3xAjcE-319" value="311" style="connectable=0;recursiveResize=0;strokeColor=#b85450;fillColor=#eaf1d5;align=center;whiteSpace=wrap;html=1;" vertex="1" parent="pd1kDjK4zznccs3xAjcE-316">
          <mxGeometry x="254" width="129" height="32" as="geometry">
            <mxRectangle width="129" height="32" as="alternateBounds" />
          </mxGeometry>
        </mxCell>
        <mxCell id="pd1kDjK4zznccs3xAjcE-320" value="差劲" style="connectable=0;recursiveResize=0;strokeColor=#b85450;fillColor=#eaf1d5;align=center;whiteSpace=wrap;html=1;" vertex="1" parent="pd1kDjK4zznccs3xAjcE-316">
          <mxGeometry x="383" width="127" height="32" as="geometry">
            <mxRectangle width="127" height="32" as="alternateBounds" />
          </mxGeometry>
        </mxCell>
        <mxCell id="pd1kDjK4zznccs3xAjcE-321" value="" style="shape=tableRow;horizontal=0;startSize=0;swimlaneHead=0;swimlaneBody=0;top=0;left=0;bottom=0;right=0;dropTarget=0;collapsible=0;recursiveResize=0;expand=0;fontStyle=1;strokeColor=inherit;fillColor=#EAF2D3;" vertex="1" parent="pd1kDjK4zznccs3xAjcE-310">
          <mxGeometry y="52" width="510" height="31" as="geometry" />
        </mxCell>
        <mxCell id="pd1kDjK4zznccs3xAjcE-322" value="B" style="connectable=0;recursiveResize=0;strokeColor=inherit;fillColor=inherit;whiteSpace=wrap;html=1;" vertex="1" parent="pd1kDjK4zznccs3xAjcE-321">
          <mxGeometry width="127" height="31" as="geometry">
            <mxRectangle width="127" height="31" as="alternateBounds" />
          </mxGeometry>
        </mxCell>
        <mxCell id="pd1kDjK4zznccs3xAjcE-323" value="上──阴──阳" style="connectable=0;recursiveResize=0;strokeColor=inherit;fillColor=inherit;whiteSpace=wrap;html=1;" vertex="1" parent="pd1kDjK4zznccs3xAjcE-321">
          <mxGeometry x="127" width="127" height="31" as="geometry">
            <mxRectangle width="127" height="31" as="alternateBounds" />
          </mxGeometry>
        </mxCell>
        <mxCell id="pd1kDjK4zznccs3xAjcE-324" value="312" style="connectable=0;recursiveResize=0;strokeColor=inherit;fillColor=inherit;whiteSpace=wrap;html=1;" vertex="1" parent="pd1kDjK4zznccs3xAjcE-321">
          <mxGeometry x="254" width="129" height="31" as="geometry">
            <mxRectangle width="129" height="31" as="alternateBounds" />
          </mxGeometry>
        </mxCell>
        <mxCell id="pd1kDjK4zznccs3xAjcE-325" value="差劲" style="connectable=0;recursiveResize=0;strokeColor=inherit;fillColor=inherit;whiteSpace=wrap;html=1;" vertex="1" parent="pd1kDjK4zznccs3xAjcE-321">
          <mxGeometry x="383" width="127" height="31" as="geometry">
            <mxRectangle width="127" height="31" as="alternateBounds" />
          </mxGeometry>
        </mxCell>
        <mxCell id="pd1kDjK4zznccs3xAjcE-326" value="" style="shape=tableRow;horizontal=0;startSize=0;swimlaneHead=0;swimlaneBody=0;top=0;left=0;bottom=0;right=0;dropTarget=0;collapsible=0;recursiveResize=0;expand=0;fontStyle=0;strokeColor=inherit;fillColor=#ffffff;" vertex="1" parent="pd1kDjK4zznccs3xAjcE-310">
          <mxGeometry y="83" width="510" height="33" as="geometry" />
        </mxCell>
        <mxCell id="pd1kDjK4zznccs3xAjcE-327" value="C" style="connectable=0;recursiveResize=0;strokeColor=inherit;fillColor=inherit;fontStyle=0;align=center;whiteSpace=wrap;html=1;" vertex="1" parent="pd1kDjK4zznccs3xAjcE-326">
          <mxGeometry width="127" height="33" as="geometry">
            <mxRectangle width="127" height="33" as="alternateBounds" />
          </mxGeometry>
        </mxCell>
        <mxCell id="pd1kDjK4zznccs3xAjcE-328" value="上──阴──上" style="connectable=0;recursiveResize=0;strokeColor=inherit;fillColor=inherit;fontStyle=0;align=center;whiteSpace=wrap;html=1;" vertex="1" parent="pd1kDjK4zznccs3xAjcE-326">
          <mxGeometry x="127" width="127" height="33" as="geometry">
            <mxRectangle width="127" height="33" as="alternateBounds" />
          </mxGeometry>
        </mxCell>
        <mxCell id="pd1kDjK4zznccs3xAjcE-329" value="313" style="connectable=0;recursiveResize=0;strokeColor=inherit;fillColor=inherit;fontStyle=0;align=center;whiteSpace=wrap;html=1;" vertex="1" parent="pd1kDjK4zznccs3xAjcE-326">
          <mxGeometry x="254" width="129" height="33" as="geometry">
            <mxRectangle width="129" height="33" as="alternateBounds" />
          </mxGeometry>
        </mxCell>
        <mxCell id="pd1kDjK4zznccs3xAjcE-330" value="差劲" style="connectable=0;recursiveResize=0;strokeColor=inherit;fillColor=inherit;fontStyle=0;align=center;whiteSpace=wrap;html=1;" vertex="1" parent="pd1kDjK4zznccs3xAjcE-326">
          <mxGeometry x="383" width="127" height="33" as="geometry">
            <mxRectangle width="127" height="33" as="alternateBounds" />
          </mxGeometry>
        </mxCell>
        <mxCell id="pd1kDjK4zznccs3xAjcE-331" value="" style="shape=tableRow;horizontal=0;startSize=0;swimlaneHead=0;swimlaneBody=0;top=0;left=0;bottom=0;right=0;dropTarget=0;collapsible=0;recursiveResize=0;expand=0;fontStyle=1;strokeColor=inherit;fillColor=#EAF2D3;" vertex="1" parent="pd1kDjK4zznccs3xAjcE-310">
          <mxGeometry y="116" width="510" height="31" as="geometry" />
        </mxCell>
        <mxCell id="pd1kDjK4zznccs3xAjcE-332" value="D" style="connectable=0;recursiveResize=0;strokeColor=inherit;fillColor=inherit;whiteSpace=wrap;html=1;" vertex="1" parent="pd1kDjK4zznccs3xAjcE-331">
          <mxGeometry width="127" height="31" as="geometry">
            <mxRectangle width="127" height="31" as="alternateBounds" />
          </mxGeometry>
        </mxCell>
        <mxCell id="pd1kDjK4zznccs3xAjcE-333" value="上──阴──去" style="connectable=0;recursiveResize=0;strokeColor=inherit;fillColor=inherit;whiteSpace=wrap;html=1;" vertex="1" parent="pd1kDjK4zznccs3xAjcE-331">
          <mxGeometry x="127" width="127" height="31" as="geometry">
            <mxRectangle width="127" height="31" as="alternateBounds" />
          </mxGeometry>
        </mxCell>
        <mxCell id="pd1kDjK4zznccs3xAjcE-334" value="314" style="connectable=0;recursiveResize=0;strokeColor=inherit;fillColor=inherit;whiteSpace=wrap;html=1;" vertex="1" parent="pd1kDjK4zznccs3xAjcE-331">
          <mxGeometry x="254" width="129" height="31" as="geometry">
            <mxRectangle width="129" height="31" as="alternateBounds" />
          </mxGeometry>
        </mxCell>
        <mxCell id="pd1kDjK4zznccs3xAjcE-335" value="差劲" style="connectable=0;recursiveResize=0;strokeColor=inherit;fillColor=inherit;whiteSpace=wrap;html=1;" vertex="1" parent="pd1kDjK4zznccs3xAjcE-331">
          <mxGeometry x="383" width="127" height="31" as="geometry">
            <mxRectangle width="127" height="31" as="alternateBounds" />
          </mxGeometry>
        </mxCell>
        <mxCell id="pd1kDjK4zznccs3xAjcE-336" style="shape=tableRow;horizontal=0;startSize=0;swimlaneHead=0;swimlaneBody=0;top=0;left=0;bottom=0;right=0;dropTarget=0;collapsible=0;recursiveResize=0;expand=0;fontStyle=1;strokeColor=inherit;fillColor=#EAF2D3;" vertex="1" parent="pd1kDjK4zznccs3xAjcE-310">
          <mxGeometry y="147" width="510" height="31" as="geometry" />
        </mxCell>
        <mxCell id="pd1kDjK4zznccs3xAjcE-337" value="E" style="connectable=0;recursiveResize=0;strokeColor=inherit;fillColor=inherit;whiteSpace=wrap;html=1;" vertex="1" parent="pd1kDjK4zznccs3xAjcE-336">
          <mxGeometry width="127" height="31" as="geometry">
            <mxRectangle width="127" height="31" as="alternateBounds" />
          </mxGeometry>
        </mxCell>
        <mxCell id="pd1kDjK4zznccs3xAjcE-338" value="上──阳──阴" style="connectable=0;recursiveResize=0;strokeColor=inherit;fillColor=inherit;whiteSpace=wrap;html=1;" vertex="1" parent="pd1kDjK4zznccs3xAjcE-336">
          <mxGeometry x="127" width="127" height="31" as="geometry">
            <mxRectangle width="127" height="31" as="alternateBounds" />
          </mxGeometry>
        </mxCell>
        <mxCell id="pd1kDjK4zznccs3xAjcE-339" value="321" style="connectable=0;recursiveResize=0;strokeColor=inherit;fillColor=inherit;whiteSpace=wrap;html=1;" vertex="1" parent="pd1kDjK4zznccs3xAjcE-336">
          <mxGeometry x="254" width="129" height="31" as="geometry">
            <mxRectangle width="129" height="31" as="alternateBounds" />
          </mxGeometry>
        </mxCell>
        <mxCell id="pd1kDjK4zznccs3xAjcE-340" value="最最佳" style="connectable=0;recursiveResize=0;strokeColor=inherit;fillColor=inherit;whiteSpace=wrap;html=1;" vertex="1" parent="pd1kDjK4zznccs3xAjcE-336">
          <mxGeometry x="383" width="127" height="31" as="geometry">
            <mxRectangle width="127" height="31" as="alternateBounds" />
          </mxGeometry>
        </mxCell>
        <mxCell id="pd1kDjK4zznccs3xAjcE-341" style="shape=tableRow;horizontal=0;startSize=0;swimlaneHead=0;swimlaneBody=0;top=0;left=0;bottom=0;right=0;dropTarget=0;collapsible=0;recursiveResize=0;expand=0;fontStyle=1;strokeColor=inherit;fillColor=#EAF2D3;" vertex="1" parent="pd1kDjK4zznccs3xAjcE-310">
          <mxGeometry y="178" width="510" height="31" as="geometry" />
        </mxCell>
        <mxCell id="pd1kDjK4zznccs3xAjcE-342" value="F" style="connectable=0;recursiveResize=0;strokeColor=inherit;fillColor=inherit;whiteSpace=wrap;html=1;" vertex="1" parent="pd1kDjK4zznccs3xAjcE-341">
          <mxGeometry width="127" height="31" as="geometry">
            <mxRectangle width="127" height="31" as="alternateBounds" />
          </mxGeometry>
        </mxCell>
        <mxCell id="pd1kDjK4zznccs3xAjcE-343" value="上──阳──阳" style="connectable=0;recursiveResize=0;strokeColor=inherit;fillColor=inherit;whiteSpace=wrap;html=1;" vertex="1" parent="pd1kDjK4zznccs3xAjcE-341">
          <mxGeometry x="127" width="127" height="31" as="geometry">
            <mxRectangle width="127" height="31" as="alternateBounds" />
          </mxGeometry>
        </mxCell>
        <mxCell id="pd1kDjK4zznccs3xAjcE-344" value="322" style="connectable=0;recursiveResize=0;strokeColor=inherit;fillColor=inherit;whiteSpace=wrap;html=1;" vertex="1" parent="pd1kDjK4zznccs3xAjcE-341">
          <mxGeometry x="254" width="129" height="31" as="geometry">
            <mxRectangle width="129" height="31" as="alternateBounds" />
          </mxGeometry>
        </mxCell>
        <mxCell id="pd1kDjK4zznccs3xAjcE-345" value="最最佳" style="connectable=0;recursiveResize=0;strokeColor=inherit;fillColor=inherit;whiteSpace=wrap;html=1;" vertex="1" parent="pd1kDjK4zznccs3xAjcE-341">
          <mxGeometry x="383" width="127" height="31" as="geometry">
            <mxRectangle width="127" height="31" as="alternateBounds" />
          </mxGeometry>
        </mxCell>
        <mxCell id="pd1kDjK4zznccs3xAjcE-346" style="shape=tableRow;horizontal=0;startSize=0;swimlaneHead=0;swimlaneBody=0;top=0;left=0;bottom=0;right=0;dropTarget=0;collapsible=0;recursiveResize=0;expand=0;fontStyle=1;strokeColor=inherit;fillColor=#EAF2D3;" vertex="1" parent="pd1kDjK4zznccs3xAjcE-310">
          <mxGeometry y="209" width="510" height="31" as="geometry" />
        </mxCell>
        <mxCell id="pd1kDjK4zznccs3xAjcE-347" value="G" style="connectable=0;recursiveResize=0;strokeColor=inherit;fillColor=inherit;whiteSpace=wrap;html=1;" vertex="1" parent="pd1kDjK4zznccs3xAjcE-346">
          <mxGeometry width="127" height="31" as="geometry">
            <mxRectangle width="127" height="31" as="alternateBounds" />
          </mxGeometry>
        </mxCell>
        <mxCell id="pd1kDjK4zznccs3xAjcE-348" value="上──阳──上" style="connectable=0;recursiveResize=0;strokeColor=inherit;fillColor=inherit;whiteSpace=wrap;html=1;" vertex="1" parent="pd1kDjK4zznccs3xAjcE-346">
          <mxGeometry x="127" width="127" height="31" as="geometry">
            <mxRectangle width="127" height="31" as="alternateBounds" />
          </mxGeometry>
        </mxCell>
        <mxCell id="pd1kDjK4zznccs3xAjcE-349" value="323" style="connectable=0;recursiveResize=0;strokeColor=inherit;fillColor=inherit;whiteSpace=wrap;html=1;" vertex="1" parent="pd1kDjK4zznccs3xAjcE-346">
          <mxGeometry x="254" width="129" height="31" as="geometry">
            <mxRectangle width="129" height="31" as="alternateBounds" />
          </mxGeometry>
        </mxCell>
        <mxCell id="pd1kDjK4zznccs3xAjcE-350" value="最最佳" style="connectable=0;recursiveResize=0;strokeColor=inherit;fillColor=inherit;whiteSpace=wrap;html=1;" vertex="1" parent="pd1kDjK4zznccs3xAjcE-346">
          <mxGeometry x="383" width="127" height="31" as="geometry">
            <mxRectangle width="127" height="31" as="alternateBounds" />
          </mxGeometry>
        </mxCell>
        <mxCell id="pd1kDjK4zznccs3xAjcE-351" style="shape=tableRow;horizontal=0;startSize=0;swimlaneHead=0;swimlaneBody=0;top=0;left=0;bottom=0;right=0;dropTarget=0;collapsible=0;recursiveResize=0;expand=0;fontStyle=1;strokeColor=inherit;fillColor=#EAF2D3;" vertex="1" parent="pd1kDjK4zznccs3xAjcE-310">
          <mxGeometry y="240" width="510" height="31" as="geometry" />
        </mxCell>
        <mxCell id="pd1kDjK4zznccs3xAjcE-352" value="H" style="connectable=0;recursiveResize=0;strokeColor=inherit;fillColor=inherit;whiteSpace=wrap;html=1;" vertex="1" parent="pd1kDjK4zznccs3xAjcE-351">
          <mxGeometry width="127" height="31" as="geometry">
            <mxRectangle width="127" height="31" as="alternateBounds" />
          </mxGeometry>
        </mxCell>
        <mxCell id="pd1kDjK4zznccs3xAjcE-353" value="上──阳──去" style="connectable=0;recursiveResize=0;strokeColor=inherit;fillColor=inherit;whiteSpace=wrap;html=1;" vertex="1" parent="pd1kDjK4zznccs3xAjcE-351">
          <mxGeometry x="127" width="127" height="31" as="geometry">
            <mxRectangle width="127" height="31" as="alternateBounds" />
          </mxGeometry>
        </mxCell>
        <mxCell id="pd1kDjK4zznccs3xAjcE-354" value="323" style="connectable=0;recursiveResize=0;strokeColor=inherit;fillColor=inherit;whiteSpace=wrap;html=1;" vertex="1" parent="pd1kDjK4zznccs3xAjcE-351">
          <mxGeometry x="254" width="129" height="31" as="geometry">
            <mxRectangle width="129" height="31" as="alternateBounds" />
          </mxGeometry>
        </mxCell>
        <mxCell id="pd1kDjK4zznccs3xAjcE-355" value="最最佳" style="connectable=0;recursiveResize=0;strokeColor=inherit;fillColor=inherit;whiteSpace=wrap;html=1;" vertex="1" parent="pd1kDjK4zznccs3xAjcE-351">
          <mxGeometry x="383" width="127" height="31" as="geometry">
            <mxRectangle width="127" height="31" as="alternateBounds" />
          </mxGeometry>
        </mxCell>
        <mxCell id="pd1kDjK4zznccs3xAjcE-356" style="shape=tableRow;horizontal=0;startSize=0;swimlaneHead=0;swimlaneBody=0;top=0;left=0;bottom=0;right=0;dropTarget=0;collapsible=0;recursiveResize=0;expand=0;fontStyle=1;strokeColor=inherit;fillColor=#EAF2D3;" vertex="1" parent="pd1kDjK4zznccs3xAjcE-310">
          <mxGeometry y="271" width="510" height="31" as="geometry" />
        </mxCell>
        <mxCell id="pd1kDjK4zznccs3xAjcE-357" value="J" style="connectable=0;recursiveResize=0;strokeColor=inherit;fillColor=inherit;whiteSpace=wrap;html=1;" vertex="1" parent="pd1kDjK4zznccs3xAjcE-356">
          <mxGeometry width="127" height="31" as="geometry">
            <mxRectangle width="127" height="31" as="alternateBounds" />
          </mxGeometry>
        </mxCell>
        <mxCell id="pd1kDjK4zznccs3xAjcE-358" value="上──上──阴" style="connectable=0;recursiveResize=0;strokeColor=inherit;fillColor=inherit;whiteSpace=wrap;html=1;" vertex="1" parent="pd1kDjK4zznccs3xAjcE-356">
          <mxGeometry x="127" width="127" height="31" as="geometry">
            <mxRectangle width="127" height="31" as="alternateBounds" />
          </mxGeometry>
        </mxCell>
        <mxCell id="pd1kDjK4zznccs3xAjcE-359" value="331" style="connectable=0;recursiveResize=0;strokeColor=inherit;fillColor=inherit;whiteSpace=wrap;html=1;" vertex="1" parent="pd1kDjK4zznccs3xAjcE-356">
          <mxGeometry x="254" width="129" height="31" as="geometry">
            <mxRectangle width="129" height="31" as="alternateBounds" />
          </mxGeometry>
        </mxCell>
        <mxCell id="pd1kDjK4zznccs3xAjcE-360" value="最最佳" style="connectable=0;recursiveResize=0;strokeColor=inherit;fillColor=inherit;whiteSpace=wrap;html=1;" vertex="1" parent="pd1kDjK4zznccs3xAjcE-356">
          <mxGeometry x="383" width="127" height="31" as="geometry">
            <mxRectangle width="127" height="31" as="alternateBounds" />
          </mxGeometry>
        </mxCell>
        <mxCell id="pd1kDjK4zznccs3xAjcE-361" style="shape=tableRow;horizontal=0;startSize=0;swimlaneHead=0;swimlaneBody=0;top=0;left=0;bottom=0;right=0;dropTarget=0;collapsible=0;recursiveResize=0;expand=0;fontStyle=1;strokeColor=inherit;fillColor=#EAF2D3;" vertex="1" parent="pd1kDjK4zznccs3xAjcE-310">
          <mxGeometry y="302" width="510" height="31" as="geometry" />
        </mxCell>
        <mxCell id="pd1kDjK4zznccs3xAjcE-362" value="K" style="connectable=0;recursiveResize=0;strokeColor=inherit;fillColor=inherit;whiteSpace=wrap;html=1;" vertex="1" parent="pd1kDjK4zznccs3xAjcE-361">
          <mxGeometry width="127" height="31" as="geometry">
            <mxRectangle width="127" height="31" as="alternateBounds" />
          </mxGeometry>
        </mxCell>
        <mxCell id="pd1kDjK4zznccs3xAjcE-363" value="上──上──阳" style="connectable=0;recursiveResize=0;strokeColor=inherit;fillColor=inherit;whiteSpace=wrap;html=1;" vertex="1" parent="pd1kDjK4zznccs3xAjcE-361">
          <mxGeometry x="127" width="127" height="31" as="geometry">
            <mxRectangle width="127" height="31" as="alternateBounds" />
          </mxGeometry>
        </mxCell>
        <mxCell id="pd1kDjK4zznccs3xAjcE-364" value="332" style="connectable=0;recursiveResize=0;strokeColor=inherit;fillColor=inherit;whiteSpace=wrap;html=1;" vertex="1" parent="pd1kDjK4zznccs3xAjcE-361">
          <mxGeometry x="254" width="129" height="31" as="geometry">
            <mxRectangle width="129" height="31" as="alternateBounds" />
          </mxGeometry>
        </mxCell>
        <mxCell id="pd1kDjK4zznccs3xAjcE-365" value="最佳" style="connectable=0;recursiveResize=0;strokeColor=inherit;fillColor=inherit;whiteSpace=wrap;html=1;" vertex="1" parent="pd1kDjK4zznccs3xAjcE-361">
          <mxGeometry x="383" width="127" height="31" as="geometry">
            <mxRectangle width="127" height="31" as="alternateBounds" />
          </mxGeometry>
        </mxCell>
        <mxCell id="pd1kDjK4zznccs3xAjcE-366" style="shape=tableRow;horizontal=0;startSize=0;swimlaneHead=0;swimlaneBody=0;top=0;left=0;bottom=0;right=0;dropTarget=0;collapsible=0;recursiveResize=0;expand=0;fontStyle=1;strokeColor=inherit;fillColor=#EAF2D3;" vertex="1" parent="pd1kDjK4zznccs3xAjcE-310">
          <mxGeometry y="333" width="510" height="31" as="geometry" />
        </mxCell>
        <mxCell id="pd1kDjK4zznccs3xAjcE-367" value="L" style="connectable=0;recursiveResize=0;strokeColor=inherit;fillColor=inherit;whiteSpace=wrap;html=1;" vertex="1" parent="pd1kDjK4zznccs3xAjcE-366">
          <mxGeometry width="127" height="31" as="geometry">
            <mxRectangle width="127" height="31" as="alternateBounds" />
          </mxGeometry>
        </mxCell>
        <mxCell id="pd1kDjK4zznccs3xAjcE-368" value="上──上──上" style="connectable=0;recursiveResize=0;strokeColor=inherit;fillColor=inherit;whiteSpace=wrap;html=1;" vertex="1" parent="pd1kDjK4zznccs3xAjcE-366">
          <mxGeometry x="127" width="127" height="31" as="geometry">
            <mxRectangle width="127" height="31" as="alternateBounds" />
          </mxGeometry>
        </mxCell>
        <mxCell id="pd1kDjK4zznccs3xAjcE-369" value="333" style="connectable=0;recursiveResize=0;strokeColor=inherit;fillColor=inherit;whiteSpace=wrap;html=1;" vertex="1" parent="pd1kDjK4zznccs3xAjcE-366">
          <mxGeometry x="254" width="129" height="31" as="geometry">
            <mxRectangle width="129" height="31" as="alternateBounds" />
          </mxGeometry>
        </mxCell>
        <mxCell id="pd1kDjK4zznccs3xAjcE-370" value="最佳" style="connectable=0;recursiveResize=0;strokeColor=inherit;fillColor=inherit;whiteSpace=wrap;html=1;" vertex="1" parent="pd1kDjK4zznccs3xAjcE-366">
          <mxGeometry x="383" width="127" height="31" as="geometry">
            <mxRectangle width="127" height="31" as="alternateBounds" />
          </mxGeometry>
        </mxCell>
        <mxCell id="pd1kDjK4zznccs3xAjcE-371" style="shape=tableRow;horizontal=0;startSize=0;swimlaneHead=0;swimlaneBody=0;top=0;left=0;bottom=0;right=0;dropTarget=0;collapsible=0;recursiveResize=0;expand=0;fontStyle=1;strokeColor=inherit;fillColor=#EAF2D3;" vertex="1" parent="pd1kDjK4zznccs3xAjcE-310">
          <mxGeometry y="364" width="510" height="31" as="geometry" />
        </mxCell>
        <mxCell id="pd1kDjK4zznccs3xAjcE-372" value="M" style="connectable=0;recursiveResize=0;strokeColor=inherit;fillColor=inherit;whiteSpace=wrap;html=1;" vertex="1" parent="pd1kDjK4zznccs3xAjcE-371">
          <mxGeometry width="127" height="31" as="geometry">
            <mxRectangle width="127" height="31" as="alternateBounds" />
          </mxGeometry>
        </mxCell>
        <mxCell id="pd1kDjK4zznccs3xAjcE-373" value="上──上──去" style="connectable=0;recursiveResize=0;strokeColor=inherit;fillColor=inherit;whiteSpace=wrap;html=1;" vertex="1" parent="pd1kDjK4zznccs3xAjcE-371">
          <mxGeometry x="127" width="127" height="31" as="geometry">
            <mxRectangle width="127" height="31" as="alternateBounds" />
          </mxGeometry>
        </mxCell>
        <mxCell id="pd1kDjK4zznccs3xAjcE-374" value="334" style="connectable=0;recursiveResize=0;strokeColor=inherit;fillColor=inherit;whiteSpace=wrap;html=1;" vertex="1" parent="pd1kDjK4zznccs3xAjcE-371">
          <mxGeometry x="254" width="129" height="31" as="geometry">
            <mxRectangle width="129" height="31" as="alternateBounds" />
          </mxGeometry>
        </mxCell>
        <mxCell id="pd1kDjK4zznccs3xAjcE-375" value="最最佳" style="connectable=0;recursiveResize=0;strokeColor=inherit;fillColor=inherit;whiteSpace=wrap;html=1;" vertex="1" parent="pd1kDjK4zznccs3xAjcE-371">
          <mxGeometry x="383" width="127" height="31" as="geometry">
            <mxRectangle width="127" height="31" as="alternateBounds" />
          </mxGeometry>
        </mxCell>
        <mxCell id="pd1kDjK4zznccs3xAjcE-376" style="shape=tableRow;horizontal=0;startSize=0;swimlaneHead=0;swimlaneBody=0;top=0;left=0;bottom=0;right=0;dropTarget=0;collapsible=0;recursiveResize=0;expand=0;fontStyle=1;strokeColor=inherit;fillColor=#EAF2D3;" vertex="1" parent="pd1kDjK4zznccs3xAjcE-310">
          <mxGeometry y="395" width="510" height="31" as="geometry" />
        </mxCell>
        <mxCell id="pd1kDjK4zznccs3xAjcE-377" value="N" style="connectable=0;recursiveResize=0;strokeColor=inherit;fillColor=inherit;whiteSpace=wrap;html=1;" vertex="1" parent="pd1kDjK4zznccs3xAjcE-376">
          <mxGeometry width="127" height="31" as="geometry">
            <mxRectangle width="127" height="31" as="alternateBounds" />
          </mxGeometry>
        </mxCell>
        <mxCell id="pd1kDjK4zznccs3xAjcE-378" value="上──去──阴" style="connectable=0;recursiveResize=0;strokeColor=inherit;fillColor=inherit;whiteSpace=wrap;html=1;" vertex="1" parent="pd1kDjK4zznccs3xAjcE-376">
          <mxGeometry x="127" width="127" height="31" as="geometry">
            <mxRectangle width="127" height="31" as="alternateBounds" />
          </mxGeometry>
        </mxCell>
        <mxCell id="pd1kDjK4zznccs3xAjcE-379" value="341" style="connectable=0;recursiveResize=0;strokeColor=inherit;fillColor=inherit;whiteSpace=wrap;html=1;" vertex="1" parent="pd1kDjK4zznccs3xAjcE-376">
          <mxGeometry x="254" width="129" height="31" as="geometry">
            <mxRectangle width="129" height="31" as="alternateBounds" />
          </mxGeometry>
        </mxCell>
        <mxCell id="pd1kDjK4zznccs3xAjcE-380" value="最最佳" style="connectable=0;recursiveResize=0;strokeColor=inherit;fillColor=inherit;whiteSpace=wrap;html=1;" vertex="1" parent="pd1kDjK4zznccs3xAjcE-376">
          <mxGeometry x="383" width="127" height="31" as="geometry">
            <mxRectangle width="127" height="31" as="alternateBounds" />
          </mxGeometry>
        </mxCell>
        <mxCell id="pd1kDjK4zznccs3xAjcE-381" style="shape=tableRow;horizontal=0;startSize=0;swimlaneHead=0;swimlaneBody=0;top=0;left=0;bottom=0;right=0;dropTarget=0;collapsible=0;recursiveResize=0;expand=0;fontStyle=1;strokeColor=inherit;fillColor=#EAF2D3;" vertex="1" parent="pd1kDjK4zznccs3xAjcE-310">
          <mxGeometry y="426" width="510" height="31" as="geometry" />
        </mxCell>
        <mxCell id="pd1kDjK4zznccs3xAjcE-382" value="O" style="connectable=0;recursiveResize=0;strokeColor=inherit;fillColor=inherit;whiteSpace=wrap;html=1;" vertex="1" parent="pd1kDjK4zznccs3xAjcE-381">
          <mxGeometry width="127" height="31" as="geometry">
            <mxRectangle width="127" height="31" as="alternateBounds" />
          </mxGeometry>
        </mxCell>
        <mxCell id="pd1kDjK4zznccs3xAjcE-383" value="上──去──阳" style="connectable=0;recursiveResize=0;strokeColor=inherit;fillColor=inherit;whiteSpace=wrap;html=1;" vertex="1" parent="pd1kDjK4zznccs3xAjcE-381">
          <mxGeometry x="127" width="127" height="31" as="geometry">
            <mxRectangle width="127" height="31" as="alternateBounds" />
          </mxGeometry>
        </mxCell>
        <mxCell id="pd1kDjK4zznccs3xAjcE-384" value="342" style="connectable=0;recursiveResize=0;strokeColor=inherit;fillColor=inherit;whiteSpace=wrap;html=1;" vertex="1" parent="pd1kDjK4zznccs3xAjcE-381">
          <mxGeometry x="254" width="129" height="31" as="geometry">
            <mxRectangle width="129" height="31" as="alternateBounds" />
          </mxGeometry>
        </mxCell>
        <mxCell id="pd1kDjK4zznccs3xAjcE-385" value="最最佳" style="connectable=0;recursiveResize=0;strokeColor=inherit;fillColor=inherit;whiteSpace=wrap;html=1;" vertex="1" parent="pd1kDjK4zznccs3xAjcE-381">
          <mxGeometry x="383" width="127" height="31" as="geometry">
            <mxRectangle width="127" height="31" as="alternateBounds" />
          </mxGeometry>
        </mxCell>
        <mxCell id="pd1kDjK4zznccs3xAjcE-386" style="shape=tableRow;horizontal=0;startSize=0;swimlaneHead=0;swimlaneBody=0;top=0;left=0;bottom=0;right=0;dropTarget=0;collapsible=0;recursiveResize=0;expand=0;fontStyle=1;strokeColor=inherit;fillColor=#EAF2D3;" vertex="1" parent="pd1kDjK4zznccs3xAjcE-310">
          <mxGeometry y="457" width="510" height="31" as="geometry" />
        </mxCell>
        <mxCell id="pd1kDjK4zznccs3xAjcE-387" value="P" style="connectable=0;recursiveResize=0;strokeColor=inherit;fillColor=inherit;whiteSpace=wrap;html=1;" vertex="1" parent="pd1kDjK4zznccs3xAjcE-386">
          <mxGeometry width="127" height="31" as="geometry">
            <mxRectangle width="127" height="31" as="alternateBounds" />
          </mxGeometry>
        </mxCell>
        <mxCell id="pd1kDjK4zznccs3xAjcE-388" value="上──去──上" style="connectable=0;recursiveResize=0;strokeColor=inherit;fillColor=inherit;whiteSpace=wrap;html=1;" vertex="1" parent="pd1kDjK4zznccs3xAjcE-386">
          <mxGeometry x="127" width="127" height="31" as="geometry">
            <mxRectangle width="127" height="31" as="alternateBounds" />
          </mxGeometry>
        </mxCell>
        <mxCell id="pd1kDjK4zznccs3xAjcE-389" value="343" style="connectable=0;recursiveResize=0;strokeColor=inherit;fillColor=inherit;whiteSpace=wrap;html=1;" vertex="1" parent="pd1kDjK4zznccs3xAjcE-386">
          <mxGeometry x="254" width="129" height="31" as="geometry">
            <mxRectangle width="129" height="31" as="alternateBounds" />
          </mxGeometry>
        </mxCell>
        <mxCell id="pd1kDjK4zznccs3xAjcE-390" value="最最佳" style="connectable=0;recursiveResize=0;strokeColor=inherit;fillColor=inherit;whiteSpace=wrap;html=1;" vertex="1" parent="pd1kDjK4zznccs3xAjcE-386">
          <mxGeometry x="383" width="127" height="31" as="geometry">
            <mxRectangle width="127" height="31" as="alternateBounds" />
          </mxGeometry>
        </mxCell>
        <mxCell id="pd1kDjK4zznccs3xAjcE-391" style="shape=tableRow;horizontal=0;startSize=0;swimlaneHead=0;swimlaneBody=0;top=0;left=0;bottom=0;right=0;dropTarget=0;collapsible=0;recursiveResize=0;expand=0;fontStyle=1;strokeColor=inherit;fillColor=#EAF2D3;" vertex="1" parent="pd1kDjK4zznccs3xAjcE-310">
          <mxGeometry y="488" width="510" height="31" as="geometry" />
        </mxCell>
        <mxCell id="pd1kDjK4zznccs3xAjcE-392" value="Q" style="connectable=0;recursiveResize=0;strokeColor=inherit;fillColor=inherit;whiteSpace=wrap;html=1;" vertex="1" parent="pd1kDjK4zznccs3xAjcE-391">
          <mxGeometry width="127" height="31" as="geometry">
            <mxRectangle width="127" height="31" as="alternateBounds" />
          </mxGeometry>
        </mxCell>
        <mxCell id="pd1kDjK4zznccs3xAjcE-393" value="上──去──去" style="connectable=0;recursiveResize=0;strokeColor=inherit;fillColor=inherit;whiteSpace=wrap;html=1;" vertex="1" parent="pd1kDjK4zznccs3xAjcE-391">
          <mxGeometry x="127" width="127" height="31" as="geometry">
            <mxRectangle width="127" height="31" as="alternateBounds" />
          </mxGeometry>
        </mxCell>
        <mxCell id="pd1kDjK4zznccs3xAjcE-394" value="344" style="connectable=0;recursiveResize=0;strokeColor=inherit;fillColor=inherit;whiteSpace=wrap;html=1;" vertex="1" parent="pd1kDjK4zznccs3xAjcE-391">
          <mxGeometry x="254" width="129" height="31" as="geometry">
            <mxRectangle width="129" height="31" as="alternateBounds" />
          </mxGeometry>
        </mxCell>
        <mxCell id="pd1kDjK4zznccs3xAjcE-395" value="最佳" style="connectable=0;recursiveResize=0;strokeColor=inherit;fillColor=inherit;whiteSpace=wrap;html=1;" vertex="1" parent="pd1kDjK4zznccs3xAjcE-391">
          <mxGeometry x="383" width="127" height="31" as="geometry">
            <mxRectangle width="127" height="31" as="alternateBounds" />
          </mxGeometry>
        </mxCell>
        <mxCell id="pd1kDjK4zznccs3xAjcE-396" value="Assets" style="childLayout=tableLayout;recursiveResize=0;strokeColor=#98bf21;fillColor=#A7C942;shadow=1;" vertex="1" parent="1">
          <mxGeometry x="690" y="1763" width="510" height="519" as="geometry" />
        </mxCell>
        <mxCell id="pd1kDjK4zznccs3xAjcE-397" style="shape=tableRow;horizontal=0;startSize=0;swimlaneHead=0;swimlaneBody=0;top=0;left=0;bottom=0;right=0;dropTarget=0;collapsible=0;recursiveResize=0;expand=0;fontStyle=0;strokeColor=inherit;fillColor=#ffffff;" vertex="1" parent="pd1kDjK4zznccs3xAjcE-396">
          <mxGeometry width="510" height="20" as="geometry" />
        </mxCell>
        <mxCell id="pd1kDjK4zznccs3xAjcE-398" value="字母" style="connectable=0;recursiveResize=0;strokeColor=inherit;fillColor=#A7C942;align=center;fontStyle=1;fontColor=#FFFFFF;html=1;" vertex="1" parent="pd1kDjK4zznccs3xAjcE-397">
          <mxGeometry width="127" height="20" as="geometry">
            <mxRectangle width="127" height="20" as="alternateBounds" />
          </mxGeometry>
        </mxCell>
        <mxCell id="pd1kDjK4zznccs3xAjcE-399" value="三字" style="connectable=0;recursiveResize=0;strokeColor=inherit;fillColor=#A7C942;align=center;fontStyle=1;fontColor=#FFFFFF;html=1;" vertex="1" parent="pd1kDjK4zznccs3xAjcE-397">
          <mxGeometry x="127" width="127" height="20" as="geometry">
            <mxRectangle width="127" height="20" as="alternateBounds" />
          </mxGeometry>
        </mxCell>
        <mxCell id="pd1kDjK4zznccs3xAjcE-400" value="Title 2" style="connectable=0;recursiveResize=0;strokeColor=inherit;fillColor=#A7C942;align=center;fontStyle=1;fontColor=#FFFFFF;html=1;" vertex="1" parent="pd1kDjK4zznccs3xAjcE-397">
          <mxGeometry x="254" width="129" height="20" as="geometry">
            <mxRectangle width="129" height="20" as="alternateBounds" />
          </mxGeometry>
        </mxCell>
        <mxCell id="pd1kDjK4zznccs3xAjcE-401" value="Title 3" style="connectable=0;recursiveResize=0;strokeColor=inherit;fillColor=#A7C942;align=center;fontStyle=1;fontColor=#FFFFFF;html=1;" vertex="1" parent="pd1kDjK4zznccs3xAjcE-397">
          <mxGeometry x="383" width="127" height="20" as="geometry">
            <mxRectangle width="127" height="20" as="alternateBounds" />
          </mxGeometry>
        </mxCell>
        <mxCell id="pd1kDjK4zznccs3xAjcE-402" value="" style="shape=tableRow;horizontal=0;startSize=0;swimlaneHead=0;swimlaneBody=0;top=0;left=0;bottom=0;right=0;dropTarget=0;collapsible=0;recursiveResize=0;expand=0;fontStyle=0;strokeColor=inherit;fillColor=#ffffff;" vertex="1" parent="pd1kDjK4zznccs3xAjcE-396">
          <mxGeometry y="20" width="510" height="32" as="geometry" />
        </mxCell>
        <mxCell id="pd1kDjK4zznccs3xAjcE-403" value="A" style="connectable=0;recursiveResize=0;strokeColor=#b85450;fillColor=#eaf1d5;align=center;whiteSpace=wrap;html=1;" vertex="1" parent="pd1kDjK4zznccs3xAjcE-402">
          <mxGeometry width="127" height="32" as="geometry">
            <mxRectangle width="127" height="32" as="alternateBounds" />
          </mxGeometry>
        </mxCell>
        <mxCell id="pd1kDjK4zznccs3xAjcE-404" value="去──阴──阴" style="connectable=0;recursiveResize=0;strokeColor=#b85450;fillColor=#eaf1d5;align=center;whiteSpace=wrap;html=1;" vertex="1" parent="pd1kDjK4zznccs3xAjcE-402">
          <mxGeometry x="127" width="127" height="32" as="geometry">
            <mxRectangle width="127" height="32" as="alternateBounds" />
          </mxGeometry>
        </mxCell>
        <mxCell id="pd1kDjK4zznccs3xAjcE-405" value="411" style="connectable=0;recursiveResize=0;strokeColor=#b85450;fillColor=#eaf1d5;align=center;whiteSpace=wrap;html=1;" vertex="1" parent="pd1kDjK4zznccs3xAjcE-402">
          <mxGeometry x="254" width="129" height="32" as="geometry">
            <mxRectangle width="129" height="32" as="alternateBounds" />
          </mxGeometry>
        </mxCell>
        <mxCell id="pd1kDjK4zznccs3xAjcE-406" value="差劲" style="connectable=0;recursiveResize=0;strokeColor=#b85450;fillColor=#eaf1d5;align=center;whiteSpace=wrap;html=1;" vertex="1" parent="pd1kDjK4zznccs3xAjcE-402">
          <mxGeometry x="383" width="127" height="32" as="geometry">
            <mxRectangle width="127" height="32" as="alternateBounds" />
          </mxGeometry>
        </mxCell>
        <mxCell id="pd1kDjK4zznccs3xAjcE-407" value="" style="shape=tableRow;horizontal=0;startSize=0;swimlaneHead=0;swimlaneBody=0;top=0;left=0;bottom=0;right=0;dropTarget=0;collapsible=0;recursiveResize=0;expand=0;fontStyle=1;strokeColor=inherit;fillColor=#EAF2D3;" vertex="1" parent="pd1kDjK4zznccs3xAjcE-396">
          <mxGeometry y="52" width="510" height="31" as="geometry" />
        </mxCell>
        <mxCell id="pd1kDjK4zznccs3xAjcE-408" value="B" style="connectable=0;recursiveResize=0;strokeColor=inherit;fillColor=inherit;whiteSpace=wrap;html=1;" vertex="1" parent="pd1kDjK4zznccs3xAjcE-407">
          <mxGeometry width="127" height="31" as="geometry">
            <mxRectangle width="127" height="31" as="alternateBounds" />
          </mxGeometry>
        </mxCell>
        <mxCell id="pd1kDjK4zznccs3xAjcE-409" value="去──阴──阳" style="connectable=0;recursiveResize=0;strokeColor=inherit;fillColor=inherit;whiteSpace=wrap;html=1;" vertex="1" parent="pd1kDjK4zznccs3xAjcE-407">
          <mxGeometry x="127" width="127" height="31" as="geometry">
            <mxRectangle width="127" height="31" as="alternateBounds" />
          </mxGeometry>
        </mxCell>
        <mxCell id="pd1kDjK4zznccs3xAjcE-410" value="412" style="connectable=0;recursiveResize=0;strokeColor=inherit;fillColor=inherit;whiteSpace=wrap;html=1;" vertex="1" parent="pd1kDjK4zznccs3xAjcE-407">
          <mxGeometry x="254" width="129" height="31" as="geometry">
            <mxRectangle width="129" height="31" as="alternateBounds" />
          </mxGeometry>
        </mxCell>
        <mxCell id="pd1kDjK4zznccs3xAjcE-411" value="差劲" style="connectable=0;recursiveResize=0;strokeColor=inherit;fillColor=inherit;whiteSpace=wrap;html=1;" vertex="1" parent="pd1kDjK4zznccs3xAjcE-407">
          <mxGeometry x="383" width="127" height="31" as="geometry">
            <mxRectangle width="127" height="31" as="alternateBounds" />
          </mxGeometry>
        </mxCell>
        <mxCell id="pd1kDjK4zznccs3xAjcE-412" value="" style="shape=tableRow;horizontal=0;startSize=0;swimlaneHead=0;swimlaneBody=0;top=0;left=0;bottom=0;right=0;dropTarget=0;collapsible=0;recursiveResize=0;expand=0;fontStyle=0;strokeColor=inherit;fillColor=#ffffff;" vertex="1" parent="pd1kDjK4zznccs3xAjcE-396">
          <mxGeometry y="83" width="510" height="33" as="geometry" />
        </mxCell>
        <mxCell id="pd1kDjK4zznccs3xAjcE-413" value="C" style="connectable=0;recursiveResize=0;strokeColor=inherit;fillColor=inherit;fontStyle=0;align=center;whiteSpace=wrap;html=1;" vertex="1" parent="pd1kDjK4zznccs3xAjcE-412">
          <mxGeometry width="127" height="33" as="geometry">
            <mxRectangle width="127" height="33" as="alternateBounds" />
          </mxGeometry>
        </mxCell>
        <mxCell id="pd1kDjK4zznccs3xAjcE-414" value="去──阴──上" style="connectable=0;recursiveResize=0;strokeColor=inherit;fillColor=inherit;fontStyle=0;align=center;whiteSpace=wrap;html=1;" vertex="1" parent="pd1kDjK4zznccs3xAjcE-412">
          <mxGeometry x="127" width="127" height="33" as="geometry">
            <mxRectangle width="127" height="33" as="alternateBounds" />
          </mxGeometry>
        </mxCell>
        <mxCell id="pd1kDjK4zznccs3xAjcE-415" value="413" style="connectable=0;recursiveResize=0;strokeColor=inherit;fillColor=inherit;fontStyle=0;align=center;whiteSpace=wrap;html=1;" vertex="1" parent="pd1kDjK4zznccs3xAjcE-412">
          <mxGeometry x="254" width="129" height="33" as="geometry">
            <mxRectangle width="129" height="33" as="alternateBounds" />
          </mxGeometry>
        </mxCell>
        <mxCell id="pd1kDjK4zznccs3xAjcE-416" value="差劲" style="connectable=0;recursiveResize=0;strokeColor=inherit;fillColor=inherit;fontStyle=0;align=center;whiteSpace=wrap;html=1;" vertex="1" parent="pd1kDjK4zznccs3xAjcE-412">
          <mxGeometry x="383" width="127" height="33" as="geometry">
            <mxRectangle width="127" height="33" as="alternateBounds" />
          </mxGeometry>
        </mxCell>
        <mxCell id="pd1kDjK4zznccs3xAjcE-417" value="" style="shape=tableRow;horizontal=0;startSize=0;swimlaneHead=0;swimlaneBody=0;top=0;left=0;bottom=0;right=0;dropTarget=0;collapsible=0;recursiveResize=0;expand=0;fontStyle=1;strokeColor=inherit;fillColor=#EAF2D3;" vertex="1" parent="pd1kDjK4zznccs3xAjcE-396">
          <mxGeometry y="116" width="510" height="31" as="geometry" />
        </mxCell>
        <mxCell id="pd1kDjK4zznccs3xAjcE-418" value="D" style="connectable=0;recursiveResize=0;strokeColor=inherit;fillColor=inherit;whiteSpace=wrap;html=1;" vertex="1" parent="pd1kDjK4zznccs3xAjcE-417">
          <mxGeometry width="127" height="31" as="geometry">
            <mxRectangle width="127" height="31" as="alternateBounds" />
          </mxGeometry>
        </mxCell>
        <mxCell id="pd1kDjK4zznccs3xAjcE-419" value="去──阴──去" style="connectable=0;recursiveResize=0;strokeColor=inherit;fillColor=inherit;whiteSpace=wrap;html=1;" vertex="1" parent="pd1kDjK4zznccs3xAjcE-417">
          <mxGeometry x="127" width="127" height="31" as="geometry">
            <mxRectangle width="127" height="31" as="alternateBounds" />
          </mxGeometry>
        </mxCell>
        <mxCell id="pd1kDjK4zznccs3xAjcE-420" value="414" style="connectable=0;recursiveResize=0;strokeColor=inherit;fillColor=inherit;whiteSpace=wrap;html=1;" vertex="1" parent="pd1kDjK4zznccs3xAjcE-417">
          <mxGeometry x="254" width="129" height="31" as="geometry">
            <mxRectangle width="129" height="31" as="alternateBounds" />
          </mxGeometry>
        </mxCell>
        <mxCell id="pd1kDjK4zznccs3xAjcE-421" value="差劲" style="connectable=0;recursiveResize=0;strokeColor=inherit;fillColor=inherit;whiteSpace=wrap;html=1;" vertex="1" parent="pd1kDjK4zznccs3xAjcE-417">
          <mxGeometry x="383" width="127" height="31" as="geometry">
            <mxRectangle width="127" height="31" as="alternateBounds" />
          </mxGeometry>
        </mxCell>
        <mxCell id="pd1kDjK4zznccs3xAjcE-422" style="shape=tableRow;horizontal=0;startSize=0;swimlaneHead=0;swimlaneBody=0;top=0;left=0;bottom=0;right=0;dropTarget=0;collapsible=0;recursiveResize=0;expand=0;fontStyle=1;strokeColor=inherit;fillColor=#EAF2D3;" vertex="1" parent="pd1kDjK4zznccs3xAjcE-396">
          <mxGeometry y="147" width="510" height="31" as="geometry" />
        </mxCell>
        <mxCell id="pd1kDjK4zznccs3xAjcE-423" value="E" style="connectable=0;recursiveResize=0;strokeColor=inherit;fillColor=inherit;whiteSpace=wrap;html=1;" vertex="1" parent="pd1kDjK4zznccs3xAjcE-422">
          <mxGeometry width="127" height="31" as="geometry">
            <mxRectangle width="127" height="31" as="alternateBounds" />
          </mxGeometry>
        </mxCell>
        <mxCell id="pd1kDjK4zznccs3xAjcE-424" value="去──阳──阴" style="connectable=0;recursiveResize=0;strokeColor=inherit;fillColor=inherit;whiteSpace=wrap;html=1;" vertex="1" parent="pd1kDjK4zznccs3xAjcE-422">
          <mxGeometry x="127" width="127" height="31" as="geometry">
            <mxRectangle width="127" height="31" as="alternateBounds" />
          </mxGeometry>
        </mxCell>
        <mxCell id="pd1kDjK4zznccs3xAjcE-425" value="421" style="connectable=0;recursiveResize=0;strokeColor=inherit;fillColor=inherit;whiteSpace=wrap;html=1;" vertex="1" parent="pd1kDjK4zznccs3xAjcE-422">
          <mxGeometry x="254" width="129" height="31" as="geometry">
            <mxRectangle width="129" height="31" as="alternateBounds" />
          </mxGeometry>
        </mxCell>
        <mxCell id="pd1kDjK4zznccs3xAjcE-426" value="最最佳" style="connectable=0;recursiveResize=0;strokeColor=inherit;fillColor=inherit;whiteSpace=wrap;html=1;" vertex="1" parent="pd1kDjK4zznccs3xAjcE-422">
          <mxGeometry x="383" width="127" height="31" as="geometry">
            <mxRectangle width="127" height="31" as="alternateBounds" />
          </mxGeometry>
        </mxCell>
        <mxCell id="pd1kDjK4zznccs3xAjcE-427" style="shape=tableRow;horizontal=0;startSize=0;swimlaneHead=0;swimlaneBody=0;top=0;left=0;bottom=0;right=0;dropTarget=0;collapsible=0;recursiveResize=0;expand=0;fontStyle=1;strokeColor=inherit;fillColor=#EAF2D3;" vertex="1" parent="pd1kDjK4zznccs3xAjcE-396">
          <mxGeometry y="178" width="510" height="31" as="geometry" />
        </mxCell>
        <mxCell id="pd1kDjK4zznccs3xAjcE-428" value="F" style="connectable=0;recursiveResize=0;strokeColor=inherit;fillColor=inherit;whiteSpace=wrap;html=1;" vertex="1" parent="pd1kDjK4zznccs3xAjcE-427">
          <mxGeometry width="127" height="31" as="geometry">
            <mxRectangle width="127" height="31" as="alternateBounds" />
          </mxGeometry>
        </mxCell>
        <mxCell id="pd1kDjK4zznccs3xAjcE-429" value="去──阳──阳" style="connectable=0;recursiveResize=0;strokeColor=inherit;fillColor=inherit;whiteSpace=wrap;html=1;" vertex="1" parent="pd1kDjK4zznccs3xAjcE-427">
          <mxGeometry x="127" width="127" height="31" as="geometry">
            <mxRectangle width="127" height="31" as="alternateBounds" />
          </mxGeometry>
        </mxCell>
        <mxCell id="pd1kDjK4zznccs3xAjcE-430" value="422" style="connectable=0;recursiveResize=0;strokeColor=inherit;fillColor=inherit;whiteSpace=wrap;html=1;" vertex="1" parent="pd1kDjK4zznccs3xAjcE-427">
          <mxGeometry x="254" width="129" height="31" as="geometry">
            <mxRectangle width="129" height="31" as="alternateBounds" />
          </mxGeometry>
        </mxCell>
        <mxCell id="pd1kDjK4zznccs3xAjcE-431" value="最最佳" style="connectable=0;recursiveResize=0;strokeColor=inherit;fillColor=inherit;whiteSpace=wrap;html=1;" vertex="1" parent="pd1kDjK4zznccs3xAjcE-427">
          <mxGeometry x="383" width="127" height="31" as="geometry">
            <mxRectangle width="127" height="31" as="alternateBounds" />
          </mxGeometry>
        </mxCell>
        <mxCell id="pd1kDjK4zznccs3xAjcE-432" style="shape=tableRow;horizontal=0;startSize=0;swimlaneHead=0;swimlaneBody=0;top=0;left=0;bottom=0;right=0;dropTarget=0;collapsible=0;recursiveResize=0;expand=0;fontStyle=1;strokeColor=inherit;fillColor=#EAF2D3;" vertex="1" parent="pd1kDjK4zznccs3xAjcE-396">
          <mxGeometry y="209" width="510" height="31" as="geometry" />
        </mxCell>
        <mxCell id="pd1kDjK4zznccs3xAjcE-433" value="G" style="connectable=0;recursiveResize=0;strokeColor=inherit;fillColor=inherit;whiteSpace=wrap;html=1;" vertex="1" parent="pd1kDjK4zznccs3xAjcE-432">
          <mxGeometry width="127" height="31" as="geometry">
            <mxRectangle width="127" height="31" as="alternateBounds" />
          </mxGeometry>
        </mxCell>
        <mxCell id="pd1kDjK4zznccs3xAjcE-434" value="去──阳──上" style="connectable=0;recursiveResize=0;strokeColor=inherit;fillColor=inherit;whiteSpace=wrap;html=1;" vertex="1" parent="pd1kDjK4zznccs3xAjcE-432">
          <mxGeometry x="127" width="127" height="31" as="geometry">
            <mxRectangle width="127" height="31" as="alternateBounds" />
          </mxGeometry>
        </mxCell>
        <mxCell id="pd1kDjK4zznccs3xAjcE-435" value="423" style="connectable=0;recursiveResize=0;strokeColor=inherit;fillColor=inherit;whiteSpace=wrap;html=1;" vertex="1" parent="pd1kDjK4zznccs3xAjcE-432">
          <mxGeometry x="254" width="129" height="31" as="geometry">
            <mxRectangle width="129" height="31" as="alternateBounds" />
          </mxGeometry>
        </mxCell>
        <mxCell id="pd1kDjK4zznccs3xAjcE-436" value="最最佳" style="connectable=0;recursiveResize=0;strokeColor=inherit;fillColor=inherit;whiteSpace=wrap;html=1;" vertex="1" parent="pd1kDjK4zznccs3xAjcE-432">
          <mxGeometry x="383" width="127" height="31" as="geometry">
            <mxRectangle width="127" height="31" as="alternateBounds" />
          </mxGeometry>
        </mxCell>
        <mxCell id="pd1kDjK4zznccs3xAjcE-437" style="shape=tableRow;horizontal=0;startSize=0;swimlaneHead=0;swimlaneBody=0;top=0;left=0;bottom=0;right=0;dropTarget=0;collapsible=0;recursiveResize=0;expand=0;fontStyle=1;strokeColor=inherit;fillColor=#EAF2D3;" vertex="1" parent="pd1kDjK4zznccs3xAjcE-396">
          <mxGeometry y="240" width="510" height="31" as="geometry" />
        </mxCell>
        <mxCell id="pd1kDjK4zznccs3xAjcE-438" value="H" style="connectable=0;recursiveResize=0;strokeColor=inherit;fillColor=inherit;whiteSpace=wrap;html=1;" vertex="1" parent="pd1kDjK4zznccs3xAjcE-437">
          <mxGeometry width="127" height="31" as="geometry">
            <mxRectangle width="127" height="31" as="alternateBounds" />
          </mxGeometry>
        </mxCell>
        <mxCell id="pd1kDjK4zznccs3xAjcE-439" value="去──阳──去" style="connectable=0;recursiveResize=0;strokeColor=inherit;fillColor=inherit;whiteSpace=wrap;html=1;" vertex="1" parent="pd1kDjK4zznccs3xAjcE-437">
          <mxGeometry x="127" width="127" height="31" as="geometry">
            <mxRectangle width="127" height="31" as="alternateBounds" />
          </mxGeometry>
        </mxCell>
        <mxCell id="pd1kDjK4zznccs3xAjcE-440" value="423" style="connectable=0;recursiveResize=0;strokeColor=inherit;fillColor=inherit;whiteSpace=wrap;html=1;" vertex="1" parent="pd1kDjK4zznccs3xAjcE-437">
          <mxGeometry x="254" width="129" height="31" as="geometry">
            <mxRectangle width="129" height="31" as="alternateBounds" />
          </mxGeometry>
        </mxCell>
        <mxCell id="pd1kDjK4zznccs3xAjcE-441" value="最最佳" style="connectable=0;recursiveResize=0;strokeColor=inherit;fillColor=inherit;whiteSpace=wrap;html=1;" vertex="1" parent="pd1kDjK4zznccs3xAjcE-437">
          <mxGeometry x="383" width="127" height="31" as="geometry">
            <mxRectangle width="127" height="31" as="alternateBounds" />
          </mxGeometry>
        </mxCell>
        <mxCell id="pd1kDjK4zznccs3xAjcE-442" style="shape=tableRow;horizontal=0;startSize=0;swimlaneHead=0;swimlaneBody=0;top=0;left=0;bottom=0;right=0;dropTarget=0;collapsible=0;recursiveResize=0;expand=0;fontStyle=1;strokeColor=inherit;fillColor=#EAF2D3;" vertex="1" parent="pd1kDjK4zznccs3xAjcE-396">
          <mxGeometry y="271" width="510" height="31" as="geometry" />
        </mxCell>
        <mxCell id="pd1kDjK4zznccs3xAjcE-443" value="J" style="connectable=0;recursiveResize=0;strokeColor=inherit;fillColor=inherit;whiteSpace=wrap;html=1;" vertex="1" parent="pd1kDjK4zznccs3xAjcE-442">
          <mxGeometry width="127" height="31" as="geometry">
            <mxRectangle width="127" height="31" as="alternateBounds" />
          </mxGeometry>
        </mxCell>
        <mxCell id="pd1kDjK4zznccs3xAjcE-444" value="去──上──阴" style="connectable=0;recursiveResize=0;strokeColor=inherit;fillColor=inherit;whiteSpace=wrap;html=1;" vertex="1" parent="pd1kDjK4zznccs3xAjcE-442">
          <mxGeometry x="127" width="127" height="31" as="geometry">
            <mxRectangle width="127" height="31" as="alternateBounds" />
          </mxGeometry>
        </mxCell>
        <mxCell id="pd1kDjK4zznccs3xAjcE-445" value="431" style="connectable=0;recursiveResize=0;strokeColor=inherit;fillColor=inherit;whiteSpace=wrap;html=1;" vertex="1" parent="pd1kDjK4zznccs3xAjcE-442">
          <mxGeometry x="254" width="129" height="31" as="geometry">
            <mxRectangle width="129" height="31" as="alternateBounds" />
          </mxGeometry>
        </mxCell>
        <mxCell id="pd1kDjK4zznccs3xAjcE-446" value="最最佳" style="connectable=0;recursiveResize=0;strokeColor=inherit;fillColor=inherit;whiteSpace=wrap;html=1;" vertex="1" parent="pd1kDjK4zznccs3xAjcE-442">
          <mxGeometry x="383" width="127" height="31" as="geometry">
            <mxRectangle width="127" height="31" as="alternateBounds" />
          </mxGeometry>
        </mxCell>
        <mxCell id="pd1kDjK4zznccs3xAjcE-447" style="shape=tableRow;horizontal=0;startSize=0;swimlaneHead=0;swimlaneBody=0;top=0;left=0;bottom=0;right=0;dropTarget=0;collapsible=0;recursiveResize=0;expand=0;fontStyle=1;strokeColor=inherit;fillColor=#EAF2D3;" vertex="1" parent="pd1kDjK4zznccs3xAjcE-396">
          <mxGeometry y="302" width="510" height="31" as="geometry" />
        </mxCell>
        <mxCell id="pd1kDjK4zznccs3xAjcE-448" value="K" style="connectable=0;recursiveResize=0;strokeColor=inherit;fillColor=inherit;whiteSpace=wrap;html=1;" vertex="1" parent="pd1kDjK4zznccs3xAjcE-447">
          <mxGeometry width="127" height="31" as="geometry">
            <mxRectangle width="127" height="31" as="alternateBounds" />
          </mxGeometry>
        </mxCell>
        <mxCell id="pd1kDjK4zznccs3xAjcE-449" value="去──上──阳" style="connectable=0;recursiveResize=0;strokeColor=inherit;fillColor=inherit;whiteSpace=wrap;html=1;" vertex="1" parent="pd1kDjK4zznccs3xAjcE-447">
          <mxGeometry x="127" width="127" height="31" as="geometry">
            <mxRectangle width="127" height="31" as="alternateBounds" />
          </mxGeometry>
        </mxCell>
        <mxCell id="pd1kDjK4zznccs3xAjcE-450" value="432" style="connectable=0;recursiveResize=0;strokeColor=inherit;fillColor=inherit;whiteSpace=wrap;html=1;" vertex="1" parent="pd1kDjK4zznccs3xAjcE-447">
          <mxGeometry x="254" width="129" height="31" as="geometry">
            <mxRectangle width="129" height="31" as="alternateBounds" />
          </mxGeometry>
        </mxCell>
        <mxCell id="pd1kDjK4zznccs3xAjcE-451" value="差劲" style="connectable=0;recursiveResize=0;strokeColor=inherit;fillColor=inherit;whiteSpace=wrap;html=1;" vertex="1" parent="pd1kDjK4zznccs3xAjcE-447">
          <mxGeometry x="383" width="127" height="31" as="geometry">
            <mxRectangle width="127" height="31" as="alternateBounds" />
          </mxGeometry>
        </mxCell>
        <mxCell id="pd1kDjK4zznccs3xAjcE-452" style="shape=tableRow;horizontal=0;startSize=0;swimlaneHead=0;swimlaneBody=0;top=0;left=0;bottom=0;right=0;dropTarget=0;collapsible=0;recursiveResize=0;expand=0;fontStyle=1;strokeColor=inherit;fillColor=#EAF2D3;" vertex="1" parent="pd1kDjK4zznccs3xAjcE-396">
          <mxGeometry y="333" width="510" height="31" as="geometry" />
        </mxCell>
        <mxCell id="pd1kDjK4zznccs3xAjcE-453" value="L" style="connectable=0;recursiveResize=0;strokeColor=inherit;fillColor=inherit;whiteSpace=wrap;html=1;" vertex="1" parent="pd1kDjK4zznccs3xAjcE-452">
          <mxGeometry width="127" height="31" as="geometry">
            <mxRectangle width="127" height="31" as="alternateBounds" />
          </mxGeometry>
        </mxCell>
        <mxCell id="pd1kDjK4zznccs3xAjcE-454" value="去──上──上" style="connectable=0;recursiveResize=0;strokeColor=inherit;fillColor=inherit;whiteSpace=wrap;html=1;" vertex="1" parent="pd1kDjK4zznccs3xAjcE-452">
          <mxGeometry x="127" width="127" height="31" as="geometry">
            <mxRectangle width="127" height="31" as="alternateBounds" />
          </mxGeometry>
        </mxCell>
        <mxCell id="pd1kDjK4zznccs3xAjcE-455" value="433" style="connectable=0;recursiveResize=0;strokeColor=inherit;fillColor=inherit;whiteSpace=wrap;html=1;" vertex="1" parent="pd1kDjK4zznccs3xAjcE-452">
          <mxGeometry x="254" width="129" height="31" as="geometry">
            <mxRectangle width="129" height="31" as="alternateBounds" />
          </mxGeometry>
        </mxCell>
        <mxCell id="pd1kDjK4zznccs3xAjcE-456" value="最最佳" style="connectable=0;recursiveResize=0;strokeColor=inherit;fillColor=inherit;whiteSpace=wrap;html=1;" vertex="1" parent="pd1kDjK4zznccs3xAjcE-452">
          <mxGeometry x="383" width="127" height="31" as="geometry">
            <mxRectangle width="127" height="31" as="alternateBounds" />
          </mxGeometry>
        </mxCell>
        <mxCell id="pd1kDjK4zznccs3xAjcE-457" style="shape=tableRow;horizontal=0;startSize=0;swimlaneHead=0;swimlaneBody=0;top=0;left=0;bottom=0;right=0;dropTarget=0;collapsible=0;recursiveResize=0;expand=0;fontStyle=1;strokeColor=inherit;fillColor=#EAF2D3;" vertex="1" parent="pd1kDjK4zznccs3xAjcE-396">
          <mxGeometry y="364" width="510" height="31" as="geometry" />
        </mxCell>
        <mxCell id="pd1kDjK4zznccs3xAjcE-458" value="M" style="connectable=0;recursiveResize=0;strokeColor=inherit;fillColor=inherit;whiteSpace=wrap;html=1;" vertex="1" parent="pd1kDjK4zznccs3xAjcE-457">
          <mxGeometry width="127" height="31" as="geometry">
            <mxRectangle width="127" height="31" as="alternateBounds" />
          </mxGeometry>
        </mxCell>
        <mxCell id="pd1kDjK4zznccs3xAjcE-459" value="去──上──去" style="connectable=0;recursiveResize=0;strokeColor=inherit;fillColor=inherit;whiteSpace=wrap;html=1;" vertex="1" parent="pd1kDjK4zznccs3xAjcE-457">
          <mxGeometry x="127" width="127" height="31" as="geometry">
            <mxRectangle width="127" height="31" as="alternateBounds" />
          </mxGeometry>
        </mxCell>
        <mxCell id="pd1kDjK4zznccs3xAjcE-460" value="434" style="connectable=0;recursiveResize=0;strokeColor=inherit;fillColor=inherit;whiteSpace=wrap;html=1;" vertex="1" parent="pd1kDjK4zznccs3xAjcE-457">
          <mxGeometry x="254" width="129" height="31" as="geometry">
            <mxRectangle width="129" height="31" as="alternateBounds" />
          </mxGeometry>
        </mxCell>
        <mxCell id="pd1kDjK4zznccs3xAjcE-461" value="最最佳" style="connectable=0;recursiveResize=0;strokeColor=inherit;fillColor=inherit;whiteSpace=wrap;html=1;" vertex="1" parent="pd1kDjK4zznccs3xAjcE-457">
          <mxGeometry x="383" width="127" height="31" as="geometry">
            <mxRectangle width="127" height="31" as="alternateBounds" />
          </mxGeometry>
        </mxCell>
        <mxCell id="pd1kDjK4zznccs3xAjcE-462" style="shape=tableRow;horizontal=0;startSize=0;swimlaneHead=0;swimlaneBody=0;top=0;left=0;bottom=0;right=0;dropTarget=0;collapsible=0;recursiveResize=0;expand=0;fontStyle=1;strokeColor=inherit;fillColor=#EAF2D3;" vertex="1" parent="pd1kDjK4zznccs3xAjcE-396">
          <mxGeometry y="395" width="510" height="31" as="geometry" />
        </mxCell>
        <mxCell id="pd1kDjK4zznccs3xAjcE-463" value="N" style="connectable=0;recursiveResize=0;strokeColor=inherit;fillColor=inherit;whiteSpace=wrap;html=1;" vertex="1" parent="pd1kDjK4zznccs3xAjcE-462">
          <mxGeometry width="127" height="31" as="geometry">
            <mxRectangle width="127" height="31" as="alternateBounds" />
          </mxGeometry>
        </mxCell>
        <mxCell id="pd1kDjK4zznccs3xAjcE-464" value="去──去──阴" style="connectable=0;recursiveResize=0;strokeColor=inherit;fillColor=inherit;whiteSpace=wrap;html=1;" vertex="1" parent="pd1kDjK4zznccs3xAjcE-462">
          <mxGeometry x="127" width="127" height="31" as="geometry">
            <mxRectangle width="127" height="31" as="alternateBounds" />
          </mxGeometry>
        </mxCell>
        <mxCell id="pd1kDjK4zznccs3xAjcE-465" value="441" style="connectable=0;recursiveResize=0;strokeColor=inherit;fillColor=inherit;whiteSpace=wrap;html=1;" vertex="1" parent="pd1kDjK4zznccs3xAjcE-462">
          <mxGeometry x="254" width="129" height="31" as="geometry">
            <mxRectangle width="129" height="31" as="alternateBounds" />
          </mxGeometry>
        </mxCell>
        <mxCell id="pd1kDjK4zznccs3xAjcE-466" value="最最佳" style="connectable=0;recursiveResize=0;strokeColor=inherit;fillColor=inherit;whiteSpace=wrap;html=1;" vertex="1" parent="pd1kDjK4zznccs3xAjcE-462">
          <mxGeometry x="383" width="127" height="31" as="geometry">
            <mxRectangle width="127" height="31" as="alternateBounds" />
          </mxGeometry>
        </mxCell>
        <mxCell id="pd1kDjK4zznccs3xAjcE-467" style="shape=tableRow;horizontal=0;startSize=0;swimlaneHead=0;swimlaneBody=0;top=0;left=0;bottom=0;right=0;dropTarget=0;collapsible=0;recursiveResize=0;expand=0;fontStyle=1;strokeColor=inherit;fillColor=#EAF2D3;" vertex="1" parent="pd1kDjK4zznccs3xAjcE-396">
          <mxGeometry y="426" width="510" height="31" as="geometry" />
        </mxCell>
        <mxCell id="pd1kDjK4zznccs3xAjcE-468" value="O" style="connectable=0;recursiveResize=0;strokeColor=inherit;fillColor=inherit;whiteSpace=wrap;html=1;" vertex="1" parent="pd1kDjK4zznccs3xAjcE-467">
          <mxGeometry width="127" height="31" as="geometry">
            <mxRectangle width="127" height="31" as="alternateBounds" />
          </mxGeometry>
        </mxCell>
        <mxCell id="pd1kDjK4zznccs3xAjcE-469" value="去──去──阳" style="connectable=0;recursiveResize=0;strokeColor=inherit;fillColor=inherit;whiteSpace=wrap;html=1;" vertex="1" parent="pd1kDjK4zznccs3xAjcE-467">
          <mxGeometry x="127" width="127" height="31" as="geometry">
            <mxRectangle width="127" height="31" as="alternateBounds" />
          </mxGeometry>
        </mxCell>
        <mxCell id="pd1kDjK4zznccs3xAjcE-470" value="442" style="connectable=0;recursiveResize=0;strokeColor=inherit;fillColor=inherit;whiteSpace=wrap;html=1;" vertex="1" parent="pd1kDjK4zznccs3xAjcE-467">
          <mxGeometry x="254" width="129" height="31" as="geometry">
            <mxRectangle width="129" height="31" as="alternateBounds" />
          </mxGeometry>
        </mxCell>
        <mxCell id="pd1kDjK4zznccs3xAjcE-471" value="最最佳" style="connectable=0;recursiveResize=0;strokeColor=inherit;fillColor=inherit;whiteSpace=wrap;html=1;" vertex="1" parent="pd1kDjK4zznccs3xAjcE-467">
          <mxGeometry x="383" width="127" height="31" as="geometry">
            <mxRectangle width="127" height="31" as="alternateBounds" />
          </mxGeometry>
        </mxCell>
        <mxCell id="pd1kDjK4zznccs3xAjcE-472" style="shape=tableRow;horizontal=0;startSize=0;swimlaneHead=0;swimlaneBody=0;top=0;left=0;bottom=0;right=0;dropTarget=0;collapsible=0;recursiveResize=0;expand=0;fontStyle=1;strokeColor=inherit;fillColor=#EAF2D3;" vertex="1" parent="pd1kDjK4zznccs3xAjcE-396">
          <mxGeometry y="457" width="510" height="31" as="geometry" />
        </mxCell>
        <mxCell id="pd1kDjK4zznccs3xAjcE-473" value="P" style="connectable=0;recursiveResize=0;strokeColor=inherit;fillColor=inherit;whiteSpace=wrap;html=1;" vertex="1" parent="pd1kDjK4zznccs3xAjcE-472">
          <mxGeometry width="127" height="31" as="geometry">
            <mxRectangle width="127" height="31" as="alternateBounds" />
          </mxGeometry>
        </mxCell>
        <mxCell id="pd1kDjK4zznccs3xAjcE-474" value="去──去──上" style="connectable=0;recursiveResize=0;strokeColor=inherit;fillColor=inherit;whiteSpace=wrap;html=1;" vertex="1" parent="pd1kDjK4zznccs3xAjcE-472">
          <mxGeometry x="127" width="127" height="31" as="geometry">
            <mxRectangle width="127" height="31" as="alternateBounds" />
          </mxGeometry>
        </mxCell>
        <mxCell id="pd1kDjK4zznccs3xAjcE-475" value="443" style="connectable=0;recursiveResize=0;strokeColor=inherit;fillColor=inherit;whiteSpace=wrap;html=1;" vertex="1" parent="pd1kDjK4zznccs3xAjcE-472">
          <mxGeometry x="254" width="129" height="31" as="geometry">
            <mxRectangle width="129" height="31" as="alternateBounds" />
          </mxGeometry>
        </mxCell>
        <mxCell id="pd1kDjK4zznccs3xAjcE-476" value="差劲" style="connectable=0;recursiveResize=0;strokeColor=inherit;fillColor=inherit;whiteSpace=wrap;html=1;" vertex="1" parent="pd1kDjK4zznccs3xAjcE-472">
          <mxGeometry x="383" width="127" height="31" as="geometry">
            <mxRectangle width="127" height="31" as="alternateBounds" />
          </mxGeometry>
        </mxCell>
        <mxCell id="pd1kDjK4zznccs3xAjcE-477" style="shape=tableRow;horizontal=0;startSize=0;swimlaneHead=0;swimlaneBody=0;top=0;left=0;bottom=0;right=0;dropTarget=0;collapsible=0;recursiveResize=0;expand=0;fontStyle=1;strokeColor=inherit;fillColor=#EAF2D3;" vertex="1" parent="pd1kDjK4zznccs3xAjcE-396">
          <mxGeometry y="488" width="510" height="31" as="geometry" />
        </mxCell>
        <mxCell id="pd1kDjK4zznccs3xAjcE-478" value="Q" style="connectable=0;recursiveResize=0;strokeColor=inherit;fillColor=inherit;whiteSpace=wrap;html=1;" vertex="1" parent="pd1kDjK4zznccs3xAjcE-477">
          <mxGeometry width="127" height="31" as="geometry">
            <mxRectangle width="127" height="31" as="alternateBounds" />
          </mxGeometry>
        </mxCell>
        <mxCell id="pd1kDjK4zznccs3xAjcE-479" value="去──去──去" style="connectable=0;recursiveResize=0;strokeColor=inherit;fillColor=inherit;whiteSpace=wrap;html=1;" vertex="1" parent="pd1kDjK4zznccs3xAjcE-477">
          <mxGeometry x="127" width="127" height="31" as="geometry">
            <mxRectangle width="127" height="31" as="alternateBounds" />
          </mxGeometry>
        </mxCell>
        <mxCell id="pd1kDjK4zznccs3xAjcE-480" value="444" style="connectable=0;recursiveResize=0;strokeColor=inherit;fillColor=inherit;whiteSpace=wrap;html=1;" vertex="1" parent="pd1kDjK4zznccs3xAjcE-477">
          <mxGeometry x="254" width="129" height="31" as="geometry">
            <mxRectangle width="129" height="31" as="alternateBounds" />
          </mxGeometry>
        </mxCell>
        <mxCell id="pd1kDjK4zznccs3xAjcE-481" value="最最佳" style="connectable=0;recursiveResize=0;strokeColor=inherit;fillColor=inherit;whiteSpace=wrap;html=1;" vertex="1" parent="pd1kDjK4zznccs3xAjcE-477">
          <mxGeometry x="383" width="127" height="31" as="geometry">
            <mxRectangle width="127" height="31" as="alternateBounds" />
          </mxGeometry>
        </mxCell>
        <mxCell id="pd1kDjK4zznccs3xAjcE-482" value="字：Word" style="swimlane;fontStyle=1;align=center;verticalAlign=top;childLayout=stackLayout;horizontal=1;startSize=26;horizontalStack=0;resizeParent=1;resizeParentMax=0;resizeLast=0;collapsible=1;marginBottom=0;whiteSpace=wrap;html=1;" vertex="1" parent="1">
          <mxGeometry x="965" y="370" width="290" height="216" as="geometry" />
        </mxCell>
        <mxCell id="pd1kDjK4zznccs3xAjcE-483" value="+ word: string&amp;nbsp; &amp;nbsp;文字" style="text;strokeColor=none;fillColor=none;align=left;verticalAlign=top;spacingLeft=4;spacingRight=4;overflow=hidden;rotatable=0;points=[[0,0.5],[1,0.5]];portConstraint=eastwest;whiteSpace=wrap;html=1;" vertex="1" parent="pd1kDjK4zznccs3xAjcE-482">
          <mxGeometry y="26" width="290" height="26" as="geometry" />
        </mxCell>
        <mxCell id="pd1kDjK4zznccs3xAjcE-496" value="+ firstTone:sbyte&amp;nbsp; 声母" style="text;strokeColor=none;fillColor=none;align=left;verticalAlign=top;spacingLeft=4;spacingRight=4;overflow=hidden;rotatable=0;points=[[0,0.5],[1,0.5]];portConstraint=eastwest;whiteSpace=wrap;html=1;" vertex="1" parent="pd1kDjK4zznccs3xAjcE-482">
          <mxGeometry y="52" width="290" height="26" as="geometry" />
        </mxCell>
        <mxCell id="pd1kDjK4zznccs3xAjcE-497" value="+ firstToneStr:string&amp;nbsp; 声母字符" style="text;strokeColor=none;fillColor=none;align=left;verticalAlign=top;spacingLeft=4;spacingRight=4;overflow=hidden;rotatable=0;points=[[0,0.5],[1,0.5]];portConstraint=eastwest;whiteSpace=wrap;html=1;" vertex="1" parent="pd1kDjK4zznccs3xAjcE-482">
          <mxGeometry y="78" width="290" height="26" as="geometry" />
        </mxCell>
        <mxCell id="pd1kDjK4zznccs3xAjcE-495" value="+ endTone:sbyte&amp;nbsp; 韵脚" style="text;strokeColor=none;fillColor=none;align=left;verticalAlign=top;spacingLeft=4;spacingRight=4;overflow=hidden;rotatable=0;points=[[0,0.5],[1,0.5]];portConstraint=eastwest;whiteSpace=wrap;html=1;" vertex="1" parent="pd1kDjK4zznccs3xAjcE-482">
          <mxGeometry y="104" width="290" height="26" as="geometry" />
        </mxCell>
        <mxCell id="pd1kDjK4zznccs3xAjcE-494" value="+ endToneStr:string&amp;nbsp; 韵脚字符" style="text;strokeColor=none;fillColor=none;align=left;verticalAlign=top;spacingLeft=4;spacingRight=4;overflow=hidden;rotatable=0;points=[[0,0.5],[1,0.5]];portConstraint=eastwest;whiteSpace=wrap;html=1;" vertex="1" parent="pd1kDjK4zznccs3xAjcE-482">
          <mxGeometry y="130" width="290" height="26" as="geometry" />
        </mxCell>
        <mxCell id="pd1kDjK4zznccs3xAjcE-498" value="+ tone:byte 声调" style="text;strokeColor=none;fillColor=none;align=left;verticalAlign=top;spacingLeft=4;spacingRight=4;overflow=hidden;rotatable=0;points=[[0,0.5],[1,0.5]];portConstraint=eastwest;whiteSpace=wrap;html=1;" vertex="1" parent="pd1kDjK4zznccs3xAjcE-482">
          <mxGeometry y="156" width="290" height="26" as="geometry" />
        </mxCell>
        <mxCell id="pd1kDjK4zznccs3xAjcE-484" value="" style="line;strokeWidth=1;fillColor=none;align=left;verticalAlign=middle;spacingTop=-1;spacingLeft=3;spacingRight=3;rotatable=0;labelPosition=right;points=[];portConstraint=eastwest;strokeColor=inherit;" vertex="1" parent="pd1kDjK4zznccs3xAjcE-482">
          <mxGeometry y="182" width="290" height="8" as="geometry" />
        </mxCell>
        <mxCell id="pd1kDjK4zznccs3xAjcE-485" value="+ method(type): type" style="text;strokeColor=none;fillColor=none;align=left;verticalAlign=top;spacingLeft=4;spacingRight=4;overflow=hidden;rotatable=0;points=[[0,0.5],[1,0.5]];portConstraint=eastwest;whiteSpace=wrap;html=1;" vertex="1" parent="pd1kDjK4zznccs3xAjcE-482">
          <mxGeometry y="190" width="290" height="26" as="geometry" />
        </mxCell>
        <mxCell id="pd1kDjK4zznccs3xAjcE-486" value="复姓：CompoundSurname" style="swimlane;fontStyle=1;align=center;verticalAlign=top;childLayout=stackLayout;horizontal=1;startSize=26;horizontalStack=0;resizeParent=1;resizeParentMax=0;resizeLast=0;collapsible=1;marginBottom=0;whiteSpace=wrap;html=1;" vertex="1" parent="1">
          <mxGeometry x="965" y="600" width="240" height="112" as="geometry" />
        </mxCell>
        <mxCell id="pd1kDjK4zznccs3xAjcE-487" value="+ firstWord: Word&amp;nbsp; 第一个字" style="text;strokeColor=none;fillColor=none;align=left;verticalAlign=top;spacingLeft=4;spacingRight=4;overflow=hidden;rotatable=0;points=[[0,0.5],[1,0.5]];portConstraint=eastwest;whiteSpace=wrap;html=1;" vertex="1" parent="pd1kDjK4zznccs3xAjcE-486">
          <mxGeometry y="26" width="240" height="26" as="geometry" />
        </mxCell>
        <mxCell id="pd1kDjK4zznccs3xAjcE-499" value="+ secondWord:Word 第二个字" style="text;strokeColor=none;fillColor=none;align=left;verticalAlign=top;spacingLeft=4;spacingRight=4;overflow=hidden;rotatable=0;points=[[0,0.5],[1,0.5]];portConstraint=eastwest;whiteSpace=wrap;html=1;" vertex="1" parent="pd1kDjK4zznccs3xAjcE-486">
          <mxGeometry y="52" width="240" height="26" as="geometry" />
        </mxCell>
        <mxCell id="pd1kDjK4zznccs3xAjcE-488" value="" style="line;strokeWidth=1;fillColor=none;align=left;verticalAlign=middle;spacingTop=-1;spacingLeft=3;spacingRight=3;rotatable=0;labelPosition=right;points=[];portConstraint=eastwest;strokeColor=inherit;" vertex="1" parent="pd1kDjK4zznccs3xAjcE-486">
          <mxGeometry y="78" width="240" height="8" as="geometry" />
        </mxCell>
        <mxCell id="pd1kDjK4zznccs3xAjcE-489" value="+ method(type): type" style="text;strokeColor=none;fillColor=none;align=left;verticalAlign=top;spacingLeft=4;spacingRight=4;overflow=hidden;rotatable=0;points=[[0,0.5],[1,0.5]];portConstraint=eastwest;whiteSpace=wrap;html=1;" vertex="1" parent="pd1kDjK4zznccs3xAjcE-486">
          <mxGeometry y="86" width="240" height="26" as="geometry" />
        </mxCell>
        <mxCell id="pd1kDjK4zznccs3xAjcE-490" value="姓：Surname" style="swimlane;fontStyle=1;align=center;verticalAlign=top;childLayout=stackLayout;horizontal=1;startSize=26;horizontalStack=0;resizeParent=1;resizeParentMax=0;resizeLast=0;collapsible=1;marginBottom=0;whiteSpace=wrap;html=1;" vertex="1" parent="1">
          <mxGeometry x="1220" y="600" width="160" height="86" as="geometry" />
        </mxCell>
        <mxCell id="pd1kDjK4zznccs3xAjcE-491" value="+ word: Word，字" style="text;strokeColor=none;fillColor=none;align=left;verticalAlign=top;spacingLeft=4;spacingRight=4;overflow=hidden;rotatable=0;points=[[0,0.5],[1,0.5]];portConstraint=eastwest;whiteSpace=wrap;html=1;" vertex="1" parent="pd1kDjK4zznccs3xAjcE-490">
          <mxGeometry y="26" width="160" height="26" as="geometry" />
        </mxCell>
        <mxCell id="pd1kDjK4zznccs3xAjcE-492" value="" style="line;strokeWidth=1;fillColor=none;align=left;verticalAlign=middle;spacingTop=-1;spacingLeft=3;spacingRight=3;rotatable=0;labelPosition=right;points=[];portConstraint=eastwest;strokeColor=inherit;" vertex="1" parent="pd1kDjK4zznccs3xAjcE-490">
          <mxGeometry y="52" width="160" height="8" as="geometry" />
        </mxCell>
        <mxCell id="pd1kDjK4zznccs3xAjcE-493" value="+ method(type): type" style="text;strokeColor=none;fillColor=none;align=left;verticalAlign=top;spacingLeft=4;spacingRight=4;overflow=hidden;rotatable=0;points=[[0,0.5],[1,0.5]];portConstraint=eastwest;whiteSpace=wrap;html=1;" vertex="1" parent="pd1kDjK4zznccs3xAjcE-490">
          <mxGeometry y="60" width="160" height="26" as="geometry" />
        </mxCell>
        <mxCell id="pd1kDjK4zznccs3xAjcE-505" value="命名助手：NamingAssist" style="swimlane;fontStyle=1;align=center;verticalAlign=top;childLayout=stackLayout;horizontal=1;startSize=26;horizontalStack=0;resizeParent=1;resizeParentMax=0;resizeLast=0;collapsible=1;marginBottom=0;whiteSpace=wrap;html=1;" vertex="1" parent="1">
          <mxGeometry x="965" y="130" width="256" height="86" as="geometry" />
        </mxCell>
        <mxCell id="pd1kDjK4zznccs3xAjcE-506" value="+ field: type" style="text;strokeColor=none;fillColor=none;align=left;verticalAlign=top;spacingLeft=4;spacingRight=4;overflow=hidden;rotatable=0;points=[[0,0.5],[1,0.5]];portConstraint=eastwest;whiteSpace=wrap;html=1;" vertex="1" parent="pd1kDjK4zznccs3xAjcE-505">
          <mxGeometry y="26" width="256" height="26" as="geometry" />
        </mxCell>
        <mxCell id="pd1kDjK4zznccs3xAjcE-507" value="" style="line;strokeWidth=1;fillColor=none;align=left;verticalAlign=middle;spacingTop=-1;spacingLeft=3;spacingRight=3;rotatable=0;labelPosition=right;points=[];portConstraint=eastwest;strokeColor=inherit;" vertex="1" parent="pd1kDjK4zznccs3xAjcE-505">
          <mxGeometry y="52" width="256" height="8" as="geometry" />
        </mxCell>
        <mxCell id="pd1kDjK4zznccs3xAjcE-508" value="+ method(type): type" style="text;strokeColor=none;fillColor=none;align=left;verticalAlign=top;spacingLeft=4;spacingRight=4;overflow=hidden;rotatable=0;points=[[0,0.5],[1,0.5]];portConstraint=eastwest;whiteSpace=wrap;html=1;" vertex="1" parent="pd1kDjK4zznccs3xAjcE-505">
          <mxGeometry y="60" width="256" height="26" as="geometry" />
        </mxCell>
      </root>
    </mxGraphModel>
  </diagram>
</mxfile>
